<svg xmlns="http://www.w3.org/2000/svg" width="80" height="104.704" viewBox="0 0 80 104.704">
  <g id="Layer_58" transform="translate(-40.515 -27)">
    <g id="Grupo_148760" data-name="Grupo 148760" transform="translate(40.515 27)">
      <g id="Grupo_148712" data-name="Grupo 148712" transform="translate(1.143 1.143)">
        <path id="Trazado_207353" data-name="Trazado 207353" d="M120.729,128.94V31.778a2.285,2.285,0,0,0-2.278-2.278H45.293a2.285,2.285,0,0,0-2.278,2.278V128.94a2.977,2.977,0,0,0,2.977,2.977h71.759A2.977,2.977,0,0,0,120.729,128.94Z" transform="translate(-43.015 -29.5)" fill="#feca2e"/>
      </g>
      <g id="Grupo_148713" data-name="Grupo 148713" transform="translate(1.143 1.143)">
        <path id="Trazado_207354" data-name="Trazado 207354" d="M120.729,38.12V31.778a2.285,2.285,0,0,0-2.278-2.278H45.293a2.285,2.285,0,0,0-2.278,2.278V38.12h77.714Z" transform="translate(-43.015 -29.5)" fill="#bddcf6"/>
      </g>
      <g id="Grupo_148714" data-name="Grupo 148714" transform="translate(1.143 1.143)">
        <path id="Trazado_207355" data-name="Trazado 207355" d="M52.73,29.5H45.293a2.285,2.285,0,0,0-2.278,2.278V38.12H52.73Z" transform="translate(-43.015 -29.5)" fill="#4dd0e1"/>
      </g>
      <g id="Grupo_148720" data-name="Grupo 148720" transform="translate(66.837 4.18)">
        <path id="Trazado_207359" data-name="Trazado 207359" d="M193.216,38.428h-5.378a1.143,1.143,0,1,1,0-2.286h5.378a1.143,1.143,0,1,1,0,2.286Z" transform="translate(-186.695 -36.142)"/>
      </g>
      <g id="Grupo_148721" data-name="Grupo 148721" transform="translate(14.834 4.18)">
        <path id="Trazado_207360" data-name="Trazado 207360" d="M121.045,38.428H74.1a1.143,1.143,0,1,1,0-2.286h46.944a1.143,1.143,0,0,1,0,2.286Z" transform="translate(-72.958 -36.142)"/>
      </g>
      <g id="Grupo_148722" data-name="Grupo 148722" transform="translate(0.38 8.62)">
        <path id="Trazado_207361" data-name="Trazado 207361" d="M119.373,48.14H42.489a1.143,1.143,0,1,1,0-2.286h76.884a1.143,1.143,0,0,1,0,2.286Z" transform="translate(-41.346 -45.854)"/>
      </g>
      <g id="Grupo_148723" data-name="Grupo 148723" transform="translate(9.715 0.43)">
        <path id="Trazado_207362" data-name="Trazado 207362" d="M62.907,38.048A1.143,1.143,0,0,1,61.764,36.9V29.083a1.143,1.143,0,0,1,2.286,0V36.9A1.143,1.143,0,0,1,62.907,38.048Z" transform="translate(-61.764 -27.94)"/>
      </g>
      <g id="Grupo_148724" data-name="Grupo 148724">
        <path id="Trazado_207363" data-name="Trazado 207363" d="M116.395,131.7H44.635a4.125,4.125,0,0,1-4.12-4.12V30.421A3.425,3.425,0,0,1,43.936,27h73.158a3.425,3.425,0,0,1,3.421,3.421v97.162A4.125,4.125,0,0,1,116.395,131.7ZM43.936,29.286A1.136,1.136,0,0,0,42.8,30.421v97.162a1.837,1.837,0,0,0,1.834,1.834h71.759a1.837,1.837,0,0,0,1.835-1.834V30.421a1.136,1.136,0,0,0-1.135-1.135Z" transform="translate(-40.515 -27)"/>
      </g>
      <g id="Grupo_148752" data-name="Grupo 148752" transform="translate(15.032 32.721)">
        <g id="Grupo_148725" data-name="Grupo 148725" transform="translate(13.313)">
          <path id="Trazado_207364" data-name="Trazado 207364" d="M115.866,100.851H103.652a1.143,1.143,0,0,1,0-2.286h12.214a1.143,1.143,0,0,1,0,2.286Z" transform="translate(-102.509 -98.565)"/>
        </g>
        <g id="Grupo_148726" data-name="Grupo 148726">
          <path id="Trazado_207365" data-name="Trazado 207365" d="M82.712,100.851H74.534a1.143,1.143,0,1,1,0-2.286h8.178a1.143,1.143,0,0,1,0,2.286Z" transform="translate(-73.391 -98.565)"/>
        </g>
        <g id="Grupo_148727" data-name="Grupo 148727" transform="translate(45.289 5.527)">
          <path id="Trazado_207366" data-name="Trazado 207366" d="M176.863,112.94h-3.276a1.143,1.143,0,1,1,0-2.286h3.276a1.143,1.143,0,1,1,0,2.286Z" transform="translate(-172.444 -110.654)"/>
        </g>
        <g id="Grupo_148728" data-name="Grupo 148728" transform="translate(26.928 5.527)">
          <path id="Trazado_207367" data-name="Trazado 207367" d="M146.344,112.94H133.429a1.143,1.143,0,0,1,0-2.286h12.915a1.143,1.143,0,0,1,0,2.286Z" transform="translate(-132.286 -110.654)"/>
        </g>
        <g id="Grupo_148729" data-name="Grupo 148729" transform="translate(18.293 5.527)">
          <path id="Trazado_207368" data-name="Trazado 207368" d="M117.615,112.94h-3.073a1.143,1.143,0,1,1,0-2.286h3.073a1.143,1.143,0,0,1,0,2.286Z" transform="translate(-113.399 -110.654)"/>
        </g>
        <g id="Grupo_148730" data-name="Grupo 148730" transform="translate(0 5.527)">
          <path id="Trazado_207369" data-name="Trazado 207369" d="M87.069,112.94H74.534a1.143,1.143,0,1,1,0-2.286H87.069a1.143,1.143,0,0,1,0,2.286Z" transform="translate(-73.391 -110.654)"/>
        </g>
        <g id="Grupo_148731" data-name="Grupo 148731" transform="translate(34.89 11.055)">
          <path id="Trazado_207370" data-name="Trazado 207370" d="M164.518,125.029H150.843a1.143,1.143,0,0,1,0-2.286h13.675a1.143,1.143,0,0,1,0,2.286Z" transform="translate(-149.7 -122.743)"/>
        </g>
        <g id="Grupo_148732" data-name="Grupo 148732" transform="translate(10.046 11.055)">
          <path id="Trazado_207371" data-name="Trazado 207371" d="M115.644,125.029H96.505a1.143,1.143,0,1,1,0-2.286h19.138a1.143,1.143,0,0,1,0,2.286Z" transform="translate(-95.362 -122.743)"/>
        </g>
        <g id="Grupo_148733" data-name="Grupo 148733" transform="translate(0 11.055)">
          <path id="Trazado_207372" data-name="Trazado 207372" d="M78.935,125.029h-4.4a1.143,1.143,0,1,1,0-2.286h4.4a1.143,1.143,0,1,1,0,2.286Z" transform="translate(-73.391 -122.743)"/>
        </g>
        <g id="Grupo_148734" data-name="Grupo 148734" transform="translate(13.313 16.493)">
          <path id="Trazado_207373" data-name="Trazado 207373" d="M115.866,136.924H103.652a1.143,1.143,0,1,1,0-2.286h12.214a1.143,1.143,0,0,1,0,2.286Z" transform="translate(-102.509 -134.638)"/>
        </g>
        <g id="Grupo_148735" data-name="Grupo 148735" transform="translate(0 16.493)">
          <path id="Trazado_207374" data-name="Trazado 207374" d="M82.712,136.924H74.534a1.143,1.143,0,1,1,0-2.286h8.178a1.143,1.143,0,0,1,0,2.286Z" transform="translate(-73.391 -134.638)"/>
        </g>
        <g id="Grupo_148736" data-name="Grupo 148736" transform="translate(45.289 22.021)">
          <path id="Trazado_207375" data-name="Trazado 207375" d="M176.863,149.013h-3.276a1.143,1.143,0,1,1,0-2.286h3.276a1.143,1.143,0,1,1,0,2.286Z" transform="translate(-172.444 -146.727)"/>
        </g>
        <g id="Grupo_148737" data-name="Grupo 148737" transform="translate(26.928 22.021)">
          <path id="Trazado_207376" data-name="Trazado 207376" d="M146.344,149.013H133.429a1.143,1.143,0,1,1,0-2.286h12.915a1.143,1.143,0,1,1,0,2.286Z" transform="translate(-132.286 -146.727)"/>
        </g>
        <g id="Grupo_148738" data-name="Grupo 148738" transform="translate(18.293 22.021)">
          <path id="Trazado_207377" data-name="Trazado 207377" d="M117.615,149.013h-3.073a1.143,1.143,0,1,1,0-2.286h3.073a1.143,1.143,0,0,1,0,2.286Z" transform="translate(-113.399 -146.727)"/>
        </g>
        <g id="Grupo_148739" data-name="Grupo 148739" transform="translate(0 22.021)">
          <path id="Trazado_207378" data-name="Trazado 207378" d="M87.069,149.013H74.534a1.143,1.143,0,1,1,0-2.286H87.069a1.143,1.143,0,0,1,0,2.286Z" transform="translate(-73.391 -146.727)"/>
        </g>
        <g id="Grupo_148740" data-name="Grupo 148740" transform="translate(34.89 27.547)">
          <path id="Trazado_207379" data-name="Trazado 207379" d="M164.518,161.1H150.843a1.143,1.143,0,0,1,0-2.286h13.675a1.143,1.143,0,0,1,0,2.286Z" transform="translate(-149.7 -158.814)"/>
        </g>
        <g id="Grupo_148741" data-name="Grupo 148741" transform="translate(10.046 27.547)">
          <path id="Trazado_207380" data-name="Trazado 207380" d="M115.644,161.1H96.505a1.143,1.143,0,1,1,0-2.286h19.138a1.143,1.143,0,0,1,0,2.286Z" transform="translate(-95.362 -158.814)"/>
        </g>
        <g id="Grupo_148742" data-name="Grupo 148742" transform="translate(0 27.547)">
          <path id="Trazado_207381" data-name="Trazado 207381" d="M78.935,161.1h-4.4a1.143,1.143,0,1,1,0-2.286h4.4a1.143,1.143,0,0,1,0,2.286Z" transform="translate(-73.391 -158.814)"/>
        </g>
        <g id="Grupo_148743" data-name="Grupo 148743" transform="translate(13.313 32.986)">
          <path id="Trazado_207382" data-name="Trazado 207382" d="M115.866,173H103.652a1.143,1.143,0,0,1,0-2.286h12.214a1.143,1.143,0,0,1,0,2.286Z" transform="translate(-102.509 -170.71)"/>
        </g>
        <g id="Grupo_148744" data-name="Grupo 148744" transform="translate(0 32.986)">
          <path id="Trazado_207383" data-name="Trazado 207383" d="M82.712,173H74.534a1.143,1.143,0,1,1,0-2.286h8.178a1.143,1.143,0,0,1,0,2.286Z" transform="translate(-73.391 -170.71)"/>
        </g>
        <g id="Grupo_148745" data-name="Grupo 148745" transform="translate(45.289 38.513)">
          <path id="Trazado_207384" data-name="Trazado 207384" d="M176.863,185.084h-3.276a1.143,1.143,0,1,1,0-2.286h3.276a1.143,1.143,0,1,1,0,2.286Z" transform="translate(-172.444 -182.798)"/>
        </g>
        <g id="Grupo_148746" data-name="Grupo 148746" transform="translate(26.928 38.513)">
          <path id="Trazado_207385" data-name="Trazado 207385" d="M146.344,185.084H133.429a1.143,1.143,0,1,1,0-2.286h12.915a1.143,1.143,0,1,1,0,2.286Z" transform="translate(-132.286 -182.798)"/>
        </g>
        <g id="Grupo_148747" data-name="Grupo 148747" transform="translate(18.293 38.513)">
          <path id="Trazado_207386" data-name="Trazado 207386" d="M117.615,185.084h-3.073a1.143,1.143,0,1,1,0-2.286h3.073a1.143,1.143,0,1,1,0,2.286Z" transform="translate(-113.399 -182.798)"/>
        </g>
        <g id="Grupo_148748" data-name="Grupo 148748" transform="translate(0 38.513)">
          <path id="Trazado_207387" data-name="Trazado 207387" d="M87.069,185.084H74.534a1.143,1.143,0,1,1,0-2.286H87.069a1.143,1.143,0,0,1,0,2.286Z" transform="translate(-73.391 -182.798)"/>
        </g>
        <g id="Grupo_148749" data-name="Grupo 148749" transform="translate(34.89 44.04)">
          <path id="Trazado_207388" data-name="Trazado 207388" d="M164.518,197.173H150.843a1.143,1.143,0,0,1,0-2.286h13.675a1.143,1.143,0,0,1,0,2.286Z" transform="translate(-149.7 -194.887)"/>
        </g>
        <g id="Grupo_148750" data-name="Grupo 148750" transform="translate(10.046 44.04)">
          <path id="Trazado_207389" data-name="Trazado 207389" d="M115.644,197.173H96.505a1.143,1.143,0,1,1,0-2.286h19.138a1.143,1.143,0,0,1,0,2.286Z" transform="translate(-95.362 -194.887)"/>
        </g>
        <g id="Grupo_148751" data-name="Grupo 148751" transform="translate(0 44.04)">
          <path id="Trazado_207390" data-name="Trazado 207390" d="M78.935,197.173h-4.4a1.143,1.143,0,1,1,0-2.286h4.4a1.143,1.143,0,1,1,0,2.286Z" transform="translate(-73.391 -194.887)"/>
        </g>
      </g>
      <g id="Grupo_148759" data-name="Grupo 148759" transform="translate(15.032 15.192)">
        <g id="Grupo_148755" data-name="Grupo 148755">
          <g id="Grupo_148753" data-name="Grupo 148753">
            <path id="Trazado_207391" data-name="Trazado 207391" d="M74.534,68.457a1.143,1.143,0,1,1,0-2.286,1.6,1.6,0,0,0,1.6-1.6v-.457a3.891,3.891,0,0,1,3.886-3.886,1.143,1.143,0,1,1,0,2.286,1.6,1.6,0,0,0-1.6,1.6v.457A3.891,3.891,0,0,1,74.534,68.457Z" transform="translate(-73.391 -60.227)"/>
          </g>
          <g id="Grupo_148754" data-name="Grupo 148754" transform="translate(0 5.944)">
            <path id="Trazado_207392" data-name="Trazado 207392" d="M80.021,81.457a3.891,3.891,0,0,1-3.886-3.886v-.457a1.6,1.6,0,0,0-1.6-1.6,1.143,1.143,0,1,1,0-2.286,3.891,3.891,0,0,1,3.886,3.886v.457a1.6,1.6,0,0,0,1.6,1.6,1.143,1.143,0,1,1,0,2.286Z" transform="translate(-73.391 -73.227)"/>
          </g>
        </g>
        <g id="Grupo_148758" data-name="Grupo 148758" transform="translate(0 67.212)">
          <g id="Grupo_148756" data-name="Grupo 148756" transform="translate(0 5.944)">
            <path id="Trazado_207393" data-name="Trazado 207393" d="M74.534,228.457a1.143,1.143,0,1,1,0-2.286,1.6,1.6,0,0,0,1.6-1.6v-.457a3.891,3.891,0,0,1,3.886-3.886,1.143,1.143,0,1,1,0,2.286,1.6,1.6,0,0,0-1.6,1.6v.457A3.891,3.891,0,0,1,74.534,228.457Z" transform="translate(-73.391 -220.227)"/>
          </g>
          <g id="Grupo_148757" data-name="Grupo 148757">
            <path id="Trazado_207394" data-name="Trazado 207394" d="M80.021,215.457a3.891,3.891,0,0,1-3.886-3.886v-.457a1.6,1.6,0,0,0-1.6-1.6,1.143,1.143,0,0,1,0-2.286,3.891,3.891,0,0,1,3.886,3.886v.457a1.6,1.6,0,0,0,1.6,1.6,1.143,1.143,0,1,1,0,2.286Z" transform="translate(-73.391 -207.227)"/>
          </g>
        </g>
      </g>
    </g>
  </g>
</svg>
