<svg xmlns="http://www.w3.org/2000/svg" width="80" height="83.76" viewBox="0 0 80 83.76">
  <g id="Layer_41" transform="translate(-20.807 -4)">
    <g id="Grupo_148799" data-name="Grupo 148799" transform="translate(20.807 4)">
      <g id="Grupo_148761" data-name="Grupo 148761" transform="translate(5.036 19.37)">
        <path id="Trazado_207395" data-name="Trazado 207395" d="M99.427,55.908H84.606a15.4,15.4,0,0,1-.068,4.046,1.3,1.3,0,0,0,.479,1.207l2.921,2.34a1.316,1.316,0,0,1,.317,1.686l-2.987,5.174a1.317,1.317,0,0,1-1.618.568l-3.49-1.361a1.3,1.3,0,0,0-1.28.184,15.422,15.422,0,0,1-3.964,2.291,1.3,1.3,0,0,0-.8,1.016l-.565,3.7a1.317,1.317,0,0,1-1.3,1.118H66.28a1.316,1.316,0,0,1-1.3-1.118l-.565-3.7a1.3,1.3,0,0,0-.8-1.016,15.417,15.417,0,0,1-3.964-2.291,1.3,1.3,0,0,0-1.28-.184l-3.49,1.361a1.317,1.317,0,0,1-1.618-.568l-2.987-5.174A1.316,1.316,0,0,1,50.6,63.5l2.921-2.34A1.3,1.3,0,0,0,54,59.954a15.4,15.4,0,0,1-.068-4.046H39.107a4.818,4.818,0,0,0-4.8,4.8v45.244a4.818,4.818,0,0,0,4.8,4.8h60.32a4.818,4.818,0,0,0,4.8-4.8V60.712a4.819,4.819,0,0,0-4.8-4.8Z" transform="translate(-34.303 -55.908)" fill="#bddcf6"/>
      </g>
      <g id="Grupo_148762" data-name="Grupo 148762" transform="translate(0.933 74.221)">
        <path id="Trazado_207396" data-name="Trazado 207396" d="M98.9,202.9H25.844a2.545,2.545,0,0,0-2.537,2.537,6.088,6.088,0,0,0,6.07,6.07H95.371a6.088,6.088,0,0,0,6.07-6.07A2.544,2.544,0,0,0,98.9,202.9Z" transform="translate(-23.307 -202.899)" fill="#edf4fc"/>
      </g>
      <g id="Grupo_148763" data-name="Grupo 148763" transform="translate(21.772 0.933)">
        <path id="Trazado_207397" data-name="Trazado 207397" d="M111.247,26.7a15.485,15.485,0,0,0-.169-2.282,1.3,1.3,0,0,1,.479-1.207l2.921-2.339a1.316,1.316,0,0,0,.317-1.686l-2.987-5.174a1.317,1.317,0,0,0-1.618-.568l-3.49,1.361a1.3,1.3,0,0,1-1.28-.184,15.411,15.411,0,0,0-3.964-2.291,1.3,1.3,0,0,1-.8-1.016l-.565-3.7a1.317,1.317,0,0,0-1.3-1.118H92.819a1.316,1.316,0,0,0-1.3,1.118l-.565,3.7a1.3,1.3,0,0,1-.8,1.016,15.417,15.417,0,0,0-3.964,2.291,1.3,1.3,0,0,1-1.28.184l-3.49-1.361a1.317,1.317,0,0,0-1.618.568l-2.987,5.174a1.316,1.316,0,0,0,.317,1.686l2.921,2.339a1.3,1.3,0,0,1,.479,1.207,15.448,15.448,0,0,0,0,4.563,1.3,1.3,0,0,1-.479,1.207L77.135,32.53a1.316,1.316,0,0,0-.317,1.686L79.8,39.389a1.317,1.317,0,0,0,1.618.568l3.49-1.361a1.3,1.3,0,0,1,1.28.184,15.411,15.411,0,0,0,3.964,2.291,1.3,1.3,0,0,1,.8,1.016l.565,3.7a1.317,1.317,0,0,0,1.3,1.118h5.974a1.316,1.316,0,0,0,1.3-1.118l.565-3.7a1.3,1.3,0,0,1,.8-1.016,15.417,15.417,0,0,0,3.964-2.291,1.3,1.3,0,0,1,1.28-.184l3.49,1.361a1.317,1.317,0,0,0,1.618-.568l2.987-5.174a1.316,1.316,0,0,0-.317-1.686l-2.921-2.339a1.3,1.3,0,0,1-.479-1.207A15.438,15.438,0,0,0,111.247,26.7Z" transform="translate(-76.641 -6.5)" fill="#4dd0e1"/>
      </g>
      <g id="Grupo_148764" data-name="Grupo 148764" transform="translate(8.768 23.102)">
        <path id="Trazado_207398" data-name="Trazado 207398" d="M105.7,65.908H90.848c-.013.1-.025.21-.041.315a1.3,1.3,0,0,0,.479,1.207l2.921,2.34a1.316,1.316,0,0,1,.317,1.686l-2.987,5.174a1.317,1.317,0,0,1-1.618.568l-3.49-1.361a1.3,1.3,0,0,0-1.28.184,15.422,15.422,0,0,1-3.964,2.291,1.3,1.3,0,0,0-.8,1.016l-.565,3.7a1.317,1.317,0,0,1-1.3,1.118H72.548a1.316,1.316,0,0,1-1.3-1.118l-.565-3.7a1.3,1.3,0,0,0-.8-1.016,15.417,15.417,0,0,1-3.964-2.291,1.3,1.3,0,0,0-1.28-.184L61.152,77.2a1.317,1.317,0,0,1-1.618-.568l-2.987-5.174a1.316,1.316,0,0,1,.317-1.686l2.921-2.34a1.3,1.3,0,0,0,.479-1.207c-.016-.1-.028-.21-.041-.315H45.375A1.087,1.087,0,0,0,44.3,66.98v45.244a1.087,1.087,0,0,0,1.072,1.072H105.7a1.087,1.087,0,0,0,1.072-1.072V66.98a1.087,1.087,0,0,0-1.072-1.072Z" transform="translate(-44.303 -65.908)" fill="#feca2e"/>
      </g>
      <g id="Grupo_148765" data-name="Grupo 148765" transform="translate(27.709 74.221)">
        <path id="Trazado_207399" data-name="Trazado 207399" d="M95.062,202.9a4.493,4.493,0,0,0,4.455,4.025H115.19a4.493,4.493,0,0,0,4.455-4.025Z" transform="translate(-95.062 -202.899)" fill="#c7d7e5"/>
      </g>
      <g id="Grupo_148769" data-name="Grupo 148769" transform="translate(28.675 12.925)">
        <g id="Grupo_148766" data-name="Grupo 148766" transform="translate(0 1.736)">
          <path id="Trazado_207400" data-name="Trazado 207400" d="M104.124,56.235a.93.93,0,0,1-.66-.273l-5.541-5.541a.932.932,0,0,1,0-1.319l5.541-5.541a.933.933,0,0,1,1.319,1.319L99.9,49.761l4.881,4.882a.933.933,0,0,1-.659,1.592Z" transform="translate(-97.65 -43.287)"/>
        </g>
        <g id="Grupo_148767" data-name="Grupo 148767" transform="translate(15.243 1.736)">
          <path id="Trazado_207401" data-name="Trazado 207401" d="M139.432,56.235a.933.933,0,0,1-.66-1.592l4.881-4.882-4.881-4.882a.933.933,0,1,1,1.319-1.319l5.541,5.541a.932.932,0,0,1,0,1.319l-5.541,5.541A.927.927,0,0,1,139.432,56.235Z" transform="translate(-138.499 -43.287)"/>
        </g>
        <g id="Grupo_148768" data-name="Grupo 148768" transform="translate(8.34 0)">
          <path id="Trazado_207402" data-name="Trazado 207402" d="M120.933,55.056a.933.933,0,0,1-.9-1.186l4.1-14.553a.933.933,0,1,1,1.8.506l-4.1,14.553A.934.934,0,0,1,120.933,55.056Z" transform="translate(-119.999 -38.636)"/>
        </g>
      </g>
      <g id="Grupo_148770" data-name="Grupo 148770" transform="translate(4.103 18.437)">
        <path id="Trazado_207403" data-name="Trazado 207403" d="M97.86,110.124H37.54a5.743,5.743,0,0,1-5.737-5.737V59.144a5.743,5.743,0,0,1,5.737-5.737h14.6a.933.933,0,0,1,0,1.866H37.54a3.875,3.875,0,0,0-3.871,3.871v45.244a3.875,3.875,0,0,0,3.871,3.871H97.86a3.875,3.875,0,0,0,3.871-3.871V59.144a3.875,3.875,0,0,0-3.871-3.871H83.384a.933.933,0,1,1,0-1.866H97.86a5.743,5.743,0,0,1,5.737,5.737v45.244A5.743,5.743,0,0,1,97.86,110.124Z" transform="translate(-31.803 -53.407)"/>
      </g>
      <g id="Grupo_148771" data-name="Grupo 148771" transform="translate(0 73.288)">
        <path id="Trazado_207404" data-name="Trazado 207404" d="M93.8,210.872H27.81a7.01,7.01,0,0,1-7-7,3.474,3.474,0,0,1,3.47-3.47H97.337a3.474,3.474,0,0,1,3.47,3.47A7.01,7.01,0,0,1,93.8,210.872Zm-69.528-8.607a1.606,1.606,0,0,0-1.6,1.6,5.143,5.143,0,0,0,5.137,5.137H93.8a5.143,5.143,0,0,0,5.137-5.137,1.606,1.606,0,0,0-1.6-1.6Z" transform="translate(-20.807 -200.399)"/>
      </g>
      <g id="Grupo_148772" data-name="Grupo 148772" transform="translate(46.801 47.032)">
        <path id="Trazado_207405" data-name="Trazado 207405" d="M157.332,131.9H147.159a.933.933,0,1,1,0-1.866h10.173a.933.933,0,0,1,0,1.866Z" transform="translate(-146.226 -130.038)"/>
      </g>
      <g id="Grupo_148773" data-name="Grupo 148773" transform="translate(39.881 47.032)">
        <path id="Trazado_207406" data-name="Trazado 207406" d="M131.53,131.9h-2.917a.933.933,0,1,1,0-1.866h2.917a.933.933,0,1,1,0,1.866Z" transform="translate(-127.68 -130.038)"/>
      </g>
      <g id="Grupo_148774" data-name="Grupo 148774" transform="translate(22.065 47.032)">
        <path id="Trazado_207407" data-name="Trazado 207407" d="M94.738,131.9H80.869a.933.933,0,1,1,0-1.866H94.738a.933.933,0,1,1,0,1.866Z" transform="translate(-79.936 -130.038)"/>
      </g>
      <g id="Grupo_148775" data-name="Grupo 148775" transform="translate(16.309 47.032)">
        <path id="Trazado_207408" data-name="Trazado 207408" d="M68.111,131.9H65.444a.933.933,0,1,1,0-1.866h2.667a.933.933,0,1,1,0,1.866Z" transform="translate(-64.511 -130.038)"/>
      </g>
      <g id="Grupo_148776" data-name="Grupo 148776" transform="translate(38.247 52.017)">
        <path id="Trazado_207409" data-name="Trazado 207409" d="M136.246,145.263H124.235a.933.933,0,1,1,0-1.866h12.011a.933.933,0,0,1,0,1.866Z" transform="translate(-123.302 -143.397)"/>
      </g>
      <g id="Grupo_148777" data-name="Grupo 148777" transform="translate(22.065 52.017)">
        <path id="Trazado_207410" data-name="Trazado 207410" d="M93.1,145.263H80.869a.933.933,0,1,1,0-1.866H93.1a.933.933,0,1,1,0,1.866Z" transform="translate(-79.936 -143.397)"/>
      </g>
      <g id="Grupo_148778" data-name="Grupo 148778" transform="translate(16.309 52.017)">
        <path id="Trazado_207411" data-name="Trazado 207411" d="M68.111,145.263H65.444a.933.933,0,1,1,0-1.866h2.667a.933.933,0,1,1,0,1.866Z" transform="translate(-64.511 -143.397)"/>
      </g>
      <g id="Grupo_148779" data-name="Grupo 148779" transform="translate(46.802 57.002)">
        <path id="Trazado_207412" data-name="Trazado 207412" d="M155.658,158.622h-8.5a.933.933,0,1,1,0-1.866h8.5a.933.933,0,1,1,0,1.866Z" transform="translate(-146.227 -156.756)"/>
      </g>
      <g id="Grupo_148780" data-name="Grupo 148780" transform="translate(31.441 57.002)">
        <path id="Trazado_207413" data-name="Trazado 207413" d="M117.352,158.622H105.995a.933.933,0,1,1,0-1.866h11.358a.933.933,0,1,1,0,1.866Z" transform="translate(-105.062 -156.756)"/>
      </g>
      <g id="Grupo_148781" data-name="Grupo 148781" transform="translate(22.065 57.002)">
        <path id="Trazado_207414" data-name="Trazado 207414" d="M86.4,158.622H80.869a.933.933,0,1,1,0-1.866H86.4a.933.933,0,1,1,0,1.866Z" transform="translate(-79.936 -156.756)"/>
      </g>
      <g id="Grupo_148782" data-name="Grupo 148782" transform="translate(16.309 57.002)">
        <path id="Trazado_207415" data-name="Trazado 207415" d="M68.111,158.622H65.444a.933.933,0,1,1,0-1.866h2.667a.933.933,0,1,1,0,1.866Z" transform="translate(-64.511 -156.756)"/>
      </g>
      <g id="Grupo_148783" data-name="Grupo 148783" transform="translate(44.819 61.988)">
        <path id="Trazado_207416" data-name="Trazado 207416" d="M143.18,171.981h-1.334a.933.933,0,0,1,0-1.866h1.334a.933.933,0,1,1,0,1.866Z" transform="translate(-140.913 -170.115)"/>
      </g>
      <g id="Grupo_148784" data-name="Grupo 148784" transform="translate(33.875 61.988)">
        <path id="Trazado_207417" data-name="Trazado 207417" d="M119.62,171.981h-7.1a.933.933,0,1,1,0-1.866h7.1a.933.933,0,1,1,0,1.866Z" transform="translate(-111.585 -170.115)"/>
      </g>
      <g id="Grupo_148785" data-name="Grupo 148785" transform="translate(22.065 61.988)">
        <path id="Trazado_207418" data-name="Trazado 207418" d="M88.872,171.981h-8a.933.933,0,1,1,0-1.866h8a.933.933,0,1,1,0,1.866Z" transform="translate(-79.936 -170.115)"/>
      </g>
      <g id="Grupo_148786" data-name="Grupo 148786" transform="translate(60.779 47.032)">
        <path id="Trazado_207419" data-name="Trazado 207419" d="M185.575,131.9H185.1a.926.926,0,0,1-.435-.108l-.048.108a.933.933,0,0,1,0-1.866l.048.108a.93.93,0,0,1,.435-.108h.475a.933.933,0,1,1,0,1.866Z" transform="translate(-183.684 -130.038)"/>
      </g>
      <g id="Grupo_148787" data-name="Grupo 148787" transform="translate(54.135 52.017)">
        <path id="Trazado_207420" data-name="Trazado 207420" d="M174.413,145.263h-7.6a.933.933,0,1,1,0-1.866h7.6a.933.933,0,1,1,0,1.866Z" transform="translate(-165.878 -143.397)"/>
      </g>
      <g id="Grupo_148788" data-name="Grupo 148788" transform="translate(58.976 57.002)">
        <path id="Trazado_207421" data-name="Trazado 207421" d="M182.545,158.622h-2.761a.933.933,0,0,1,0-1.866h2.761a.933.933,0,1,1,0,1.866Z" transform="translate(-178.851 -156.756)"/>
      </g>
      <g id="Grupo_148789" data-name="Grupo 148789" transform="translate(49.53 61.988)">
        <path id="Trazado_207422" data-name="Trazado 207422" d="M166.677,171.981H154.47a.933.933,0,1,1,0-1.866h12.208a.933.933,0,1,1,0,1.866Z" transform="translate(-153.537 -170.115)"/>
      </g>
      <g id="Grupo_148790" data-name="Grupo 148790" transform="translate(16.309 61.988)">
        <path id="Trazado_207423" data-name="Trazado 207423" d="M68.111,171.981H65.444a.933.933,0,1,1,0-1.866h2.667a.933.933,0,1,1,0,1.866Z" transform="translate(-64.511 -170.115)"/>
      </g>
      <g id="Grupo_148796" data-name="Grupo 148796" transform="translate(19.899 0)">
        <path id="Trazado_207427" data-name="Trazado 207427" d="M97.22,46.269H91.246a2.237,2.237,0,0,1-2.223-1.909l-.565-3.7a.364.364,0,0,0-.216-.289,16.342,16.342,0,0,1-4.2-2.43.364.364,0,0,0-.359-.044l-3.49,1.361a2.236,2.236,0,0,1-2.765-.971l-2.987-5.173a2.236,2.236,0,0,1,.542-2.88l2.921-2.34a.373.373,0,0,0,.14-.342,16.387,16.387,0,0,1,0-4.838.372.372,0,0,0-.14-.341l-2.921-2.34a2.236,2.236,0,0,1-.542-2.88l2.987-5.174a2.238,2.238,0,0,1,2.765-.971l3.49,1.361a.366.366,0,0,0,.359-.044,16.325,16.325,0,0,1,4.2-2.43.364.364,0,0,0,.216-.288l.565-3.7A2.236,2.236,0,0,1,91.246,4H97.22a2.237,2.237,0,0,1,2.223,1.909l.565,3.7a.364.364,0,0,0,.216.289,16.342,16.342,0,0,1,4.2,2.43.366.366,0,0,0,.359.044l3.49-1.361a2.236,2.236,0,0,1,2.765.971l2.987,5.173a2.236,2.236,0,0,1-.542,2.88l-2.921,2.34a.372.372,0,0,0-.14.342,16.388,16.388,0,0,1,0,4.838.373.373,0,0,0,.14.342l2.921,2.34a2.236,2.236,0,0,1,.542,2.88l-2.987,5.174a2.236,2.236,0,0,1-2.765.971l-3.49-1.361a.364.364,0,0,0-.359.044,16.325,16.325,0,0,1-4.2,2.43.364.364,0,0,0-.216.288l-.565,3.7a2.237,2.237,0,0,1-2.223,1.908Zm-13.4-10.263a2.21,2.21,0,0,1,1.379.478,14.465,14.465,0,0,0,3.724,2.152A2.235,2.235,0,0,1,90.3,40.379l.565,3.7a.382.382,0,0,0,.379.326H97.22a.382.382,0,0,0,.379-.326l.565-3.7a2.234,2.234,0,0,1,1.377-1.743,14.46,14.46,0,0,0,3.724-2.153,2.236,2.236,0,0,1,2.2-.323l3.49,1.361a.381.381,0,0,0,.471-.165l2.987-5.174a.381.381,0,0,0-.093-.491l-2.921-2.34a2.243,2.243,0,0,1-.819-2.073,14.5,14.5,0,0,0,0-4.288,2.244,2.244,0,0,1,.819-2.073l2.921-2.339a.382.382,0,0,0,.093-.491l-2.987-5.173a.381.381,0,0,0-.471-.166l-3.49,1.361a2.235,2.235,0,0,1-2.2-.323,14.465,14.465,0,0,0-3.724-2.152A2.234,2.234,0,0,1,98.164,9.89l-.565-3.7a.38.38,0,0,0-.378-.326H91.246a.382.382,0,0,0-.379.326L90.3,9.89a2.234,2.234,0,0,1-1.377,1.743A14.46,14.46,0,0,0,85.2,13.786a2.236,2.236,0,0,1-2.2.323l-3.49-1.361a.381.381,0,0,0-.471.165l-2.988,5.173a.382.382,0,0,0,.093.491l2.921,2.34a2.243,2.243,0,0,1,.819,2.073,14.5,14.5,0,0,0,0,4.288,2.243,2.243,0,0,1-.819,2.073l-2.921,2.34a.382.382,0,0,0-.093.491l2.987,5.174a.382.382,0,0,0,.471.166L83,36.16a2.26,2.26,0,0,1,.821-.154Z" transform="translate(-74.132 -4)"/>
      </g>
      <g id="Grupo_148797" data-name="Grupo 148797" transform="translate(7.835 22.168)">
        <path id="Trazado_207428" data-name="Trazado 207428" d="M104.128,112.661H43.808a2.008,2.008,0,0,1-2.005-2.005V65.412a2.008,2.008,0,0,1,2.005-2.005H58.343a.933.933,0,0,1,0,1.866H43.808a.156.156,0,0,0-.14.14v45.244a.156.156,0,0,0,.14.14h60.32a.156.156,0,0,0,.14-.14V65.412a.156.156,0,0,0-.14-.14H89.618a.933.933,0,0,1,0-1.866h14.51a2.008,2.008,0,0,1,2.005,2.005v45.244A2.007,2.007,0,0,1,104.128,112.661Z" transform="translate(-41.803 -63.407)"/>
      </g>
      <g id="Grupo_148798" data-name="Grupo 148798" transform="translate(26.823 73.621)">
        <path id="Trazado_207429" data-name="Trazado 207429" d="M113.7,206.849H98.028a5.407,5.407,0,0,1-5.326-4.461.933.933,0,1,1,1.837-.328,3.543,3.543,0,0,0,3.49,2.923H113.7a3.561,3.561,0,0,0,3.473-2.835.933.933,0,0,1,1.827.376,5.433,5.433,0,0,1-5.3,4.325Z" transform="translate(-92.687 -201.291)"/>
      </g>
    </g>
  </g>
</svg>
