<svg xmlns="http://www.w3.org/2000/svg" width="80" height="79.647" viewBox="0 0 80 79.647">
  <g id="programacion" transform="translate(-1.25 -1.39)">
    <g id="Grupo_148570" data-name="Grupo 148570" transform="translate(2.195 2.335)">
      <g id="Grupo_148561" data-name="Grupo 148561" transform="translate(0 67.427)">
        <path id="Trazado_207250" data-name="Trazado 207250" d="M2,55.66A10.329,10.329,0,0,0,12.331,65.991H69.78A10.329,10.329,0,0,0,80.11,55.66Z" transform="translate(-2 -55.66)" fill="#bed3e3"/>
      </g>
      <g id="Grupo_148562" data-name="Grupo 148562" transform="translate(0 67.427)">
        <path id="Trazado_207251" data-name="Trazado 207251" d="M2,55.66a10.312,10.312,0,0,0,9.89,10.306c-.013-.013-.025-.038-.038-.05A4.035,4.035,0,0,1,15.09,59.44h64.3a10.2,10.2,0,0,0,.731-3.78Z" transform="translate(-2 -55.66)" fill="#a4c0d8"/>
      </g>
      <g id="Grupo_148563" data-name="Grupo 148563" transform="translate(5.128 19.729)">
        <path id="Trazado_207252" data-name="Trazado 207252" d="M68.873,17.8H11.109A5.038,5.038,0,0,0,6.07,22.839V65.485H73.913V22.839A5.046,5.046,0,0,0,68.873,17.8Z" transform="translate(-6.07 -17.8)" fill="#bed3e3"/>
      </g>
      <g id="Grupo_148564" data-name="Grupo 148564" transform="translate(10.167 24.769)">
        <path id="Trazado_207253" data-name="Trazado 207253" d="M10.07,21.8H67.834V59.406H10.07Z" transform="translate(-10.07 -21.8)" fill="#4dd0e1"/>
      </g>
      <g id="Grupo_148565" data-name="Grupo 148565" transform="translate(10.167 24.769)">
        <path id="Trazado_207254" data-name="Trazado 207254" d="M62.794,21.8A32.561,32.561,0,0,1,30.227,54.367H10.07v5.039H67.834V21.8Z" transform="translate(-10.07 -21.8)" fill="#44bac9"/>
      </g>
      <g id="Grupo_148566" data-name="Grupo 148566" transform="translate(18.759 0)">
        <path id="Trazado_207255" data-name="Trazado 207255" d="M16.89,2.14H57.482v9.991H16.89Z" transform="translate(-16.89 -2.14)" fill="#feca2e"/>
      </g>
      <g id="Grupo_148567" data-name="Grupo 148567" transform="translate(18.759 0)">
        <path id="Trazado_207256" data-name="Trazado 207256" d="M53.7,2.14a6.215,6.215,0,0,1-6.211,6.211H20.67a3.774,3.774,0,0,0-3.78,3.78H57.482V2.14Z" transform="translate(-16.89 -2.14)" fill="#e3b429"/>
      </g>
      <g id="Grupo_148568" data-name="Grupo 148568" transform="translate(18.986 9.991)">
        <path id="Trazado_207257" data-name="Trazado 207257" d="M17.07,10.07H57.662V52.791H17.07Z" transform="translate(-17.07 -10.07)" fill="#e6e9ee"/>
      </g>
      <g id="Grupo_148569" data-name="Grupo 148569" transform="translate(18.986 9.991)">
        <path id="Trazado_207258" data-name="Trazado 207258" d="M52.61,10.07v2.142a35.54,35.54,0,0,1-35.54,35.54v5.039H57.662V10.07Z" transform="translate(-17.07 -10.07)" fill="#c8ced6"/>
      </g>
    </g>
    <g id="Grupo_148595" data-name="Grupo 148595" transform="translate(1.25 1.39)">
      <g id="Grupo_148571" data-name="Grupo 148571" transform="translate(0 67.427)">
        <path id="Trazado_207259" data-name="Trazado 207259" d="M69.974,67.13H12.526A11.288,11.288,0,0,1,1.25,55.855a.952.952,0,0,1,.945-.945h78.11a.952.952,0,0,1,.945.945A11.288,11.288,0,0,1,69.974,67.13ZM3.19,56.8a9.4,9.4,0,0,0,9.335,8.441H69.974A9.4,9.4,0,0,0,79.31,56.8Z" transform="translate(-1.25 -54.91)"/>
      </g>
      <g id="Grupo_148572" data-name="Grupo 148572" transform="translate(35.112 72.592)">
        <path id="Trazado_207260" data-name="Trazado 207260" d="M37.951,60.9H30.065a.945.945,0,1,1,0-1.89h7.887a.945.945,0,1,1,0,1.89Z" transform="translate(-29.12 -59.01)"/>
      </g>
      <g id="Grupo_148573" data-name="Grupo 148573" transform="translate(18.759)">
        <path id="Trazado_207261" data-name="Trazado 207261" d="M57.677,13.27H17.085a.952.952,0,0,1-.945-.945V2.335a.952.952,0,0,1,.945-.945H57.677a.952.952,0,0,1,.945.945v9.991A.944.944,0,0,1,57.677,13.27ZM18.03,11.381h38.7V3.28H18.03Z" transform="translate(-16.14 -1.39)"/>
      </g>
      <g id="Grupo_148574" data-name="Grupo 148574" transform="translate(24.101 4.649)">
        <circle id="Elipse_4867" data-name="Elipse 4867" cx="1.298" cy="1.298" r="1.298"/>
      </g>
      <g id="Grupo_148575" data-name="Grupo 148575" transform="translate(28.535 4.649)">
        <circle id="Elipse_4868" data-name="Elipse 4868" cx="1.298" cy="1.298" r="1.298"/>
      </g>
      <g id="Grupo_148576" data-name="Grupo 148576" transform="translate(32.97 4.649)">
        <circle id="Elipse_4869" data-name="Elipse 4869" cx="1.298" cy="1.298" r="1.298"/>
      </g>
      <g id="Grupo_148577" data-name="Grupo 148577" transform="translate(28.753 19.039)">
        <path id="Trazado_207262" data-name="Trazado 207262" d="M29.147,26.654a.934.934,0,0,1-.668-.277l-4.132-4.132a.951.951,0,0,1,0-1.335l4.132-4.132a.944.944,0,0,1,1.335,1.335L26.35,21.577l3.465,3.465a.951.951,0,0,1,0,1.335.914.914,0,0,1-.668.277Z" transform="translate(-24.073 -16.503)"/>
      </g>
      <g id="Grupo_148578" data-name="Grupo 148578" transform="translate(49.587 37.405)">
        <path id="Trazado_207263" data-name="Trazado 207263" d="M45.952,32.97h-4.4a.945.945,0,0,1,0-1.89h4.4a.945.945,0,1,1,0,1.89Z" transform="translate(-40.61 -31.08)"/>
      </g>
      <g id="Grupo_148579" data-name="Grupo 148579" transform="translate(43.339 37.405)">
        <path id="Trazado_207264" data-name="Trazado 207264" d="M38.963,32.97H36.595a.945.945,0,0,1,0-1.89h2.369a.945.945,0,0,1,0,1.89Z" transform="translate(-35.65 -31.08)"/>
      </g>
      <g id="Grupo_148580" data-name="Grupo 148580" transform="translate(24.126 37.405)">
        <path id="Trazado_207265" data-name="Trazado 207265" d="M25.3,32.97H21.345a.945.945,0,0,1,0-1.89H25.3a.945.945,0,1,1,0,1.89Z" transform="translate(-20.4 -31.08)"/>
      </g>
      <g id="Grupo_148581" data-name="Grupo 148581" transform="translate(31.71 37.405)">
        <path id="Trazado_207266" data-name="Trazado 207266" d="M34.71,32.97H27.365a.945.945,0,0,1,0-1.89H34.71a.945.945,0,1,1,0,1.89Z" transform="translate(-26.42 -31.08)"/>
      </g>
      <g id="Grupo_148582" data-name="Grupo 148582" transform="translate(24.126 42.306)">
        <path id="Trazado_207267" data-name="Trazado 207267" d="M25.8,36.86h-4.46a.945.945,0,0,1,0-1.89H25.8a.945.945,0,0,1,0,1.89Z" transform="translate(-20.4 -34.97)"/>
      </g>
      <g id="Grupo_148583" data-name="Grupo 148583" transform="translate(32.315 42.306)">
        <path id="Trazado_207268" data-name="Trazado 207268" d="M29.911,36.86H27.845a.945.945,0,1,1,0-1.89h2.066a.945.945,0,0,1,0,1.89Z" transform="translate(-26.9 -34.97)"/>
      </g>
      <g id="Grupo_148584" data-name="Grupo 148584" transform="translate(46.274 42.306)">
        <path id="Trazado_207269" data-name="Trazado 207269" d="M46.635,36.86h-7.71a.945.945,0,0,1,0-1.89h7.71a.945.945,0,0,1,0,1.89Z" transform="translate(-37.98 -34.97)"/>
      </g>
      <g id="Grupo_148585" data-name="Grupo 148585" transform="translate(38.009 42.306)">
        <path id="Trazado_207270" data-name="Trazado 207270" d="M36.686,36.86H32.365a.945.945,0,0,1,0-1.89h4.321a.945.945,0,1,1,0,1.89Z" transform="translate(-31.42 -34.97)"/>
      </g>
      <g id="Grupo_148586" data-name="Grupo 148586" transform="translate(49.587 47.206)">
        <path id="Trazado_207271" data-name="Trazado 207271" d="M45.952,40.75h-4.4a.945.945,0,1,1,0-1.89h4.4a.945.945,0,1,1,0,1.89Z" transform="translate(-40.61 -38.86)"/>
      </g>
      <g id="Grupo_148587" data-name="Grupo 148587" transform="translate(43.339 47.206)">
        <path id="Trazado_207272" data-name="Trazado 207272" d="M38.963,40.75H36.595a.945.945,0,0,1,0-1.89h2.369a.945.945,0,0,1,0,1.89Z" transform="translate(-35.65 -38.86)"/>
      </g>
      <g id="Grupo_148588" data-name="Grupo 148588" transform="translate(24.126 47.206)">
        <path id="Trazado_207273" data-name="Trazado 207273" d="M25.3,40.75H21.345a.945.945,0,1,1,0-1.89H25.3a.945.945,0,1,1,0,1.89Z" transform="translate(-20.4 -38.86)"/>
      </g>
      <g id="Grupo_148589" data-name="Grupo 148589" transform="translate(31.71 47.206)">
        <path id="Trazado_207274" data-name="Trazado 207274" d="M34.71,40.75H27.365a.945.945,0,1,1,0-1.89H34.71a.945.945,0,1,1,0,1.89Z" transform="translate(-26.42 -38.86)"/>
      </g>
      <g id="Grupo_148590" data-name="Grupo 148590" transform="translate(45.231 19.039)">
        <path id="Trazado_207275" data-name="Trazado 207275" d="M38.094,26.654a.934.934,0,0,1-.668-.277.951.951,0,0,1,0-1.335l3.465-3.465-3.465-3.465a.944.944,0,1,1,1.335-1.335l4.132,4.132a.951.951,0,0,1,0,1.335l-4.132,4.132a.934.934,0,0,1-.668.277Z" transform="translate(-37.153 -16.503)"/>
      </g>
      <g id="Grupo_148591" data-name="Grupo 148591" transform="translate(36.367 15.492)">
        <path id="Trazado_207276" data-name="Trazado 207276" d="M31.066,30.9a.916.916,0,0,1-.315-.05.951.951,0,0,1-.58-1.209l5.367-15.32a.948.948,0,1,1,1.789.63L31.96,30.27A.946.946,0,0,1,31.066,30.9Z" transform="translate(-30.117 -13.687)"/>
      </g>
      <g id="Grupo_148592" data-name="Grupo 148592" transform="translate(18.759 9.991)">
        <path id="Trazado_207277" data-name="Trazado 207277" d="M57.677,53.944H17.085A.952.952,0,0,1,16.14,53V10.265a.952.952,0,0,1,.945-.945H57.677a.952.952,0,0,1,.945.945V52.986A.954.954,0,0,1,57.677,53.944ZM18.03,52.054h38.7V11.21H18.03Z" transform="translate(-16.14 -9.32)"/>
      </g>
      <g id="Grupo_148593" data-name="Grupo 148593" transform="translate(5.14 19.729)">
        <path id="Trazado_207278" data-name="Trazado 207278" d="M74.1,66.637H6.275a.952.952,0,0,1-.945-.945V23.034a5.99,5.99,0,0,1,5.984-5.984h8.592a.945.945,0,0,1,0,1.89H11.314A4.1,4.1,0,0,0,7.22,23.034v41.7H73.173v-41.7a4.1,4.1,0,0,0-4.094-4.094H60.486a.945.945,0,0,1,0-1.89h8.592a5.99,5.99,0,0,1,5.984,5.984V65.68A.965.965,0,0,1,74.1,66.637Z" transform="translate(-5.33 -17.05)"/>
      </g>
      <g id="Grupo_148594" data-name="Grupo 148594" transform="translate(10.18 24.769)">
        <path id="Trazado_207279" data-name="Trazado 207279" d="M68.026,60.559H10.275a.952.952,0,0,1-.945-.945V21.995a.952.952,0,0,1,.945-.945h8.592a.945.945,0,1,1,0,1.89H11.22V58.656H67.094V22.94H59.447a.945.945,0,1,1,0-1.89h8.592a.952.952,0,0,1,.945.945V59.6A.965.965,0,0,1,68.026,60.559Z" transform="translate(-9.33 -21.05)"/>
      </g>
    </g>
  </g>
</svg>
