<svg xmlns="http://www.w3.org/2000/svg" width="190" height="115" viewBox="0 0 190 115">
  <g id="Grupo_172611" data-name="Grupo 172611" transform="translate(-180 -399)">
    <rect id="Rectángulo_43992" data-name="Rectángulo 43992" width="190" height="115" transform="translate(180 399)" fill="none"/>
    <rect id="Rectángulo_41430" data-name="Rectángulo 41430" width="85" height="28" rx="14" transform="translate(285 407)" fill="#feca2e" opacity="0.2"/>
    <rect id="Rectángulo_41431" data-name="Rectángulo 41431" width="85" height="28" rx="14" transform="translate(180 468)" fill="#4dd0e1" opacity="0.2"/>
    <g id="Grupo_172744" data-name="Grupo 172744" transform="translate(6648.067 9749)">
      <g id="Grupo_172613" data-name="Grupo 172613" transform="translate(-6415.063 -9338)">
        <g id="g25" transform="translate(29.147 0)">
          <path id="path27" d="M-146.462-99.18a3.118,3.118,0,0,1-2.22-.919l-9.712-9.712a3.145,3.145,0,0,1,0-4.438l9.713-9.711a3.115,3.115,0,0,1,2.22-.92,3.116,3.116,0,0,1,2.221.921l9.71,9.709a3.145,3.145,0,0,1,0,4.439l-2.556,2.556a1.336,1.336,0,0,1-1.889,0,1.336,1.336,0,0,1,0-1.889l2.556-2.556a.469.469,0,0,0,0-.663l-9.71-9.709a.465.465,0,0,0-.331-.138.463.463,0,0,0-.329.137l-9.713,9.711a.469.469,0,0,0,0,.661l9.712,9.712a.466.466,0,0,0,.331.136.466.466,0,0,0,.331-.136l2.748-2.748a1.336,1.336,0,0,1,1.889,0,1.336,1.336,0,0,1,0,1.889l-2.748,2.748A3.118,3.118,0,0,1-146.462-99.18Z" transform="translate(159.31 124.88)" fill="#0f2771"/>
        </g>
        <g id="g29" transform="translate(29.145 35.621)">
          <path id="path31" d="M-55.488,1.308H-74.919a3.138,3.138,0,0,1-3.135-3.135V-6.865A3.138,3.138,0,0,1-74.919-10h1.058a1.336,1.336,0,0,1,1.336,1.336,1.336,1.336,0,0,1-1.336,1.336h-1.058a.464.464,0,0,0-.463.463v5.038a.464.464,0,0,0,.463.463h19.431a.464.464,0,0,0,.463-.463V-6.865a.464.464,0,0,0-.463-.463H-67.627a1.336,1.336,0,0,1-1.336-1.336A1.336,1.336,0,0,1-67.627-10h12.139a3.138,3.138,0,0,1,3.135,3.135v5.038A3.138,3.138,0,0,1-55.488,1.308Z" transform="translate(78.053 10)" fill="#0f2771"/>
        </g>
        <g id="g33" transform="translate(29.145 79.879)">
          <path id="path35" d="M-122.915-63.346h-3.133a1.336,1.336,0,0,1-1.336-1.336,1.336,1.336,0,0,1,1.336-1.336h3.133a.464.464,0,0,0,.463-.463v-5.038a.464.464,0,0,0-.463-.463h-19.431a.464.464,0,0,0-.463.463v5.038a.464.464,0,0,0,.463.463h10.064a1.336,1.336,0,0,1,1.336,1.336,1.336,1.336,0,0,1-1.336,1.336h-10.064a3.138,3.138,0,0,1-3.135-3.135v-5.038a3.138,3.138,0,0,1,3.135-3.135h19.431a3.138,3.138,0,0,1,3.135,3.135v5.038A3.138,3.138,0,0,1-122.915-63.346Z" transform="translate(145.48 74.653)" fill="#0f2771"/>
        </g>
        <g id="g37" transform="translate(29.145 57.751)">
          <path id="path39" d="M-146.367-63.343H-165.8a3.138,3.138,0,0,1-3.135-3.135v-5.037A3.138,3.138,0,0,1-165.8-74.65h19.43a3.138,3.138,0,0,1,3.135,3.135v5.037A3.138,3.138,0,0,1-146.367-63.343Zm-19.43-8.636a.464.464,0,0,0-.463.463v5.037a.464.464,0,0,0,.463.463h19.43a.464.464,0,0,0,.463-.463v-5.037a.464.464,0,0,0-.463-.463Z" transform="translate(168.932 74.65)" fill="#0f2771"/>
        </g>
        <g id="g41" transform="translate(58.291 57.751)">
          <path id="path43" d="M-146.367-63.343H-165.8a3.138,3.138,0,0,1-3.135-3.135v-5.037A3.138,3.138,0,0,1-165.8-74.65h19.43a3.138,3.138,0,0,1,3.135,3.135v5.037A3.138,3.138,0,0,1-146.367-63.343Zm-19.43-8.636a.464.464,0,0,0-.463.463v5.037a.464.464,0,0,0,.463.463h19.43a.464.464,0,0,0,.463-.463v-5.037a.464.464,0,0,0-.463-.463Z" transform="translate(168.932 74.65)" fill="#0f2771"/>
        </g>
        <g id="g45" transform="translate(61.169 31.304)">
          <path id="path47" d="M-129.33-74.65a9.983,9.983,0,0,1,9.971,9.971,9.983,9.983,0,0,1-9.971,9.971,9.983,9.983,0,0,1-9.971-9.971A9.983,9.983,0,0,1-129.33-74.65Zm0,17.271a7.308,7.308,0,0,0,7.3-7.3,7.308,7.308,0,0,0-7.3-7.3,7.308,7.308,0,0,0-7.3,7.3A7.308,7.308,0,0,0-129.33-57.379Z" transform="translate(139.301 74.65)" fill="#0f2771"/>
        </g>
        <g id="g49" transform="translate(0 57.751)">
          <path id="path51" d="M-.9-63.343h-19.43a3.138,3.138,0,0,1-3.135-3.135v-5.037a3.138,3.138,0,0,1,3.135-3.135H-.9a3.138,3.138,0,0,1,3.135,3.135v5.037A3.138,3.138,0,0,1-.9-63.343Zm-19.43-8.636a.464.464,0,0,0-.463.463v5.037a.464.464,0,0,0,.463.463H-.9a.464.464,0,0,0,.463-.463v-5.037A.464.464,0,0,0-.9-71.979Z" transform="translate(23.469 74.65)" fill="#0f2771"/>
        </g>
        <g id="g53" transform="translate(2.879 31.304)">
          <path id="path55" d="M-.029-74.65a9.983,9.983,0,0,1,9.971,9.971A9.983,9.983,0,0,1-.029-54.708,9.983,9.983,0,0,1-10-64.679,9.983,9.983,0,0,1-.029-74.65Zm0,17.271a7.308,7.308,0,0,0,7.3-7.3,7.308,7.308,0,0,0-7.3-7.3,7.308,7.308,0,0,0-7.3,7.3A7.308,7.308,0,0,0-.029-57.379Z" transform="translate(10 74.65)" fill="#0f2771"/>
        </g>
        <g id="g57" transform="translate(40.659 23.028)">
          <path id="path59" d="M-8.664,5.265A1.336,1.336,0,0,1-10,3.929V-8.664A1.336,1.336,0,0,1-8.664-10,1.336,1.336,0,0,1-7.328-8.664V3.929A1.336,1.336,0,0,1-8.664,5.265Z" transform="translate(10 10)" fill="#0f2771"/>
        </g>
        <g id="g61" transform="translate(40.659 44.258)">
          <path id="path63" d="M-8.664,6.165A1.336,1.336,0,0,1-10,4.829V-8.664A1.336,1.336,0,0,1-8.664-10,1.336,1.336,0,0,1-7.328-8.664V4.829A1.336,1.336,0,0,1-8.664,6.165Z" transform="translate(10 10)" fill="#0f2771"/>
        </g>
        <g id="g65" transform="translate(40.659 66.386)">
          <path id="path67" d="M-8.664,6.165A1.336,1.336,0,0,1-10,4.829V-8.664A1.336,1.336,0,0,1-8.664-10,1.336,1.336,0,0,1-7.328-8.664V4.829A1.336,1.336,0,0,1-8.664,6.165Z" transform="translate(10 10)" fill="#0f2771"/>
        </g>
        <g id="g69" transform="translate(69.805 48.575)">
          <path id="path71" d="M-8.664,1.847A1.336,1.336,0,0,1-10,.511V-8.664A1.336,1.336,0,0,1-8.664-10,1.336,1.336,0,0,1-7.328-8.664V.511A1.336,1.336,0,0,1-8.664,1.847Z" transform="translate(10 10)" fill="#0f2771"/>
        </g>
        <g id="g73" transform="translate(11.514 48.575)">
          <path id="path75" d="M-8.664,1.847A1.336,1.336,0,0,1-10,.511V-8.664A1.336,1.336,0,0,1-8.664-10,1.336,1.336,0,0,1-7.328-8.664V.511A1.336,1.336,0,0,1-8.664,1.847Z" transform="translate(10 10)" fill="#0f2771"/>
        </g>
        <g id="g77" transform="translate(11.514 66.386)">
          <path id="path79" d="M8.967,10.482H-8.664A1.336,1.336,0,0,1-10,9.147V-8.664A1.336,1.336,0,0,1-8.664-10,1.336,1.336,0,0,1-7.329-8.664V7.811h16.3a1.336,1.336,0,1,1,0,2.671Z" transform="translate(10 10)" fill="#0f2771"/>
        </g>
        <g id="g81" transform="translate(52.174 66.386)">
          <path id="path83" d="M-123.028,10.482h-17.631a1.336,1.336,0,0,1-1.336-1.336,1.336,1.336,0,0,1,1.336-1.336h16.3V-8.664A1.336,1.336,0,0,1-123.028-10a1.336,1.336,0,0,1,1.336,1.336V9.147A1.336,1.336,0,0,1-123.028,10.482Z" transform="translate(141.994 10)" fill="#0f2771"/>
        </g>
        <g id="g85" transform="translate(20.15 39.94)">
          <path id="path87" d="M.331-7.328h-9A1.336,1.336,0,0,1-10-8.664,1.336,1.336,0,0,1-8.664-10h9A1.336,1.336,0,0,1,1.667-8.664,1.336,1.336,0,0,1,.331-7.328Z" transform="translate(10 10)" fill="#0f2771"/>
        </g>
        <g id="g89" transform="translate(52.174 39.94)">
          <path id="path91" d="M-67.013-7.328h-9a1.336,1.336,0,0,1-1.336-1.336A1.336,1.336,0,0,1-76.008-10h9a1.336,1.336,0,0,1,1.336,1.336A1.336,1.336,0,0,1-67.013-7.328Z" transform="translate(77.344 10)" fill="#0f2771"/>
        </g>
        <g id="g93" transform="translate(23.028 62.068)">
          <path id="path95" d="M-2.547-7.328H-8.664A1.336,1.336,0,0,1-10-8.664,1.336,1.336,0,0,1-8.664-10h6.117A1.336,1.336,0,0,1-1.212-8.664,1.336,1.336,0,0,1-2.547-7.328Z" transform="translate(10 10)" fill="#0f2771"/>
        </g>
        <g id="g97" transform="translate(52.174 62.068)">
          <path id="path99" d="M-48.342-7.328h-6.117a1.336,1.336,0,0,1-1.336-1.336A1.336,1.336,0,0,1-54.459-10h6.117a1.336,1.336,0,0,1,1.336,1.336A1.336,1.336,0,0,1-48.342-7.328Z" transform="translate(55.795 10)" fill="#0f2771"/>
        </g>
      </g>
    </g>
  </g>
</svg>
