<svg xmlns="http://www.w3.org/2000/svg" xmlns:xlink="http://www.w3.org/1999/xlink" width="68" height="68" viewBox="0 0 68 68">
  <defs>
    <filter id="Elipse_180" x="0" y="0" width="68" height="68" filterUnits="userSpaceOnUse">
      <feOffset dy="3" input="SourceAlpha"/>
      <feGaussianBlur stdDeviation="3" result="blur"/>
      <feFlood flood-opacity="0.161"/>
      <feComposite operator="in" in2="blur"/>
      <feComposite in="SourceGraphic"/>
    </filter>
  </defs>
  <g id="Grupo_109086" data-name="Grupo 109086" transform="translate(9 6)">
    <g transform="matrix(1, 0, 0, 1, -9, -6)" filter="url(#Elipse_180)">
      <circle id="Elipse_180-2" data-name="Elipse 180" cx="25" cy="25" r="25" transform="translate(9 6)" fill="#feca2e"/>
    </g>
    <path id="Trazado_207596" data-name="Trazado 207596" d="M-3.637-16.124h2.95q3.507,0,3.507-3.433a2.968,2.968,0,0,0-.835-2.18,3.166,3.166,0,0,0-2.356-.844,3.39,3.39,0,0,0-2.162.724,2.208,2.208,0,0,0-.918,1.8H-9.7a6.4,6.4,0,0,1,1.188-3.8,7.842,7.842,0,0,1,3.293-2.607,11.26,11.26,0,0,1,4.629-.937,11.064,11.064,0,0,1,7.088,2.06,6.847,6.847,0,0,1,2.579,5.659,5.707,5.707,0,0,1-1.067,3.293A7.6,7.6,0,0,1,4.9-13.879a7.263,7.263,0,0,1,3.377,2.366A6.23,6.23,0,0,1,9.5-7.589,6.971,6.971,0,0,1,6.717-1.8,11.553,11.553,0,0,1-.594.371,11.981,11.981,0,0,1-5.52-.64a7.718,7.718,0,0,1-3.442-2.8,7.284,7.284,0,0,1-1.169-4.073h6.29a2.815,2.815,0,0,0,1,2.152,3.537,3.537,0,0,0,2.468.909,3.705,3.705,0,0,0,2.635-.918,3.07,3.07,0,0,0,.983-2.347,3.589,3.589,0,0,0-1.021-2.895,4.266,4.266,0,0,0-2.82-.854H-3.637Z" transform="translate(25 38)" fill="#12263f"/>
  </g>
</svg>
