<svg xmlns="http://www.w3.org/2000/svg" width="83.154" height="59.484" viewBox="0 0 83.154 59.484">
  <g id="Grupo_172766" data-name="Grupo 172766" transform="translate(15463.312 12063.982)">
    <path id="Trazado_203630" data-name="Trazado 203630" d="M72.415,281.388H10.869a9.186,9.186,0,0,1-9.181-8.876L.321,232.032a9.186,9.186,0,0,1,9.181-9.5h64.15A9.186,9.186,0,0,1,82.834,232L81.6,272.483a9.187,9.187,0,0,1-9.182,8.9" transform="translate(-15463.313 -12286.202)" fill="#feca2e"/>
    <path id="Trazado_203631" data-name="Trazado 203631" d="M72.415,281.7H10.869a9.466,9.466,0,0,1-9.5-9.181L.006,232.043a9.5,9.5,0,0,1,9.5-9.823H73.653a9.5,9.5,0,0,1,9.5,9.792l-1.237,40.481a9.458,9.458,0,0,1-9.5,9.211M9.5,222.851a8.871,8.871,0,0,0-8.865,9.17L2,272.5a8.836,8.836,0,0,0,8.866,8.572H72.415a8.83,8.83,0,0,0,8.866-8.6l1.238-40.481a8.871,8.871,0,0,0-8.866-9.141Z" transform="translate(-15463.313 -12286.202)" fill="#953da2"/>
    <path id="Trazado_203632" data-name="Trazado 203632" d="M27.277,237.079,12.1,254.668l15.453,13.118v-6.77l-8.94-7.74,8.3-9.386Z" transform="translate(-15463.313 -12286.202)" fill="#fff"/>
    <path id="Trazado_203633" data-name="Trazado 203633" d="M53.951,237.869l15.175,17.589L53.672,268.576v-6.77l8.94-7.74-9.948-10.527Z" transform="translate(-15463.313 -12286.202)" fill="#fff"/>
    <path id="Trazado_203634" data-name="Trazado 203634" d="M30.583,267.787l13.223-29.128h6.213L35.043,267.787Z" transform="translate(-15463.313 -12286.202)" fill="#fff"/>
  </g>
</svg>
