<svg xmlns="http://www.w3.org/2000/svg" xmlns:xlink="http://www.w3.org/1999/xlink" width="68" height="68" viewBox="0 0 68 68">
  <defs>
    <filter id="Elipse_180" x="0" y="0" width="68" height="68" filterUnits="userSpaceOnUse">
      <feOffset dy="3" input="SourceAlpha"/>
      <feGaussianBlur stdDeviation="3" result="blur"/>
      <feFlood flood-opacity="0.161"/>
      <feComposite operator="in" in2="blur"/>
      <feComposite in="SourceGraphic"/>
    </filter>
  </defs>
  <g id="Grupo_109086" data-name="Grupo 109086" transform="translate(9 6)">
    <g transform="matrix(1, 0, 0, 1, -9, -6)" filter="url(#Elipse_180)">
      <circle id="Elipse_180-2" data-name="Elipse 180" cx="25" cy="25" r="25" transform="translate(9 6)" fill="#feca2e"/>
    </g>
    <path id="Trazado_207598" data-name="Trazado 207598" d="M-8.98-13.2l1.651-13.819H8.461v4.861H-2.245l-.612,5.367a7.375,7.375,0,0,1,1.753-.69,8,8,0,0,1,2.125-.3,7.926,7.926,0,0,1,6.188,2.384A9.6,9.6,0,0,1,9.37-8.7,9.587,9.587,0,0,1,8.21-4,7.971,7.971,0,0,1,4.954-.761,10.281,10.281,0,0,1,0,.371,11.062,11.062,0,0,1-4.769-.676,8.555,8.555,0,0,1-8.257-3.55,6.983,6.983,0,0,1-9.5-7.675h6.271a3.547,3.547,0,0,0,.946,2.352,3,3,0,0,0,2.245.87q3.154,0,3.154-4.666,0-4.314-3.859-4.314a3.851,3.851,0,0,0-3.266,1.407Z" transform="translate(25 38)" fill="#12263f"/>
  </g>
</svg>
