<svg xmlns="http://www.w3.org/2000/svg" width="80" height="67.761" viewBox="0 0 80 67.761">
  <g id="Layer_37" transform="translate(-15.807 -34.971)">
    <g id="Grupo_172678" data-name="Grupo 172678" transform="translate(15.807 34.971)">
      <g id="Grupo_172631" data-name="Grupo 172631" transform="translate(0)">
        <g id="Grupo_172623" data-name="Grupo 172623" transform="translate(4.812 0.891)">
          <path id="Trazado_207516" data-name="Trazado 207516" d="M95.09,95.226h-61.2a4.6,4.6,0,0,1-4.59-4.59V42.061a4.6,4.6,0,0,1,4.59-4.59h61.2a4.6,4.6,0,0,1,4.59,4.59V90.636A4.6,4.6,0,0,1,95.09,95.226Z" transform="translate(-29.303 -37.471)" fill="#bddcf6"/>
        </g>
        <g id="Grupo_172624" data-name="Grupo 172624" transform="translate(0.891 58.646)">
          <path id="Trazado_207517" data-name="Trazado 207517" d="M94.1,199.463H20.731a2.431,2.431,0,0,0-2.424,2.424,5.817,5.817,0,0,0,5.8,5.8H90.725a5.817,5.817,0,0,0,5.8-5.8A2.431,2.431,0,0,0,94.1,199.463Z" transform="translate(-18.307 -199.463)" fill="#edf4fc"/>
        </g>
        <g id="Grupo_172625" data-name="Grupo 172625" transform="translate(8.377 4.457)">
          <path id="Trazado_207518" data-name="Trazado 207518" d="M101.525,98.1a1.038,1.038,0,0,0,1.025-1.025V48.5a1.038,1.038,0,0,0-1.025-1.025h-61.2A1.038,1.038,0,0,0,39.3,48.5V97.071A1.038,1.038,0,0,0,40.328,98.1h61.2Z" transform="translate(-39.303 -47.471)" fill="#feca2e"/>
        </g>
        <g id="Grupo_172626" data-name="Grupo 172626" transform="translate(26.474 58.646)">
          <path id="Trazado_207519" data-name="Trazado 207519" d="M90.062,199.463a4.293,4.293,0,0,0,4.256,3.846h18.54a4.293,4.293,0,0,0,4.256-3.846Z" transform="translate(-90.062 -199.463)" fill="#c7d7e5"/>
        </g>
        <g id="Grupo_172627" data-name="Grupo 172627" transform="translate(3.92)">
          <path id="Trazado_207520" data-name="Trazado 207520" d="M93.481,94.509h-61.2A5.487,5.487,0,0,1,26.8,89.027V40.452a5.487,5.487,0,0,1,5.481-5.481h61.2a5.487,5.487,0,0,1,5.481,5.481V89.028A5.487,5.487,0,0,1,93.481,94.509Zm-61.2-57.755a3.7,3.7,0,0,0-3.7,3.7V89.028a3.7,3.7,0,0,0,3.7,3.7h61.2a3.7,3.7,0,0,0,3.7-3.7V40.452a3.7,3.7,0,0,0-3.7-3.7h-61.2Z" transform="translate(-26.803 -34.971)"/>
        </g>
        <g id="Grupo_172628" data-name="Grupo 172628" transform="translate(0 57.755)">
          <path id="Trazado_207521" data-name="Trazado 207521" d="M89.117,206.969H22.5a6.7,6.7,0,0,1-6.691-6.691,3.319,3.319,0,0,1,3.315-3.315h73.37a3.319,3.319,0,0,1,3.315,3.315A6.7,6.7,0,0,1,89.117,206.969Zm-69.995-8.223a1.534,1.534,0,0,0-1.532,1.533,4.913,4.913,0,0,0,4.908,4.908H89.117a4.913,4.913,0,0,0,4.908-4.908,1.534,1.534,0,0,0-1.532-1.533Z" transform="translate(-15.807 -196.963)"/>
        </g>
        <g id="Grupo_172629" data-name="Grupo 172629" transform="translate(7.486 3.565)">
          <path id="Trazado_207522" data-name="Trazado 207522" d="M99.916,97.378h-61.2A1.918,1.918,0,0,1,36.8,95.462V46.887a1.918,1.918,0,0,1,1.916-1.916h61.2a1.918,1.918,0,0,1,1.916,1.916V95.462A1.918,1.918,0,0,1,99.916,97.378Zm-61.2-50.624a.149.149,0,0,0-.133.133V95.462a.149.149,0,0,0,.133.133h61.2a.149.149,0,0,0,.133-.133V46.887a.149.149,0,0,0-.133-.133h-61.2Z" transform="translate(-36.803 -44.971)"/>
        </g>
        <g id="Grupo_172630" data-name="Grupo 172630" transform="translate(25.636 58.122)">
          <path id="Trazado_207523" data-name="Trazado 207523" d="M111.345,203.253H92.806a5.178,5.178,0,0,1-5.078-4.2.891.891,0,0,1,1.751-.335,3.393,3.393,0,0,0,3.327,2.755h18.54a3.4,3.4,0,0,0,3.323-2.73.891.891,0,0,1,1.748.347A5.184,5.184,0,0,1,111.345,203.253Z" transform="translate(-87.711 -197.992)"/>
        </g>
      </g>
      <g id="Grupo_172662" data-name="Grupo 172662" transform="translate(16.578 33.581)">
        <g id="Grupo_172633" data-name="Grupo 172633" transform="translate(28.19)">
          <g id="Grupo_172632" data-name="Grupo 172632">
            <path id="Trazado_207524" data-name="Trazado 207524" d="M159.136,130.941H142.264a.891.891,0,0,1,0-1.783h16.872a.891.891,0,0,1,0,1.783Z" transform="translate(-141.373 -129.158)"/>
          </g>
        </g>
        <g id="Grupo_172635" data-name="Grupo 172635" transform="translate(7.396)">
          <g id="Grupo_172634" data-name="Grupo 172634">
            <path id="Trazado_207525" data-name="Trazado 207525" d="M99.656,130.941H83.94a.891.891,0,0,1,0-1.783H99.656a.891.891,0,0,1,0,1.783Z" transform="translate(-83.049 -129.158)"/>
          </g>
        </g>
        <g id="Grupo_172637" data-name="Grupo 172637">
          <g id="Grupo_172636" data-name="Grupo 172636">
            <path id="Trazado_207526" data-name="Trazado 207526" d="M66.622,130.941H63.2a.891.891,0,0,1,0-1.783h3.427a.891.891,0,1,1,0,1.783Z" transform="translate(-62.304 -129.158)"/>
          </g>
        </g>
        <g id="Grupo_172639" data-name="Grupo 172639" transform="translate(39.183 4.695)">
          <g id="Grupo_172638" data-name="Grupo 172638" transform="translate(0)">
            <path id="Trazado_207527" data-name="Trazado 207527" d="M178.975,144.109H173.1a.891.891,0,0,1,0-1.783h5.88a.891.891,0,0,1,0,1.783Z" transform="translate(-172.204 -142.326)"/>
          </g>
        </g>
        <g id="Grupo_172641" data-name="Grupo 172641" transform="translate(19.444 4.695)">
          <g id="Grupo_172640" data-name="Grupo 172640">
            <path id="Trazado_207528" data-name="Trazado 207528" d="M132.326,144.109H117.732a.891.891,0,1,1,0-1.783h14.594a.891.891,0,0,1,0,1.783Z" transform="translate(-116.841 -142.326)"/>
          </g>
        </g>
        <g id="Grupo_172643" data-name="Grupo 172643" transform="translate(7.396 4.695)">
          <g id="Grupo_172642" data-name="Grupo 172642">
            <path id="Trazado_207529" data-name="Trazado 207529" d="M91.043,144.109h-7.1a.891.891,0,1,1,0-1.783h7.1a.891.891,0,0,1,0,1.783Z" transform="translate(-83.049 -142.326)"/>
          </g>
        </g>
        <g id="Grupo_172645" data-name="Grupo 172645" transform="translate(0 4.695)">
          <g id="Grupo_172644" data-name="Grupo 172644">
            <path id="Trazado_207530" data-name="Trazado 207530" d="M66.622,144.109H63.2a.891.891,0,1,1,0-1.783h3.427a.891.891,0,0,1,0,1.783Z" transform="translate(-62.304 -142.326)"/>
          </g>
        </g>
        <g id="Grupo_172647" data-name="Grupo 172647" transform="translate(36.635 9.39)">
          <g id="Grupo_172646" data-name="Grupo 172646">
            <path id="Trazado_207531" data-name="Trazado 207531" d="M174.377,157.278h-8.428a.891.891,0,0,1,0-1.783h8.428a.891.891,0,1,1,0,1.783Z" transform="translate(-165.058 -155.495)"/>
          </g>
        </g>
        <g id="Grupo_172649" data-name="Grupo 172649" transform="translate(22.572 9.39)">
          <g id="Grupo_172648" data-name="Grupo 172648">
            <path id="Trazado_207532" data-name="Trazado 207532" d="M135.632,157.278h-9.126a.891.891,0,0,1,0-1.783h9.126a.891.891,0,1,1,0,1.783Z" transform="translate(-125.615 -155.495)"/>
          </g>
        </g>
        <g id="Grupo_172651" data-name="Grupo 172651" transform="translate(7.396 9.39)">
          <g id="Grupo_172650" data-name="Grupo 172650">
            <path id="Trazado_207533" data-name="Trazado 207533" d="M94.224,157.278H83.94a.891.891,0,0,1,0-1.783H94.224a.891.891,0,1,1,0,1.783Z" transform="translate(-83.049 -155.495)"/>
          </g>
        </g>
        <g id="Grupo_172653" data-name="Grupo 172653" transform="translate(0 9.39)">
          <g id="Grupo_172652" data-name="Grupo 172652">
            <path id="Trazado_207534" data-name="Trazado 207534" d="M66.622,157.278H63.2a.891.891,0,0,1,0-1.783h3.427a.891.891,0,0,1,0,1.783Z" transform="translate(-62.304 -155.495)"/>
          </g>
        </g>
        <g id="Grupo_172655" data-name="Grupo 172655" transform="translate(42.171 14.085)">
          <g id="Grupo_172654" data-name="Grupo 172654">
            <path id="Trazado_207535" data-name="Trazado 207535" d="M184.369,170.446h-2.891a.891.891,0,1,1,0-1.783h2.891a.891.891,0,0,1,0,1.783Z" transform="translate(-180.587 -168.663)"/>
          </g>
        </g>
        <g id="Grupo_172657" data-name="Grupo 172657" transform="translate(30.29 14.085)">
          <g id="Grupo_172656" data-name="Grupo 172656">
            <path id="Trazado_207536" data-name="Trazado 207536" d="M154.5,170.446h-6.346a.891.891,0,0,1,0-1.783H154.5a.891.891,0,0,1,0,1.783Z" transform="translate(-147.261 -168.663)"/>
          </g>
        </g>
        <g id="Grupo_172659" data-name="Grupo 172659" transform="translate(7.396 14.085)">
          <g id="Grupo_172658" data-name="Grupo 172658">
            <path id="Trazado_207537" data-name="Trazado 207537" d="M101.762,170.446H83.94a.891.891,0,1,1,0-1.783h17.822a.891.891,0,1,1,0,1.783Z" transform="translate(-83.049 -168.663)"/>
          </g>
        </g>
        <g id="Grupo_172661" data-name="Grupo 172661" transform="translate(0 14.085)">
          <g id="Grupo_172660" data-name="Grupo 172660">
            <path id="Trazado_207538" data-name="Trazado 207538" d="M66.622,170.446H63.2a.891.891,0,1,1,0-1.783h3.427a.891.891,0,0,1,0,1.783Z" transform="translate(-62.304 -168.663)"/>
          </g>
        </g>
      </g>
      <g id="Grupo_172677" data-name="Grupo 172677" transform="translate(23.352 9.125)">
        <g id="Grupo_172671" data-name="Grupo 172671" transform="translate(0 1.826)">
          <g id="Grupo_172664" data-name="Grupo 172664" transform="translate(0.891 0.89)">
            <g id="Grupo_172663" data-name="Grupo 172663">
              <path id="Trazado_207539" data-name="Trazado 207539" d="M91.41,83.4a1.778,1.778,0,0,1-1.261-.522L84.325,77.05a1.782,1.782,0,0,1,0-2.521L90.149,68.7a1.783,1.783,0,0,1,2.521,2.521l-4.563,4.563,4.563,4.563A1.782,1.782,0,0,1,91.41,83.4Z" transform="translate(-83.803 -68.183)" fill="#4dd0e1"/>
            </g>
          </g>
          <g id="Grupo_172666" data-name="Grupo 172666" transform="translate(23.017 0.89)">
            <g id="Grupo_172665" data-name="Grupo 172665">
              <path id="Trazado_207540" data-name="Trazado 207540" d="M147.644,83.4a1.782,1.782,0,0,1-1.261-3.043l4.563-4.563-4.563-4.563A1.783,1.783,0,0,1,148.9,68.7l5.824,5.824a1.783,1.783,0,0,1,0,2.521L148.9,82.873A1.778,1.778,0,0,1,147.644,83.4Z" transform="translate(-145.861 -68.183)" fill="#4dd0e1"/>
            </g>
          </g>
          <g id="Grupo_172668" data-name="Grupo 172668">
            <g id="Grupo_172667" data-name="Grupo 172667">
              <path id="Trazado_207541" data-name="Trazado 207541" d="M89.8,82.68a2.656,2.656,0,0,1-1.89-.783l-5.824-5.824a2.674,2.674,0,0,1,0-3.782l5.824-5.823a2.674,2.674,0,0,1,3.782,3.782L87.76,74.183l3.933,3.933A2.674,2.674,0,0,1,89.8,82.68Zm0-15.212a.89.89,0,0,0-.631.261l-5.824,5.824a.892.892,0,0,0,0,1.261l5.824,5.824a.914.914,0,0,0,1.261,0,.893.893,0,0,0,0-1.261l-4.563-4.564a.892.892,0,0,1,0-1.261l4.563-4.563a.891.891,0,0,0-.63-1.521Z" transform="translate(-81.304 -65.687)"/>
            </g>
          </g>
          <g id="Grupo_172670" data-name="Grupo 172670" transform="translate(22.127)">
            <g id="Grupo_172669" data-name="Grupo 172669">
              <path id="Trazado_207542" data-name="Trazado 207542" d="M146.038,82.68a2.674,2.674,0,0,1-1.891-4.565l3.933-3.933-3.933-3.933a2.674,2.674,0,1,1,3.781-3.781l5.824,5.824a2.674,2.674,0,0,1,0,3.781L147.929,81.9A2.657,2.657,0,0,1,146.038,82.68Zm0-15.212a.891.891,0,0,0-.631,1.521l4.563,4.563a.892.892,0,0,1,0,1.261l-4.563,4.563a.892.892,0,0,0,0,1.261.914.914,0,0,0,1.261,0l5.824-5.824a.892.892,0,0,0,0-1.261l-5.824-5.824A.889.889,0,0,0,146.038,67.468Z" transform="translate(-143.365 -65.687)"/>
            </g>
          </g>
        </g>
        <g id="Grupo_172676" data-name="Grupo 172676" transform="translate(11.817)">
          <g id="Grupo_172673" data-name="Grupo 172673" transform="translate(0.891 0.891)">
            <g id="Grupo_172672" data-name="Grupo 172672">
              <path id="Trazado_207543" data-name="Trazado 207543" d="M118.733,81.927a1.784,1.784,0,0,1-1.717-2.267l4.314-15.3a1.783,1.783,0,1,1,3.432.968l-4.314,15.3A1.784,1.784,0,0,1,118.733,81.927Z" transform="translate(-116.949 -63.065)" fill="#4dd0e1"/>
            </g>
          </g>
          <g id="Grupo_172675" data-name="Grupo 172675">
            <g id="Grupo_172674" data-name="Grupo 172674">
              <path id="Trazado_207544" data-name="Trazado 207544" d="M117.124,81.209a2.676,2.676,0,0,1-2.575-3.4l4.314-15.3a2.674,2.674,0,1,1,5.147,1.452L119.7,79.26A2.683,2.683,0,0,1,117.124,81.209Zm4.313-18.862a.894.894,0,0,0-.859.65l-4.314,15.3a.892.892,0,0,0,.616,1.1.9.9,0,0,0,1.1-.616l4.314-15.3a.892.892,0,0,0-.857-1.133Z" transform="translate(-114.449 -60.565)"/>
            </g>
          </g>
        </g>
      </g>
    </g>
  </g>
</svg>
