<svg xmlns="http://www.w3.org/2000/svg" width="80" height="104.697" viewBox="0 0 80 104.697">
  <g id="Layer_65" transform="translate(-41.235 -25.638)">
    <g id="Grupo_148908" data-name="Grupo 148908" transform="translate(41.235 25.638)">
      <g id="Grupo_148886" data-name="Grupo 148886">
        <g id="Grupo_148850" data-name="Grupo 148850" transform="translate(1.153 1.152)">
          <path id="Trazado_207467" data-name="Trazado 207467" d="M121.431,127.553V30.414a2.284,2.284,0,0,0-2.277-2.277H46.013a2.284,2.284,0,0,0-2.277,2.277v97.138a2.977,2.977,0,0,0,2.977,2.977h71.742A2.976,2.976,0,0,0,121.431,127.553Z" transform="translate(-43.736 -28.137)" fill="#feca2e"/>
        </g>
        <g id="Grupo_148851" data-name="Grupo 148851" transform="translate(1.153 1.152)">
          <path id="Trazado_207468" data-name="Trazado 207468" d="M121.431,36.755V30.414a2.284,2.284,0,0,0-2.277-2.277H46.013a2.284,2.284,0,0,0-2.277,2.277v6.34h77.695Z" transform="translate(-43.736 -28.137)" fill="#bddcf6"/>
        </g>
        <g id="Grupo_148852" data-name="Grupo 148852" transform="translate(1.153 1.152)">
          <path id="Trazado_207469" data-name="Trazado 207469" d="M53.449,28.137H46.013a2.284,2.284,0,0,0-2.277,2.277v6.34h9.713V28.137Z" transform="translate(-43.736 -28.137)" fill="#4dd0e1"/>
        </g>
        <g id="Grupo_148853" data-name="Grupo 148853" transform="translate(66.821 4.178)">
          <path id="Trazado_207470" data-name="Trazado 207470" d="M192.705,37.006h-5.377a1.153,1.153,0,1,1,0-2.305h5.377a1.153,1.153,0,1,1,0,2.305Z" transform="translate(-186.176 -34.701)"/>
        </g>
        <g id="Grupo_148854" data-name="Grupo 148854" transform="translate(14.831 4.178)">
          <path id="Trazado_207471" data-name="Trazado 207471" d="M121.488,37.006H74.557a1.153,1.153,0,1,1,0-2.305h46.932a1.153,1.153,0,0,1,0,2.305Z" transform="translate(-73.404 -34.701)"/>
        </g>
        <g id="Grupo_148855" data-name="Grupo 148855" transform="translate(0.38 8.618)">
          <path id="Trazado_207472" data-name="Trazado 207472" d="M120.077,46.636H43.213a1.153,1.153,0,1,1,0-2.305h76.865a1.153,1.153,0,1,1,0,2.305Z" transform="translate(-42.06 -44.331)"/>
        </g>
        <g id="Grupo_148856" data-name="Grupo 148856" transform="translate(9.714 0.43)">
          <path id="Trazado_207473" data-name="Trazado 207473" d="M63.458,36.694a1.152,1.152,0,0,1-1.153-1.153V27.723a1.153,1.153,0,0,1,2.305,0v7.819A1.152,1.152,0,0,1,63.458,36.694Z" transform="translate(-62.305 -26.57)"/>
        </g>
        <g id="Grupo_148857" data-name="Grupo 148857">
          <path id="Trazado_207474" data-name="Trazado 207474" d="M117.107,130.335H45.364a4.135,4.135,0,0,1-4.129-4.129V29.068a3.433,3.433,0,0,1,3.43-3.43h73.14a3.433,3.433,0,0,1,3.43,3.43v97.138A4.133,4.133,0,0,1,117.107,130.335ZM44.665,27.943a1.126,1.126,0,0,0-1.125,1.124v97.138a1.826,1.826,0,0,0,1.824,1.824h71.742a1.826,1.826,0,0,0,1.824-1.824V29.068a1.126,1.126,0,0,0-1.125-1.124Z" transform="translate(-41.235 -25.638)"/>
        </g>
        <g id="Grupo_148885" data-name="Grupo 148885" transform="translate(15.028 49.202)">
          <g id="Grupo_148858" data-name="Grupo 148858" transform="translate(13.31)">
            <path id="Trazado_207475" data-name="Trazado 207475" d="M116.068,134.667H103.857a1.153,1.153,0,1,1,0-2.305h12.211a1.153,1.153,0,1,1,0,2.305Z" transform="translate(-102.704 -132.362)"/>
          </g>
          <g id="Grupo_148859" data-name="Grupo 148859">
            <path id="Trazado_207476" data-name="Trazado 207476" d="M83.162,134.667H74.986a1.153,1.153,0,0,1,0-2.305h8.176a1.153,1.153,0,1,1,0,2.305Z" transform="translate(-73.833 -132.362)"/>
          </g>
          <g id="Grupo_148860" data-name="Grupo 148860" transform="translate(45.278 5.526)">
            <path id="Trazado_207477" data-name="Trazado 207477" d="M176.474,146.653H173.2a1.153,1.153,0,1,1,0-2.305h3.275a1.153,1.153,0,1,1,0,2.305Z" transform="translate(-172.046 -144.348)"/>
          </g>
          <g id="Grupo_148861" data-name="Grupo 148861" transform="translate(26.921 5.526)">
            <path id="Trazado_207478" data-name="Trazado 207478" d="M146.292,146.653H133.381a1.153,1.153,0,1,1,0-2.305h12.912a1.153,1.153,0,1,1,0,2.305Z" transform="translate(-132.228 -144.348)"/>
          </g>
          <g id="Grupo_148862" data-name="Grupo 148862" transform="translate(18.288 5.526)">
            <path id="Trazado_207479" data-name="Trazado 207479" d="M117.726,146.653h-3.072a1.153,1.153,0,0,1,0-2.305h3.072a1.153,1.153,0,1,1,0,2.305Z" transform="translate(-113.501 -144.348)"/>
          </g>
          <g id="Grupo_148863" data-name="Grupo 148863" transform="translate(0 5.526)">
            <path id="Trazado_207480" data-name="Trazado 207480" d="M87.518,146.653H74.986a1.153,1.153,0,0,1,0-2.305H87.518a1.153,1.153,0,0,1,0,2.305Z" transform="translate(-73.833 -144.348)"/>
          </g>
          <g id="Grupo_148864" data-name="Grupo 148864" transform="translate(34.882 11.052)">
            <path id="Trazado_207481" data-name="Trazado 207481" d="M164.319,158.639H150.648a1.153,1.153,0,1,1,0-2.305h13.672a1.153,1.153,0,0,1,0,2.305Z" transform="translate(-149.495 -156.334)"/>
          </g>
          <g id="Grupo_148865" data-name="Grupo 148865" transform="translate(10.043 11.052)">
            <path id="Trazado_207482" data-name="Trazado 207482" d="M115.9,158.639H96.771a1.153,1.153,0,1,1,0-2.305H115.9a1.153,1.153,0,0,1,0,2.305Z" transform="translate(-95.618 -156.334)"/>
          </g>
          <g id="Grupo_148866" data-name="Grupo 148866" transform="translate(0 11.052)">
            <path id="Trazado_207483" data-name="Trazado 207483" d="M79.385,158.639h-4.4a1.153,1.153,0,0,1,0-2.305h4.4a1.153,1.153,0,1,1,0,2.305Z" transform="translate(-73.833 -156.334)"/>
          </g>
          <g id="Grupo_148867" data-name="Grupo 148867" transform="translate(13.31 16.489)">
            <path id="Trazado_207484" data-name="Trazado 207484" d="M116.068,170.433H103.857a1.153,1.153,0,1,1,0-2.305h12.211a1.153,1.153,0,1,1,0,2.305Z" transform="translate(-102.704 -168.128)"/>
          </g>
          <g id="Grupo_148868" data-name="Grupo 148868" transform="translate(0 16.489)">
            <path id="Trazado_207485" data-name="Trazado 207485" d="M83.162,170.433H74.986a1.153,1.153,0,0,1,0-2.305h8.176a1.153,1.153,0,1,1,0,2.305Z" transform="translate(-73.833 -168.128)"/>
          </g>
          <g id="Grupo_148869" data-name="Grupo 148869" transform="translate(45.278 22.015)">
            <path id="Trazado_207486" data-name="Trazado 207486" d="M176.474,182.419H173.2a1.153,1.153,0,1,1,0-2.305h3.275a1.153,1.153,0,1,1,0,2.305Z" transform="translate(-172.046 -180.114)"/>
          </g>
          <g id="Grupo_148870" data-name="Grupo 148870" transform="translate(26.921 22.015)">
            <path id="Trazado_207487" data-name="Trazado 207487" d="M146.292,182.419H133.381a1.153,1.153,0,1,1,0-2.305h12.912a1.153,1.153,0,1,1,0,2.305Z" transform="translate(-132.228 -180.114)"/>
          </g>
          <g id="Grupo_148871" data-name="Grupo 148871" transform="translate(18.288 22.015)">
            <path id="Trazado_207488" data-name="Trazado 207488" d="M117.726,182.419h-3.072a1.153,1.153,0,0,1,0-2.305h3.072a1.153,1.153,0,1,1,0,2.305Z" transform="translate(-113.501 -180.114)"/>
          </g>
          <g id="Grupo_148872" data-name="Grupo 148872" transform="translate(0 22.015)">
            <path id="Trazado_207489" data-name="Trazado 207489" d="M87.518,182.419H74.986a1.153,1.153,0,0,1,0-2.305H87.518a1.153,1.153,0,0,1,0,2.305Z" transform="translate(-73.833 -180.114)"/>
          </g>
          <g id="Grupo_148873" data-name="Grupo 148873" transform="translate(34.882 27.54)">
            <path id="Trazado_207490" data-name="Trazado 207490" d="M164.319,194.405H150.648a1.153,1.153,0,1,1,0-2.305h13.672a1.153,1.153,0,0,1,0,2.305Z" transform="translate(-149.495 -192.1)"/>
          </g>
          <g id="Grupo_148874" data-name="Grupo 148874" transform="translate(10.043 27.54)">
            <path id="Trazado_207491" data-name="Trazado 207491" d="M115.9,194.405H96.771a1.153,1.153,0,1,1,0-2.305H115.9a1.153,1.153,0,0,1,0,2.305Z" transform="translate(-95.618 -192.1)"/>
          </g>
          <g id="Grupo_148875" data-name="Grupo 148875" transform="translate(0 27.54)">
            <path id="Trazado_207492" data-name="Trazado 207492" d="M79.385,194.405h-4.4a1.153,1.153,0,0,1,0-2.305h4.4a1.153,1.153,0,0,1,0,2.305Z" transform="translate(-73.833 -192.1)"/>
          </g>
          <g id="Grupo_148876" data-name="Grupo 148876" transform="translate(13.31 32.978)">
            <path id="Trazado_207493" data-name="Trazado 207493" d="M116.068,206.2H103.857a1.153,1.153,0,1,1,0-2.305h12.211a1.153,1.153,0,1,1,0,2.305Z" transform="translate(-102.704 -203.894)"/>
          </g>
          <g id="Grupo_148877" data-name="Grupo 148877" transform="translate(0 32.978)">
            <path id="Trazado_207494" data-name="Trazado 207494" d="M83.162,206.2H74.986a1.153,1.153,0,0,1,0-2.305h8.176a1.153,1.153,0,1,1,0,2.305Z" transform="translate(-73.833 -203.894)"/>
          </g>
          <g id="Grupo_148878" data-name="Grupo 148878" transform="translate(45.278 38.504)">
            <path id="Trazado_207495" data-name="Trazado 207495" d="M176.474,218.185H173.2a1.153,1.153,0,1,1,0-2.305h3.275a1.153,1.153,0,1,1,0,2.305Z" transform="translate(-172.046 -215.88)"/>
          </g>
          <g id="Grupo_148879" data-name="Grupo 148879" transform="translate(26.921 38.504)">
            <path id="Trazado_207496" data-name="Trazado 207496" d="M146.292,218.185H133.381a1.153,1.153,0,1,1,0-2.305h12.912a1.153,1.153,0,1,1,0,2.305Z" transform="translate(-132.228 -215.88)"/>
          </g>
          <g id="Grupo_148880" data-name="Grupo 148880" transform="translate(18.288 38.504)">
            <path id="Trazado_207497" data-name="Trazado 207497" d="M117.726,218.185h-3.072a1.153,1.153,0,0,1,0-2.305h3.072a1.153,1.153,0,1,1,0,2.305Z" transform="translate(-113.501 -215.88)"/>
          </g>
          <g id="Grupo_148881" data-name="Grupo 148881" transform="translate(0 38.504)">
            <path id="Trazado_207498" data-name="Trazado 207498" d="M87.518,218.185H74.986a1.153,1.153,0,0,1,0-2.305H87.518a1.153,1.153,0,0,1,0,2.305Z" transform="translate(-73.833 -215.88)"/>
          </g>
          <g id="Grupo_148882" data-name="Grupo 148882" transform="translate(34.882 44.029)">
            <path id="Trazado_207499" data-name="Trazado 207499" d="M164.319,230.171H150.648a1.153,1.153,0,1,1,0-2.305h13.672a1.153,1.153,0,0,1,0,2.305Z" transform="translate(-149.495 -227.866)"/>
          </g>
          <g id="Grupo_148883" data-name="Grupo 148883" transform="translate(10.043 44.029)">
            <path id="Trazado_207500" data-name="Trazado 207500" d="M115.9,230.171H96.771a1.153,1.153,0,1,1,0-2.305H115.9a1.153,1.153,0,0,1,0,2.305Z" transform="translate(-95.618 -227.866)"/>
          </g>
          <g id="Grupo_148884" data-name="Grupo 148884" transform="translate(0 44.029)">
            <path id="Trazado_207501" data-name="Trazado 207501" d="M79.385,230.171h-4.4a1.153,1.153,0,0,1,0-2.305h4.4a1.153,1.153,0,0,1,0,2.305Z" transform="translate(-73.833 -227.866)"/>
          </g>
        </g>
      </g>
      <g id="Grupo_148907" data-name="Grupo 148907" transform="translate(18.473 16.715)">
        <g id="Grupo_148899" data-name="Grupo 148899" transform="translate(0 2.361)">
          <g id="Grupo_148889" data-name="Grupo 148889" transform="translate(1.152 1.151)">
            <g id="Grupo_148888" data-name="Grupo 148888">
              <g id="Grupo_148887" data-name="Grupo 148887">
                <path id="Trazado_207502" data-name="Trazado 207502" d="M93.639,89.184a2.3,2.3,0,0,1-1.63-.675l-7.53-7.531a2.3,2.3,0,0,1,0-3.26l7.53-7.53a2.305,2.305,0,0,1,3.26,3.26l-5.9,5.9,5.9,5.9a2.305,2.305,0,0,1-1.63,3.935Z" transform="translate(-83.803 -69.513)" fill="#bddcf6"/>
              </g>
            </g>
          </g>
          <g id="Grupo_148892" data-name="Grupo 148892" transform="translate(29.762 1.151)">
            <g id="Grupo_148891" data-name="Grupo 148891">
              <g id="Grupo_148890" data-name="Grupo 148890">
                <path id="Trazado_207503" data-name="Trazado 207503" d="M148.167,89.184a2.3,2.3,0,0,1-1.63-3.935l5.9-5.9-5.9-5.9a2.305,2.305,0,0,1,3.26-3.26l7.53,7.53a2.306,2.306,0,0,1,0,3.26l-7.53,7.53A2.3,2.3,0,0,1,148.167,89.184Z" transform="translate(-145.861 -69.514)" fill="#bddcf6"/>
              </g>
            </g>
          </g>
          <g id="Grupo_148895" data-name="Grupo 148895">
            <g id="Grupo_148894" data-name="Grupo 148894">
              <g id="Grupo_148893" data-name="Grupo 148893">
                <path id="Trazado_207504" data-name="Trazado 207504" d="M92.292,88.991a3.435,3.435,0,0,1-2.444-1.012l-7.531-7.531a3.458,3.458,0,0,1,0-4.89l7.53-7.53a3.458,3.458,0,0,1,4.89,4.89L89.652,78l5.086,5.086a3.458,3.458,0,0,1-2.445,5.9Zm0-19.67a1.151,1.151,0,0,0-.816.337l-7.53,7.53a1.153,1.153,0,0,0,0,1.63l7.53,7.531a1.182,1.182,0,0,0,1.631,0,1.154,1.154,0,0,0,0-1.63l-5.9-5.9a1.153,1.153,0,0,1,0-1.63l5.9-5.9a1.152,1.152,0,0,0-.815-1.967Z" transform="translate(-81.304 -67.017)"/>
              </g>
            </g>
          </g>
          <g id="Grupo_148898" data-name="Grupo 148898" transform="translate(28.612 0)">
            <g id="Grupo_148897" data-name="Grupo 148897">
              <g id="Grupo_148896" data-name="Grupo 148896">
                <path id="Trazado_207505" data-name="Trazado 207505" d="M146.821,88.991a3.457,3.457,0,0,1-2.445-5.9L149.462,78l-5.086-5.086a3.457,3.457,0,0,1,4.89-4.89l7.531,7.53a3.458,3.458,0,0,1,0,4.89l-7.531,7.531A3.436,3.436,0,0,1,146.821,88.991Zm0-19.67a1.152,1.152,0,0,0-.816,1.967l5.9,5.9a1.153,1.153,0,0,1,0,1.63l-5.9,5.9a1.154,1.154,0,0,0,0,1.63,1.182,1.182,0,0,0,1.631,0l7.53-7.53a1.153,1.153,0,0,0,0-1.63l-7.53-7.531A1.149,1.149,0,0,0,146.821,69.321Z" transform="translate(-143.365 -67.018)"/>
              </g>
            </g>
          </g>
        </g>
        <g id="Grupo_148906" data-name="Grupo 148906" transform="translate(15.28)">
          <g id="Grupo_148902" data-name="Grupo 148902" transform="translate(1.153 1.153)">
            <g id="Grupo_148901" data-name="Grupo 148901">
              <g id="Grupo_148900" data-name="Grupo 148900">
                <path id="Trazado_207506" data-name="Trazado 207506" d="M119.256,88.785a2.307,2.307,0,0,1-2.22-2.932l5.578-19.778a2.305,2.305,0,1,1,4.437,1.252L121.473,87.1A2.307,2.307,0,0,1,119.256,88.785Z" transform="translate(-116.949 -64.395)" fill="#bddcf6"/>
              </g>
            </g>
          </g>
          <g id="Grupo_148905" data-name="Grupo 148905">
            <g id="Grupo_148904" data-name="Grupo 148904">
              <g id="Grupo_148903" data-name="Grupo 148903">
                <path id="Trazado_207507" data-name="Trazado 207507" d="M117.908,88.59a3.46,3.46,0,0,1-3.329-4.4l5.578-19.778a3.458,3.458,0,1,1,6.656,1.877L121.235,86.07A3.469,3.469,0,0,1,117.908,88.59ZM123.486,64.2a1.155,1.155,0,0,0-1.11.84L116.8,84.818a1.154,1.154,0,0,0,.8,1.422,1.169,1.169,0,0,0,1.422-.8l5.578-19.778a1.153,1.153,0,0,0-1.109-1.466Z" transform="translate(-114.449 -61.895)"/>
              </g>
            </g>
          </g>
        </g>
      </g>
    </g>
  </g>
</svg>
