<svg xmlns="http://www.w3.org/2000/svg" xmlns:xlink="http://www.w3.org/1999/xlink" width="68" height="68" viewBox="0 0 68 68">
  <defs>
    <filter id="Elipse_180" x="0" y="0" width="68" height="68" filterUnits="userSpaceOnUse">
      <feOffset dy="3" input="SourceAlpha"/>
      <feGaussianBlur stdDeviation="3" result="blur"/>
      <feFlood flood-opacity="0.161"/>
      <feComposite operator="in" in2="blur"/>
      <feComposite in="SourceGraphic"/>
    </filter>
  </defs>
  <g id="Grupo_109086" data-name="Grupo 109086" transform="translate(9 6)">
    <g transform="matrix(1, 0, 0, 1, -9, -6)" filter="url(#Elipse_180)">
      <circle id="Elipse_180-2" data-name="Elipse 180" cx="25" cy="25" r="25" transform="translate(9 6)" fill="#feca2e"/>
    </g>
    <path id="Trazado_207595" data-name="Trazado 207595" d="M9.5,0H-9.352V-4.082l8.684-9.129q3.21-3.655,3.21-5.808a4.04,4.04,0,0,0-.761-2.653,2.716,2.716,0,0,0-2.208-.909,2.75,2.75,0,0,0-2.319,1.215,5,5,0,0,0-.891,3.034H-9.908a8.872,8.872,0,0,1,1.243-4.592,8.718,8.718,0,0,1,3.451-3.293A10.252,10.252,0,0,1-.278-27.405q4.379,0,6.745,2.022a7.22,7.22,0,0,1,2.366,5.808,8.433,8.433,0,0,1-.594,3.108,13.63,13.63,0,0,1-1.846,3.173A46.506,46.506,0,0,1,2.356-8.851L-1.132-4.824H9.5Z" transform="translate(25 38)" fill="#12263f"/>
  </g>
</svg>
