<svg xmlns="http://www.w3.org/2000/svg" width="80" height="99.364" viewBox="0 0 80 99.364">
  <g id="Layer_47" transform="translate(-40.188 -22.148)">
    <g id="Grupo_148841" data-name="Grupo 148841" transform="translate(40.187 22.148)">
      <g id="Grupo_148803" data-name="Grupo 148803" transform="translate(19.38 51.435)">
        <path id="Trazado_207430" data-name="Trazado 207430" d="M111.322,151.591a31.5,31.5,0,0,1-3.154-1.441,5.081,5.081,0,0,1-2.834-4.557V143.2a14.589,14.589,0,0,1-13.552,0v2.393a5.08,5.08,0,0,1-2.834,4.557c-1.068.526-2.077,1-3.149,1.441Z" transform="translate(-85.798 -143.199)" fill="#f9d0b4"/>
      </g>
      <g id="Grupo_148804" data-name="Grupo 148804" transform="translate(17.431 19.97)">
        <path id="Trazado_207431" data-name="Trazado 207431" d="M108.512,75.085a1.18,1.18,0,0,1,.284-1.511l1.326-1.061a7.59,7.59,0,0,0-1.595-2.532,2.7,2.7,0,0,0-3.622-.241,14.772,14.772,0,0,1-17.971-.01,2.693,2.693,0,0,0-3.616.246l-.005.005a7.605,7.605,0,0,0-2.1,5.248V87.573a14.708,14.708,0,0,0,29.417,0V78.751Z" transform="translate(-81.212 -69.148)" fill="#f9d0b4"/>
      </g>
      <g id="Grupo_148805" data-name="Grupo 148805" transform="translate(46.811 29.574)">
        <path id="Trazado_207432" data-name="Trazado 207432" d="M155.534,92.01l-3.128,1.22a1.179,1.179,0,0,1-1.451-.509l-.561-.972v8.822c0,.332-.015.66-.037.986a6.1,6.1,0,0,0,7.122-6.055,6.11,6.11,0,0,0-1.093-3.492,1.176,1.176,0,0,0-.852,0Z" transform="translate(-150.357 -91.749)" fill="#f9d0b4"/>
      </g>
      <g id="Grupo_148806" data-name="Grupo 148806" transform="translate(10.347 27.185)">
        <path id="Trazado_207433" data-name="Trazado 207433" d="M71.623,97.338V86.2a6.143,6.143,0,1,0,.037,12.121h0c-.023-.325-.037-.653-.037-.985Z" transform="translate(-64.539 -86.128)" fill="#f9d0b4"/>
      </g>
      <g id="Grupo_148807" data-name="Grupo 148807" transform="translate(13.397 5.073)">
        <path id="Trazado_207434" data-name="Trazado 207434" d="M104.661,52.349l1.293-1.035a1.17,1.17,0,0,0,.43-1.082,13.862,13.862,0,0,1,0-4.09,1.168,1.168,0,0,0-.43-1.082l-2.619-2.1a1.18,1.18,0,0,1-.284-1.511l.73-1.264c-1.891-5.914-10.152-6.954-18.387-5.532A16.479,16.479,0,0,0,71.716,50.892v6.149a6.1,6.1,0,0,1,3.091-.841,6.167,6.167,0,0,1,.944.075V55.066a7.6,7.6,0,0,1,2.1-5.248l.005-.005a2.694,2.694,0,0,1,3.616-.246,14.772,14.772,0,0,0,17.971.01,2.7,2.7,0,0,1,3.622.241A7.6,7.6,0,0,1,104.661,52.349Z" transform="translate(-71.716 -34.088)" fill="#727997"/>
      </g>
      <g id="Grupo_148808" data-name="Grupo 148808" transform="translate(44.574 1.063)">
        <path id="Trazado_207435" data-name="Trazado 207435" d="M176.113,42.758a13.868,13.868,0,0,0-.152-2.045,1.168,1.168,0,0,1,.43-1.082l2.619-2.1a1.18,1.18,0,0,0,.284-1.511l-2.678-4.638a1.18,1.18,0,0,0-1.451-.509l-3.128,1.22a1.164,1.164,0,0,1-1.147-.164,13.82,13.82,0,0,0-3.553-2.054,1.162,1.162,0,0,1-.714-.911l-.507-3.316a1.18,1.18,0,0,0-1.166-1h-5.355a1.18,1.18,0,0,0-1.166,1l-.507,3.316a1.162,1.162,0,0,1-.714.911,13.813,13.813,0,0,0-3.553,2.054,1.164,1.164,0,0,1-1.147.164l-3.128-1.22a1.179,1.179,0,0,0-1.451.509l-2.678,4.638a1.18,1.18,0,0,0,.284,1.511l2.619,2.1a1.168,1.168,0,0,1,.43,1.082,13.861,13.861,0,0,0,0,4.09,1.168,1.168,0,0,1-.43,1.082l-2.619,2.1a1.18,1.18,0,0,0-.284,1.511l2.678,4.638a1.18,1.18,0,0,0,1.451.509l3.128-1.22a1.164,1.164,0,0,1,1.147.164,13.82,13.82,0,0,0,3.553,2.054,1.162,1.162,0,0,1,.714.911l.507,3.316a1.18,1.18,0,0,0,1.166,1h5.355a1.18,1.18,0,0,0,1.166-1l.507-3.316a1.162,1.162,0,0,1,.714-.911,13.813,13.813,0,0,0,3.553-2.054,1.164,1.164,0,0,1,1.147-.164l3.128,1.22a1.179,1.179,0,0,0,1.451-.509l2.678-4.638a1.18,1.18,0,0,0-.284-1.511l-2.619-2.1a1.168,1.168,0,0,1-.43-1.082A13.872,13.872,0,0,0,176.113,42.758Z" transform="translate(-145.093 -24.649)" fill="#feca2e"/>
      </g>
      <g id="Grupo_148809" data-name="Grupo 148809" transform="translate(1.062 62.55)">
        <path id="Trazado_207436" data-name="Trazado 207436" d="M48.988,201.436a1.54,1.54,0,0,1,1.536-1.536h3.856a2.916,2.916,0,0,1-2.908-2.908v-27.45c0-.062.006-.123.009-.185l-2.787.7a5.8,5.8,0,0,0-4.379,5.306L42.69,203.407a1.614,1.614,0,0,0,1.611,1.7h8.362a3.685,3.685,0,0,1-3.674-3.675Z" transform="translate(-42.687 -169.358)" fill="#4dd0e1"/>
      </g>
      <g id="Grupo_148810" data-name="Grupo 148810" transform="translate(51.524 62.55)">
        <path id="Trazado_207437" data-name="Trazado 207437" d="M171.513,175.365a5.8,5.8,0,0,0-4.379-5.306l-2.787-.7c0,.062.009.122.009.185v27.45a2.916,2.916,0,0,1-2.908,2.908H165.3a1.54,1.54,0,0,1,1.536,1.536,3.685,3.685,0,0,1-3.674,3.674h8.362a1.614,1.614,0,0,0,1.611-1.7Z" transform="translate(-161.449 -169.358)" fill="#4dd0e1"/>
      </g>
      <g id="Grupo_148811" data-name="Grupo 148811" transform="translate(1.063 81.662)">
        <path id="Trazado_207438" data-name="Trazado 207438" d="M48.989,227.3a1.54,1.54,0,0,1,1.536-1.536h3.211v-.075a2.917,2.917,0,0,1-2.263-2.832v-8.522H43.557l-.866,14.937a1.614,1.614,0,0,0,1.611,1.7h8.362A3.686,3.686,0,0,1,48.989,227.3Z" transform="translate(-42.688 -214.339)" fill="#f9d0b4"/>
      </g>
      <g id="Grupo_148812" data-name="Grupo 148812" transform="translate(52.169 81.662)">
        <path id="Trazado_207439" data-name="Trazado 207439" d="M173.145,214.339H165.23v8.522a2.917,2.917,0,0,1-2.263,2.832v.075h3.211a1.54,1.54,0,0,1,1.536,1.536,3.685,3.685,0,0,1-3.674,3.674H172.4a1.614,1.614,0,0,0,1.611-1.7Z" transform="translate(-162.967 -214.339)" fill="#f9d0b4"/>
      </g>
      <g id="Grupo_148813" data-name="Grupo 148813" transform="translate(9.847 59.826)">
        <path id="Trazado_207440" data-name="Trazado 207440" d="M105.04,162.949H66.271a2.916,2.916,0,0,0-2.908,2.908v27.45a2.916,2.916,0,0,0,2.908,2.908H105.04a2.916,2.916,0,0,0,2.908-2.908v-27.45A2.916,2.916,0,0,0,105.04,162.949Z" transform="translate(-63.363 -162.949)" fill="#edf4fc"/>
      </g>
      <g id="Grupo_148814" data-name="Grupo 148814" transform="translate(7.363 93.092)">
        <path id="Trazado_207441" data-name="Trazado 207441" d="M105.534,241.239H59.053a1.54,1.54,0,0,0-1.536,1.536,3.685,3.685,0,0,0,3.674,3.674h42.2a3.685,3.685,0,0,0,3.674-3.674,1.54,1.54,0,0,0-1.536-1.536Z" transform="translate(-57.517 -241.239)" fill="#edf4fc"/>
      </g>
      <g id="Grupo_148815" data-name="Grupo 148815" transform="translate(25.446 74.102)">
        <path id="Trazado_207442" data-name="Trazado 207442" d="M111.814,196.547H101.721a1.652,1.652,0,0,0-1.647,1.647v1.6a1.652,1.652,0,0,0,1.647,1.647h10.093a1.652,1.652,0,0,0,1.647-1.647v-1.6A1.652,1.652,0,0,0,111.814,196.547Z" transform="translate(-100.074 -196.547)" fill="#c7d7e5"/>
      </g>
      <g id="Grupo_148821" data-name="Grupo 148821" transform="translate(37.853 50.633)">
        <path id="Trazado_207446" data-name="Trazado 207446" d="M136.325,151.568a1.055,1.055,0,0,1-.393-.076,21.131,21.131,0,0,1-3.25-1.485,6.1,6.1,0,0,1-3.407-5.5v-2.133a1.062,1.062,0,0,1,2.125,0v2.133a3.993,3.993,0,0,0,2.241,3.6l.056.029a31.514,31.514,0,0,0,3.023,1.378,1.063,1.063,0,0,1-.394,2.05Z" transform="translate(-129.275 -141.312)"/>
      </g>
      <g id="Grupo_148822" data-name="Grupo 148822" transform="translate(18.318 50.74)">
        <path id="Trazado_207447" data-name="Trazado 207447" d="M84.36,151.713a1.062,1.062,0,0,1-.4-2.045c1.14-.466,2.2-.975,3.082-1.411a3.993,3.993,0,0,0,2.241-3.6v-2.026a1.062,1.062,0,1,1,2.124,0v2.026a6.106,6.106,0,0,1-3.426,5.51c-.917.452-2.017.981-3.217,1.472A1.074,1.074,0,0,1,84.36,151.713Z" transform="translate(-83.298 -141.564)"/>
      </g>
      <g id="Grupo_148823" data-name="Grupo 148823" transform="translate(16.369 18.905)">
        <path id="Trazado_207448" data-name="Trazado 207448" d="M94.482,101.9a15.788,15.788,0,0,1-15.77-15.77V73.787a8.628,8.628,0,0,1,2.395-5.981,3.748,3.748,0,0,1,5.044-.354,13.71,13.71,0,0,0,16.661.011,3.748,3.748,0,0,1,5.046.343,8.619,8.619,0,0,1,1.7,2.6,1.062,1.062,0,1,1-1.957.827,6.508,6.508,0,0,0-1.284-1.963,1.631,1.631,0,0,0-2.2-.139,15.834,15.834,0,0,1-19.282-.009,1.63,1.63,0,0,0-2.192.142,6.519,6.519,0,0,0-1.813,4.521V86.13a13.646,13.646,0,0,0,27.292,0V77.384a1.062,1.062,0,0,1,2.125,0v8.747A15.788,15.788,0,0,1,94.482,101.9Z" transform="translate(-78.712 -66.641)"/>
      </g>
      <g id="Grupo_148824" data-name="Grupo 148824" transform="translate(46.21 28.896)">
        <path id="Trazado_207449" data-name="Trazado 207449" d="M150.524,101.788c-.2,0-.405-.01-.621-.031a1.062,1.062,0,1,1,.2-2.115c.138.013.277.021.419.021a5.075,5.075,0,0,0,4.244-7.864,1.062,1.062,0,1,1,1.774-1.168,7.2,7.2,0,0,1-6.018,11.156Z" transform="translate(-148.941 -90.154)"/>
      </g>
      <g id="Grupo_148825" data-name="Grupo 148825" transform="translate(9.284 26.123)">
        <path id="Trazado_207450" data-name="Trazado 207450" d="M69.241,98.035a7.2,7.2,0,1,1,0-14.406c.213,0,.431.01.647.03a1.062,1.062,0,0,1-.2,2.115c-.148-.014-.3-.021-.45-.021a5.078,5.078,0,1,0,0,10.157c.135,0,.268-.007.4-.019a1.062,1.062,0,0,1,.193,2.116q-.293.028-.592.028Z" transform="translate(-62.038 -83.629)"/>
      </g>
      <g id="Grupo_148826" data-name="Grupo 148826" transform="translate(27.306 41.217)">
        <path id="Trazado_207451" data-name="Trazado 207451" d="M109.5,122.985a6.273,6.273,0,0,1-4.8-2.088,1.062,1.062,0,0,1,1.628-1.365,4.45,4.45,0,0,0,6.342,0A1.062,1.062,0,0,1,114.3,120.9,6.276,6.276,0,0,1,109.5,122.985Z" transform="translate(-104.453 -119.153)"/>
      </g>
      <g id="Grupo_148827" data-name="Grupo 148827" transform="translate(37.013 32.029)">
        <circle id="Elipse_4893" data-name="Elipse 4893" cx="1.976" cy="1.976" r="1.976"/>
      </g>
      <g id="Grupo_148828" data-name="Grupo 148828" transform="translate(23.742 32.029)">
        <circle id="Elipse_4894" data-name="Elipse 4894" cx="1.976" cy="1.976" r="1.976"/>
      </g>
      <g id="Grupo_148829" data-name="Grupo 148829" transform="translate(12.334 4)">
        <path id="Trazado_207452" data-name="Trazado 207452" d="M70.277,56.379a1.062,1.062,0,0,1-1.062-1.062V49.439A17.5,17.5,0,0,1,83.774,32.156c10.314-1.782,17.614.5,19.526,6.093a1.062,1.062,0,0,1-2.011.687c-1.819-5.325-10.053-5.913-17.154-4.687a15.385,15.385,0,0,0-12.8,15.19v5.878A1.062,1.062,0,0,1,70.277,56.379Z" transform="translate(-69.215 -31.562)"/>
      </g>
      <g id="Grupo_148830" data-name="Grupo 148830" transform="translate(43.507)">
        <path id="Trazado_207453" data-name="Trazado 207453" d="M163.5,60.491h-5.355a2.23,2.23,0,0,1-2.217-1.9l-.507-3.316a.107.107,0,0,0-.053-.083,14.85,14.85,0,0,1-3.826-2.212.106.106,0,0,0-.1-.006l-3.128,1.22a2.23,2.23,0,0,1-2.757-.968l-2.678-4.638a2.23,2.23,0,0,1,.54-2.871l2.618-2.1a.108.108,0,0,0,.043-.1,14.9,14.9,0,0,1,0-4.4.109.109,0,0,0-.043-.1l-2.619-2.1a2.23,2.23,0,0,1-.54-2.871l2.678-4.638a2.23,2.23,0,0,1,2.757-.968l3.128,1.22a.105.105,0,0,0,.1-.006,14.866,14.866,0,0,1,3.826-2.212.107.107,0,0,0,.053-.082l.507-3.316a2.23,2.23,0,0,1,2.217-1.9H163.5a2.23,2.23,0,0,1,2.217,1.9l.507,3.316a.108.108,0,0,0,.053.083,14.857,14.857,0,0,1,3.826,2.212.105.105,0,0,0,.1.006l3.128-1.22a2.23,2.23,0,0,1,2.757.968l2.678,4.638a2.23,2.23,0,0,1-.54,2.871l-2.618,2.1a.107.107,0,0,0-.043.1,14.938,14.938,0,0,1,0,4.4.107.107,0,0,0,.043.1l2.619,2.1a2.229,2.229,0,0,1,.54,2.871l-2.678,4.638a2.231,2.231,0,0,1-2.757.968l-3.128-1.22a.11.11,0,0,0-.1.006,14.862,14.862,0,0,1-3.826,2.212.108.108,0,0,0-.053.082l-.507,3.316A2.232,2.232,0,0,1,163.5,60.491Zm-12.011-9.652a2.208,2.208,0,0,1,1.377.477,12.733,12.733,0,0,0,3.28,1.9,2.229,2.229,0,0,1,1.375,1.739l.507,3.316a.117.117,0,0,0,.116.1H163.5a.117.117,0,0,0,.116-.1l.507-3.316a2.229,2.229,0,0,1,1.375-1.738,12.753,12.753,0,0,0,3.28-1.9,2.23,2.23,0,0,1,2.2-.323l3.129,1.22a.116.116,0,0,0,.145-.051l2.678-4.638a.117.117,0,0,0-.028-.15l-2.619-2.1a2.238,2.238,0,0,1-.816-2.068,12.788,12.788,0,0,0,0-3.777,2.237,2.237,0,0,1,.816-2.068l2.618-2.1a.117.117,0,0,0,.028-.151l-2.678-4.638a.117.117,0,0,0-.145-.051l-3.129,1.22a2.229,2.229,0,0,1-2.2-.323,12.747,12.747,0,0,0-3.28-1.9,2.229,2.229,0,0,1-1.375-1.739l-.507-3.316a.117.117,0,0,0-.116-.1h-5.355a.117.117,0,0,0-.116.1l-.507,3.316a2.228,2.228,0,0,1-1.375,1.738,12.747,12.747,0,0,0-3.28,1.9,2.232,2.232,0,0,1-2.2.324l-3.129-1.22a.118.118,0,0,0-.144.051l-2.678,4.638a.116.116,0,0,0,.028.15l2.619,2.1a2.237,2.237,0,0,1,.816,2.068,12.788,12.788,0,0,0,0,3.777,2.238,2.238,0,0,1-.816,2.068l-2.619,2.1a.117.117,0,0,0-.028.151l2.678,4.638a.119.119,0,0,0,.144.051l3.128-1.22a2.271,2.271,0,0,1,.818-.153Z" transform="translate(-142.58 -22.148)"/>
      </g>
      <g id="Grupo_148831" data-name="Grupo 148831" transform="translate(51.871 13.86)">
        <path id="Trazado_207454" data-name="Trazado 207454" d="M167.577,65.391a1.059,1.059,0,0,1-.751-.311l-4.25-4.25a1.061,1.061,0,0,1,0-1.5l4.25-4.25a1.062,1.062,0,0,1,1.5,1.5l-3.5,3.5,3.5,3.5a1.062,1.062,0,0,1-.751,1.813Z" transform="translate(-162.264 -54.767)"/>
      </g>
      <g id="Grupo_148832" data-name="Grupo 148832" transform="translate(65.261 13.86)">
        <path id="Trazado_207455" data-name="Trazado 207455" d="M194.841,65.392a1.062,1.062,0,0,1-.751-1.813l3.5-3.5-3.5-3.5a1.062,1.062,0,1,1,1.5-1.5l4.25,4.25a1.061,1.061,0,0,1,0,1.5l-4.25,4.25A1.059,1.059,0,0,1,194.841,65.392Z" transform="translate(-193.778 -54.768)"/>
      </g>
      <g id="Grupo_148833" data-name="Grupo 148833" transform="translate(59.117 12.529)">
        <path id="Trazado_207456" data-name="Trazado 207456" d="M180.381,64.921a1.063,1.063,0,0,1-1.023-1.351l3.148-11.162a1.062,1.062,0,0,1,2.045.577L181.4,64.147A1.063,1.063,0,0,1,180.381,64.921Z" transform="translate(-179.318 -51.634)"/>
      </g>
      <g id="Grupo_148834" data-name="Grupo 148834" transform="translate(0 61.526)">
        <path id="Trazado_207457" data-name="Trazado 207457" d="M51.225,204.786H42.863a2.676,2.676,0,0,1-2.672-2.825l1.627-28.043A6.836,6.836,0,0,1,47,167.643l2.629-.662a1.062,1.062,0,1,1,.519,2.06l-2.629.662a4.722,4.722,0,0,0-3.577,4.335l-1.627,28.043a.551.551,0,0,0,.551.58h8.362a1.062,1.062,0,0,1,0,2.125Z" transform="translate(-40.187 -166.948)"/>
      </g>
      <g id="Grupo_148835" data-name="Grupo 148835" transform="translate(52.179 61.534)">
        <path id="Trazado_207458" data-name="Trazado 207458" d="M172.414,204.8h-8.362a1.062,1.062,0,0,1,0-2.125h8.362a.552.552,0,0,0,.551-.582l-1.626-28.04a4.722,4.722,0,0,0-3.577-4.337l-2.6-.654a1.062,1.062,0,1,1,.519-2.06l2.6.654a6.836,6.836,0,0,1,5.18,6.277l1.626,28.039a2.676,2.676,0,0,1-2.672,2.828Z" transform="translate(-162.99 -166.967)"/>
      </g>
      <g id="Grupo_148836" data-name="Grupo 148836" transform="translate(1.461 80.6)">
        <path id="Trazado_207459" data-name="Trazado 207459" d="M51.539,213.963H44.687a1.062,1.062,0,0,1,0-2.125h6.852a1.062,1.062,0,1,1,0,2.125Z" transform="translate(-43.625 -211.839)"/>
      </g>
      <g id="Grupo_148837" data-name="Grupo 148837" transform="translate(53.856 80.6)">
        <path id="Trazado_207460" data-name="Trazado 207460" d="M175.064,213.963H168a1.062,1.062,0,0,1,0-2.125h7.064a1.062,1.062,0,0,1,0,2.125Z" transform="translate(-166.937 -211.839)"/>
      </g>
      <g id="Grupo_148838" data-name="Grupo 148838" transform="translate(8.785 58.764)">
        <path id="Trazado_207461" data-name="Trazado 207461" d="M103.6,195.839H64.833a3.974,3.974,0,0,1-3.97-3.97v-27.45a3.974,3.974,0,0,1,3.97-3.97H103.6a3.974,3.974,0,0,1,3.97,3.97v27.45A3.975,3.975,0,0,1,103.6,195.839ZM64.833,162.573a1.847,1.847,0,0,0-1.845,1.845v27.45a1.847,1.847,0,0,0,1.845,1.845H103.6a1.847,1.847,0,0,0,1.845-1.845v-27.45a1.847,1.847,0,0,0-1.845-1.845Z" transform="translate(-60.863 -160.449)"/>
      </g>
      <g id="Grupo_148839" data-name="Grupo 148839" transform="translate(6.301 92.03)">
        <path id="Trazado_207462" data-name="Trazado 207462" d="M101.957,246.073h-42.2a4.742,4.742,0,0,1-4.736-4.736,2.6,2.6,0,0,1,2.6-2.6H104.1a2.6,2.6,0,0,1,2.6,2.6A4.741,4.741,0,0,1,101.957,246.073Zm-44.343-5.21a.48.48,0,0,0-.473.473,2.615,2.615,0,0,0,2.612,2.612h42.2a2.615,2.615,0,0,0,2.612-2.612.48.48,0,0,0-.473-.473Z" transform="translate(-55.017 -238.739)"/>
      </g>
      <g id="Grupo_148840" data-name="Grupo 148840" transform="translate(24.384 73.04)">
        <path id="Trazado_207463" data-name="Trazado 207463" d="M110.377,201.061H100.284a2.712,2.712,0,0,1-2.709-2.709v-1.6a2.712,2.712,0,0,1,2.709-2.709h10.093a2.712,2.712,0,0,1,2.709,2.709v1.6A2.712,2.712,0,0,1,110.377,201.061Zm-10.093-4.889a.592.592,0,0,0-.585.585v1.6a.592.592,0,0,0,.585.585h10.093a.592.592,0,0,0,.585-.585v-1.6a.592.592,0,0,0-.585-.585Z" transform="translate(-97.575 -194.047)"/>
      </g>
    </g>
  </g>
</svg>
