<svg xmlns="http://www.w3.org/2000/svg" xmlns:xlink="http://www.w3.org/1999/xlink" width="505" height="331.059" viewBox="0 0 505 331.059">
  <defs>
    <clipPath id="clip-path">
      <rect id="Rectángulo_294678" data-name="Rectángulo 294678" width="420" height="331.058" fill="none"/>
    </clipPath>
    <clipPath id="clip-path-3">
      <rect id="Rectángulo_294632" data-name="Rectángulo 294632" width="94.863" height="9.364" fill="none"/>
    </clipPath>
    <clipPath id="clip-path-4">
      <path id="Trazado_203222" data-name="Trazado 203222" d="M253.591,99.087l-14.107,7.893v5.827a12.392,12.392,0,0,0-3.9.186l.016.078s-2.082,12.3,10.346,12.3c11.84,0,13.346-11.512,13.455-12.615a25.639,25.639,0,0,0-5.3-.078v-13.6Z" transform="translate(-235.469 -99.087)" fill="none"/>
    </clipPath>
    <radialGradient id="radial-gradient" cx="0.538" cy="0.5" r="0.478" gradientTransform="matrix(1.016, 0, 0, -1, 0.137, 17.856)" gradientUnits="objectBoundingBox">
      <stop offset="0" stop-color="#f9b99f"/>
      <stop offset="1" stop-color="#f7a98a"/>
    </radialGradient>
    <clipPath id="clip-path-5">
      <path id="Trazado_203223" data-name="Trazado 203223" d="M222.7,80.8c-1.537,8.137-.059,24.054,7.625,29.549,1.993,1.425,12.441.187,14.139-1.3q3.756-3.289,7.522-6.563a9.947,9.947,0,0,0,1.546-1.562,9.088,9.088,0,0,0,1.243-2.808c1.733-5.76,3.01-12.083,1.653-18.059a16.126,16.126,0,0,0-4.24-7.863,17.151,17.151,0,0,0-12.331-5.118c-7.837,0-15.524,5.087-17.156,13.722" transform="translate(-222.152 -67.079)" fill="none"/>
    </clipPath>
    <radialGradient id="radial-gradient-2" cx="0.511" cy="0.486" r="0.385" gradientTransform="matrix(1.137, 0, 0, -1, 0.639, 10.474)" xlink:href="#radial-gradient"/>
    <clipPath id="clip-path-7">
      <path id="Trazado_203235" data-name="Trazado 203235" d="M211.639,305.613,215.755,315l12.569-5.515-4.1-9.354Z" transform="translate(-211.639 -300.128)" fill="none"/>
    </clipPath>
    <radialGradient id="radial-gradient-3" cx="0.5" r="0.531" gradientTransform="matrix(0.891, 0, 0, -1, -1.343, 5.274)" xlink:href="#radial-gradient"/>
    <clipPath id="clip-path-9">
      <path id="Trazado_203237" data-name="Trazado 203237" d="M162.177,316.653H175.9l-.982-14.052-13.719-.03Z" transform="translate(-161.195 -302.571)" fill="none"/>
    </clipPath>
    <radialGradient id="radial-gradient-4" cx="0.5" r="0.511" gradientTransform="matrix(0.958, 0, 0, -1, -0.449, 5.231)" xlink:href="#radial-gradient"/>
    <clipPath id="clip-path-11">
      <path id="Trazado_203243" data-name="Trazado 203243" d="M175.945,180.7H200.8l.2-6.8-6.54.652s-2.594-3.558-9.322-3.558-9.2,9.71-9.2,9.71" transform="translate(-175.945 -170.985)" fill="none"/>
    </clipPath>
    <radialGradient id="radial-gradient-5" cx="1.142" cy="1.383" r="1.533" gradientTransform="matrix(0, 1, 1.938, 0, -25.805, 19.626)" xlink:href="#radial-gradient"/>
    <clipPath id="clip-path-13">
      <path id="Trazado_203247" data-name="Trazado 203247" d="M236.932,167.211c-2.844.746-9.711,2.035-16.64,3.247-.916.171-1.834.327-2.75.5-8.25,1.43-15.832,2.658-15.832,2.658l-.016.4v.264l-.187,6.138v1.557a172.044,172.044,0,0,1,18.691.307c14.589,1.04,33.4,1.662,39.634-1.274,2.921-1.383,5.251-5.919,7.084-11.512l-.092.047-24.345-8.623c-1.772,3.31-3.667,5.8-5.547,6.292" transform="translate(-201.508 -160.919)" fill="none"/>
    </clipPath>
    <radialGradient id="radial-gradient-6" cx="0.454" cy="0.196" r="0.591" gradientTransform="matrix(0, 1, 2.061, 0, -12.364, 9.297)" xlink:href="#radial-gradient"/>
  </defs>
  <g id="Grupo_172716" data-name="Grupo 172716" transform="translate(-915 -5618)">
    <rect id="Rectángulo_296739" data-name="Rectángulo 296739" width="505" height="331" transform="translate(915 5618)" fill="none"/>
    <g id="Grupo_144209" data-name="Grupo 144209" transform="translate(956.967 5590.079)">
      <g id="Grupo_144208" data-name="Grupo 144208" transform="translate(0 27.921)" clip-path="url(#clip-path)">
        <rect id="Rectángulo_294630" data-name="Rectángulo 294630" width="94.863" height="88.542" transform="translate(33.849 26.928)" fill="#122654"/>
        <g id="Grupo_144185" data-name="Grupo 144185">
          <g id="Grupo_144184" data-name="Grupo 144184" clip-path="url(#clip-path)">
            <g id="Grupo_144183" data-name="Grupo 144183" transform="translate(33.848 26.928)" style="mix-blend-mode: screen;isolation: isolate">
              <g id="Grupo_144182" data-name="Grupo 144182">
                <g id="Grupo_144181" data-name="Grupo 144181" clip-path="url(#clip-path-3)">
                  <rect id="Rectángulo_294631" data-name="Rectángulo 294631" width="94.863" height="9.364" transform="translate(0)" fill="#161d22"/>
                </g>
              </g>
            </g>
            <path id="Trazado_203212" data-name="Trazado 203212" d="M111.178,32.567a1.717,1.717,0,1,1-1.716-1.716,1.716,1.716,0,0,1,1.716,1.716" transform="translate(-2.973 -0.851)" fill="#38539e"/>
            <path id="Trazado_203213" data-name="Trazado 203213" d="M118.549,32.567a1.716,1.716,0,1,1-1.716-1.716,1.716,1.716,0,0,1,1.716,1.716" transform="translate(-3.176 -0.851)" fill="#ffc545"/>
            <path id="Trazado_203214" data-name="Trazado 203214" d="M125.393,32.753a1.716,1.716,0,1,1-1.716-1.716,1.716,1.716,0,0,1,1.716,1.716" transform="translate(-3.365 -0.856)" fill="#ea6b65"/>
            <rect id="Rectángulo_294633" data-name="Rectángulo 294633" width="13.436" height="1.129" transform="translate(50.716 44.997)" fill="#ea6b65"/>
            <rect id="Rectángulo_294634" data-name="Rectángulo 294634" width="13.436" height="1.129" transform="translate(66.486 44.997)" fill="#ffc545"/>
            <rect id="Rectángulo_294635" data-name="Rectángulo 294635" width="20.835" height="1.129" transform="translate(54.872 51.081)" fill="#38539e"/>
            <rect id="Rectángulo_294636" data-name="Rectángulo 294636" width="10.591" height="1.129" transform="translate(79.151 51.081)" fill="#ea6b65"/>
            <rect id="Rectángulo_294637" data-name="Rectángulo 294637" width="9.15" height="1.129" transform="translate(62.099 57.163)" fill="#ffc545"/>
            <rect id="Rectángulo_294638" data-name="Rectángulo 294638" width="30.356" height="1.129" transform="translate(76.539 57.163)" fill="#ffc545"/>
            <rect id="Rectángulo_294639" data-name="Rectángulo 294639" width="34.693" height="1.129" transform="translate(69.207 63.247)" fill="#38539e"/>
            <rect id="Rectángulo_294640" data-name="Rectángulo 294640" width="10.677" height="1.129" transform="translate(60.533 69.33)" fill="#ea6b65"/>
            <rect id="Rectángulo_294641" data-name="Rectángulo 294641" width="10.677" height="1.129" transform="translate(75.778 69.33)" fill="#38539e"/>
            <rect id="Rectángulo_294642" data-name="Rectángulo 294642" width="15.532" height="1.129" transform="translate(50.716 100.89)" fill="#ffbc19"/>
            <rect id="Rectángulo_294643" data-name="Rectángulo 294643" width="15.533" height="1.129" transform="translate(71.688 100.89)" fill="#ffc545"/>
            <rect id="Rectángulo_294644" data-name="Rectángulo 294644" width="15.532" height="1.129" transform="translate(92.097 100.89)" fill="#ffbc19"/>
            <rect id="Rectángulo_294645" data-name="Rectángulo 294645" width="30.356" height="1.129" transform="translate(54.872 94.807)" fill="#38539e"/>
            <rect id="Rectángulo_294646" data-name="Rectángulo 294646" width="30.356" height="1.129" transform="translate(89.961 94.807)" fill="#ffbc19"/>
            <rect id="Rectángulo_294647" data-name="Rectángulo 294647" width="30.123" height="1.129" transform="translate(62.099 88.724)" fill="#ffbc19"/>
            <rect id="Rectángulo_294648" data-name="Rectángulo 294648" width="8.384" height="1.129" transform="translate(94.849 88.724)" fill="#ffc545"/>
            <rect id="Rectángulo_294649" data-name="Rectángulo 294649" width="11.34" height="1.129" transform="translate(60.131 82.64)" fill="#ffc545"/>
            <rect id="Rectángulo_294650" data-name="Rectángulo 294650" width="11.34" height="1.129" transform="translate(77.494 82.64)" fill="#38539e"/>
            <rect id="Rectángulo_294651" data-name="Rectángulo 294651" width="11.34" height="1.129" transform="translate(96.128 82.64)" fill="#ffbc19"/>
            <rect id="Rectángulo_294652" data-name="Rectángulo 294652" width="15.901" height="1.129" transform="translate(73.277 76.557)" fill="#ffc545"/>
            <rect id="Rectángulo_294653" data-name="Rectángulo 294653" width="15.901" height="1.129" transform="translate(51.377 76.557)" fill="#38539e"/>
            <rect id="Rectángulo_294654" data-name="Rectángulo 294654" width="1.445" height="1.446" transform="translate(41.923 43.912)" fill="#f9fbfc"/>
            <path id="Trazado_203215" data-name="Trazado 203215" d="M44.557,98.362H43.112V95.414h1.445Zm0-7.371H43.112V88.043h1.445Zm0-7.37H43.112V80.673h1.445Zm0-7.37H43.112V73.3h1.445Zm0-7.37H43.112V65.933h1.445Zm0-7.371H43.112V58.562h1.445Zm0-7.37H43.112V51.192h1.445Z" transform="translate(-1.189 -1.412)" fill="#f9fbfc"/>
            <rect id="Rectángulo_294655" data-name="Rectángulo 294655" width="1.445" height="1.446" transform="translate(41.923 101.371)" fill="#f9fbfc"/>
            <rect id="Rectángulo_294656" data-name="Rectángulo 294656" width="78.114" height="48.149" transform="translate(152.429)" fill="#ffbc19"/>
            <path id="Trazado_203216" data-name="Trazado 203216" d="M187.6,19.838,178.308,23.8l9.293,3.908-1.216,2.808-11.146-4.98V22.1l11.146-5.008Z" transform="translate(-4.835 -0.471)" fill="#f9fbfc"/>
            <path id="Trazado_203217" data-name="Trazado 203217" d="M201.754,10.458l-6.746,25.911-3.213-.753L198.57,9.734Z" transform="translate(-5.291 -0.269)" fill="#f9fbfc"/>
            <path id="Trazado_203218" data-name="Trazado 203218" d="M218.273,22.1v3.445l-11.147,4.98-1.216-2.808,9.264-3.908-9.264-3.966,1.216-2.75Z" transform="translate(-5.681 -0.471)" fill="#f9fbfc"/>
            <rect id="Rectángulo_294657" data-name="Rectángulo 294657" width="74.25" height="52.897" transform="translate(312.685 82.679)" fill="#38539e"/>
            <path id="Trazado_203219" data-name="Trazado 203219" d="M353.206,96.669c-2.388,0-3.185.645-3.185,2.426v7.961c0,3.109-1.288,4.057-3.45,4.664,2.162.569,3.45,1.516,3.45,4.587v7.961c0,1.782.834,2.426,3.185,2.426v3.488c-6.028,0-7.735-1.933-7.735-5.952v-7.544c0-2.161-.568-3-2.539-3V109.71c1.971,0,2.539-.871,2.539-3.033V99.133c0-4.057,1.707-5.952,7.735-5.952Z" transform="translate(-9.461 -2.571)" fill="#eeefef"/>
            <path id="Trazado_203220" data-name="Trazado 203220" d="M373.708,99.134v7.544c0,2.162.569,3.033,2.578,3.033v3.981c-2.009,0-2.578.834-2.578,3v7.544c0,4.019-1.706,5.952-7.734,5.952V126.7c2.35,0,3.185-.645,3.185-2.426v-7.961c0-3.071,1.288-4.018,3.45-4.587-2.162-.607-3.45-1.555-3.45-4.664V99.1c0-1.781-.8-2.426-3.185-2.426V93.182c6.028,0,7.734,1.9,7.734,5.952" transform="translate(-10.097 -2.571)" fill="#eeefef"/>
            <rect id="Rectángulo_294658" data-name="Rectángulo 294658" width="49.913" height="33.385" transform="translate(3.657 15.024)" fill="#4ab7ce"/>
            <path id="Trazado_203221" data-name="Trazado 203221" d="M20.7,25.217A8.192,8.192,0,0,0,31.66,37.126L36.9,42.365a.566.566,0,0,0,.8,0l1.471-1.471a.566.566,0,0,0,0-.8l-5.238-5.238A8.193,8.193,0,0,0,20.7,25.217m10.515,9.189a5.793,5.793,0,1,1,0-8.193,5.8,5.8,0,0,1,0,8.193" transform="translate(-0.522 -0.61)" fill="#f9fbfc"/>
          </g>
        </g>
        <g id="Grupo_144187" data-name="Grupo 144187" transform="translate(228.973 96.353)">
          <g id="Grupo_144186" data-name="Grupo 144186" clip-path="url(#clip-path-4)">
            <rect id="Rectángulo_294660" data-name="Rectángulo 294660" width="25.884" height="26.288" transform="translate(-1.951 0)" fill="url(#radial-gradient)"/>
          </g>
        </g>
        <g id="Grupo_144189" data-name="Grupo 144189" transform="translate(216.023 65.228)">
          <g id="Grupo_144188" data-name="Grupo 144188" clip-path="url(#clip-path-5)">
            <rect id="Rectángulo_294661" data-name="Rectángulo 294661" width="45.209" height="51.402" transform="matrix(0.978, -0.21, 0.21, 0.978, -10.191, 1.98)" fill="url(#radial-gradient-2)"/>
          </g>
        </g>
        <g id="Grupo_144191" data-name="Grupo 144191">
          <g id="Grupo_144190" data-name="Grupo 144190" clip-path="url(#clip-path)">
            <path id="Trazado_203224" data-name="Trazado 203224" d="M248.6,90.048c.1-1.3,1.438-2.722,2.779-1.879,1.389.872,1.062,3.18.486,4.45-.451,1-1.96,2.086-2.982,1.16-.857-.776.475-1.692.518-2.4.04-.637-1.236-1.094-.714-1.777" transform="translate(-6.857 -2.425)" fill="#f59f82"/>
            <path id="Trazado_203225" data-name="Trazado 203225" d="M248.848,96.095a3.967,3.967,0,0,0,4.373-2.6,14.941,14.941,0,0,0,.536-4.177,10,10,0,0,1,.343,4.606c-.363,2.841-1.358,5.548-3.588,5.583s-1.664-3.413-1.664-3.413" transform="translate(-6.864 -2.464)" fill="#f59f82"/>
            <path id="Trazado_203226" data-name="Trazado 203226" d="M246.153,93.276a.5.5,0,0,1-.157.047c-.867.122-1.214-.928-1.342-1.584a29.229,29.229,0,0,1-.307-4.636,3.509,3.509,0,0,0-.141-1.238c-.487-1.117-1.785-1.842-2.181-2.992-.461-1.341.84-2.678.324-4.144-.791-2.247-3.676-2.764-5.763-2.74a65.528,65.528,0,0,0-9.275,1.1c-3.262.507-7.432.987-10.308-1.077-3.465-2.485-4.912-8.966-2.326-12.515a8.4,8.4,0,0,1,6.424-3.018c2.483-.055,4.58,1.425,6.857,2.168,1.814.594,3.568-1.141,5.263-1.481,2.131-.424,3.036,1.9,4.92,1.966,1.832.061,3.628-1.37,5.409-1.694,3.55-.65,3.341,2.917,5.723,4.134,1.48.758,3.393.3,4.89,1.069,1.138.583,1.3,1.61,1.545,2.774a27.078,27.078,0,0,0,.557,3.122,7.067,7.067,0,0,0,1.583,2.075,7.59,7.59,0,0,1,1.319,2.511,15.648,15.648,0,0,1,.656,6.375,43.317,43.317,0,0,1-2.667,10.487c-.777,2.192-1.066,4.472-2.261,6.545-.321.557-1.746,2.185-2.276.972a1.777,1.777,0,0,1-.077-.838c.158-2.258,2.26-16.81-3.252-15.061a3.905,3.905,0,0,0-2.365,2.427,9.443,9.443,0,0,0-.486,4.026c.01.2.015.4.007.6a.681.681,0,0,1-.294.626" transform="translate(-5.886 -1.668)" fill="#132328"/>
            <path id="Trazado_203227" data-name="Trazado 203227" d="M239.587,111.655a18.98,18.98,0,0,0,10.4-5.959,11.423,11.423,0,0,1-10.78,8.786Z" transform="translate(-6.6 -2.916)" fill="#f59f82"/>
            <path id="Trazado_203228" data-name="Trazado 203228" d="M250.179,228.8h8.972v86.083a1.581,1.581,0,0,1-1.581,1.581h-5.81a1.581,1.581,0,0,1-1.581-1.581Z" transform="translate(-6.902 -6.312)" fill="#0b1927"/>
            <path id="Trazado_203229" data-name="Trazado 203229" d="M229.421,230.061h49.342v1.347a6.14,6.14,0,0,1-6.14,6.141H235.561a6.14,6.14,0,0,1-6.14-6.141Z" transform="translate(-6.329 -6.347)" fill="#21384d"/>
            <path id="Trazado_203230" data-name="Trazado 203230" d="M250.179,308.451h8.972V328.4a1.581,1.581,0,0,1-1.581,1.581h-5.81a1.581,1.581,0,0,1-1.581-1.581Z" transform="translate(-6.902 -8.51)" fill="#0b1927"/>
            <path id="Trazado_203231" data-name="Trazado 203231" d="M206.912,325.042a5.251,5.251,0,1,0,5.251-5.251,5.251,5.251,0,0,0-5.251,5.251" transform="translate(-5.708 -8.823)" fill="#0b1927"/>
            <path id="Trazado_203232" data-name="Trazado 203232" d="M291.872,325.042a5.251,5.251,0,1,0,5.251-5.251,5.251,5.251,0,0,0-5.251,5.251" transform="translate(-8.052 -8.823)" fill="#0b1927"/>
            <rect id="Rectángulo_294662" data-name="Rectángulo 294662" width="18.05" height="15.773" transform="translate(238.738 293.256)" fill="#21384d"/>
            <path id="Trazado_203233" data-name="Trazado 203233" d="M206.912,321.4H300.03v-1.83a5.593,5.593,0,0,0-5.593-5.592H212.5a5.593,5.593,0,0,0-5.592,5.592Z" transform="translate(-5.708 -8.662)" fill="#d89718"/>
            <rect id="Rectángulo_294663" data-name="Rectángulo 294663" width="3.113" height="58.878" transform="translate(244.65 232.971)" fill="#21384d"/>
            <path id="Trazado_203234" data-name="Trazado 203234" d="M289.241,164.628a3.659,3.659,0,0,0-3.779,3.864c.616,10.687-1.649,36.757-11.6,45.653-12.17,10.875-46.665,9.394-46.665,9.394s-5.7,6.991,5.7,8.545,43.5.518,51.27-6.732c7.52-7.019,11.983-25.406,8.619-57.41a3.684,3.684,0,0,0-3.539-3.314" transform="translate(-6.229 -4.542)" fill="#d89718"/>
          </g>
        </g>
        <g id="Grupo_144193" data-name="Grupo 144193" transform="translate(205.8 291.848)">
          <g id="Grupo_144192" data-name="Grupo 144192" clip-path="url(#clip-path-7)">
            <rect id="Rectángulo_294665" data-name="Rectángulo 294665" width="16.686" height="14.868" fill="url(#radial-gradient-3)"/>
          </g>
        </g>
        <g id="Grupo_144195" data-name="Grupo 144195">
          <g id="Grupo_144194" data-name="Grupo 144194" clip-path="url(#clip-path)">
            <path id="Trazado_203236" data-name="Trazado 203236" d="M282.652,193.225c-.777,1.554-56.623.031-61.9.512,0,0-34.18,16.313-39.09,31.586a16.688,16.688,0,0,0-.481,6c1.367,21.5,25.853,72.99,25.853,72.99l3.759-1.647,12.585-5.484,1.786-.776s-19.42-57.873-15.536-60.981,47.9-10.875,63.172-15.008c15.287-4.148,9.85-27.189,9.85-27.189" transform="translate(-4.997 -5.331)" fill="#132328"/>
          </g>
        </g>
        <g id="Grupo_144197" data-name="Grupo 144197" transform="translate(156.748 294.223)">
          <g id="Grupo_144196" data-name="Grupo 144196" clip-path="url(#clip-path-9)">
            <rect id="Rectángulo_294667" data-name="Rectángulo 294667" width="14.701" height="14.082" fill="url(#radial-gradient-4)"/>
          </g>
        </g>
        <g id="Grupo_144199" data-name="Grupo 144199">
          <g id="Grupo_144198" data-name="Grupo 144198" clip-path="url(#clip-path)">
            <path id="Trazado_203238" data-name="Trazado 203238" d="M219.641,193.257l-.5.218s-57.221,8.032-66.543,24.081c-6.059,10.441,5.669,86.728,5.669,86.728l20.244.047s-3.027-63.548-2.018-67.091c1.135-4.039,3.077-5.5,3.854-5.919a16.688,16.688,0,0,1,.481-6c4.91-15.273,39.09-31.586,39.09-31.586a.979.979,0,0,1-.28-.481" transform="translate(-4.162 -5.332)" fill="#1c323b"/>
            <path id="Trazado_203239" data-name="Trazado 203239" d="M276.836,138.887l-3.837.528a187.7,187.7,0,0,1-3.217,20.695l-47.8,18.146-.653,3.465-.59-.047c.016.715.016,1.414.047,2.066.109,3.993.373,6.867.793,8.017a.983.983,0,0,0,.28.482c1.3,1.059,18.206-.994,36.485,5.718,15.853,5.821,24.739,12.179,25.149,11.326,4.983-10.358-4.088-51.006-6.651-70.4" transform="translate(-6.09 -3.832)" fill="#122654"/>
            <path id="Trazado_203240" data-name="Trazado 203240" d="M271.849,162.61c-1.274,6.121-4.567,18.3-11.031,19.933-8.436,2.144-24.749,2.035-40.037,1.212-.031-.652-.031-1.352-.047-2.066l.59.047.652-3.465,47.806-18.146A187.551,187.551,0,0,0,273,139.43a1.344,1.344,0,0,0,.016.171c.093,1.6.746,13.967-1.165,23.009" transform="translate(-6.09 -3.847)" fill="#0d132b"/>
            <path id="Trazado_203241" data-name="Trazado 203241" d="M223.665,123.181c-.855,1.554-2.082,18.177-2.75,34.677l-9.773-9.119c4.148-8.033,12.523-25.558,12.523-25.558" transform="translate(-5.825 -3.398)" fill="#0d132b"/>
            <path id="Trazado_203242" data-name="Trazado 203242" d="M216.891,170.351c-8.25,1.429-15.832,2.657-15.832,2.657l-.016.4c-9.182-7.334-23.149-28.106-23.149-28.106s4.179-5.019,5.221-6.339c.155-.2,22.931,15.474,24.1,15.334.3-.03,1.461-2.081,3.014-5.127l9.772,9.12c-.155,3.93-.279,7.845-.357,11.559-.917.17-1.833.326-2.75.5" transform="translate(-4.908 -3.834)" fill="#f59f82"/>
          </g>
        </g>
        <g id="Grupo_144201" data-name="Grupo 144201" transform="translate(171.091 166.268)">
          <g id="Grupo_144200" data-name="Grupo 144200" clip-path="url(#clip-path-11)">
            <rect id="Rectángulo_294669" data-name="Rectángulo 294669" width="13.56" height="26.282" transform="translate(-1.52 9.466) rotate(-80.879)" fill="url(#radial-gradient-5)"/>
          </g>
        </g>
        <g id="Grupo_144203" data-name="Grupo 144203">
          <g id="Grupo_144202" data-name="Grupo 144202" clip-path="url(#clip-path)">
            <path id="Trazado_203244" data-name="Trazado 203244" d="M182.48,138.608l.187.156c-1.041,1.321-5.221,6.338-5.221,6.338l-2.594-1.833a6.45,6.45,0,0,1-6.184-.078c-3.465-1.88-1.321-6.368-1.143-6.9-.671.19-4.823,3.544-5.476,3.188s-1.134-1.538,3.511-6.121c4.63-4.584,10.938,1.3,11.123,1.3Z" transform="translate(-4.459 -3.631)" fill="#f59f82"/>
            <path id="Trazado_203245" data-name="Trazado 203245" d="M169.415,142.647s-1,1.876.779,2.692a17.74,17.74,0,0,0,6.733,1.259c1.488-.144,2.671-2.226,2.671-2.226l-4.507-4.229h-3.6Z" transform="translate(-4.666 -3.866)" fill="#f59f82"/>
            <path id="Trazado_203246" data-name="Trazado 203246" d="M169.121,143.565c.267-.921,2.826-.43,4.413-.392,1.168.027,1.808-.278,2.169-1.169s-1.335-2.309-1.669-1.864.612,1.072.64,1.663-1.67.786-2.978.786a31.86,31.86,0,0,0-3.564.34Z" transform="translate(-4.639 -3.864)" fill="#e38467"/>
          </g>
        </g>
        <g id="Grupo_144205" data-name="Grupo 144205" transform="translate(195.949 156.479)">
          <g id="Grupo_144204" data-name="Grupo 144204" clip-path="url(#clip-path-13)">
            <rect id="Rectángulo_294671" data-name="Rectángulo 294671" width="33.102" height="68.231" transform="matrix(0.159, -0.987, 0.987, 0.159, -3.604, 22.446)" fill="url(#radial-gradient-6)"/>
          </g>
        </g>
        <g id="Grupo_144207" data-name="Grupo 144207">
          <g id="Grupo_144206" data-name="Grupo 144206" clip-path="url(#clip-path)">
            <path id="Trazado_203248" data-name="Trazado 203248" d="M243.616,160.919l24.345,8.622-1.1,3.254-24.1-10.337Z" transform="translate(-6.698 -4.44)" fill="#f59f82"/>
            <path id="Trazado_203249" data-name="Trazado 203249" d="M243.012,159.6c-1.772,3.309-3.668,5.795-5.548,6.292-2.843.746-9.71,2.035-16.638,3.247.076-3.714.2-7.629.356-11.559.669-16.5,1.9-33.123,2.75-34.677,1.4-2.594,5.22-8.234,11.25-9.524l.015.078s-2.081,12.3,10.346,12.3c11.839,0,13.346-11.512,13.455-12.616,6.09.684,15.428,3.729,16.717,15.972.264,2.423.637,5.531,1.118,9.057L273,138.7s-1.555,17.245-5.548,29.472l-.093.047Z" transform="translate(-6.092 -3.122)" fill="#122654"/>
            <path id="Trazado_203250" data-name="Trazado 203250" d="M243.382,157.944l9.721-23.533-7.162,24.483Z" transform="translate(-6.715 -3.708)" fill="#0d132b"/>
            <path id="Trazado_203251" data-name="Trazado 203251" d="M259.065,113.147h-5.3s-7.539,8.278-12.387,8.278-2.234-8.231-2.234-8.231h-2.364a13.365,13.365,0,0,0-13.276,11.851c-.089.772-.169,1.505-.237,2.168-.519,5.009,19.768,8.653,19.768,8.653l10.446-.584,6.344-12.375,1.263-5.069Z" transform="translate(-6.159 -3.122)" fill="#122654"/>
            <path id="Trazado_203252" data-name="Trazado 203252" d="M194.337,326.283c.473,2.531,2.227,4.331,4.758,3.859l33.743-6.293a1.572,1.572,0,0,0,1.257-1.834l-.558-2.994s-35.488,6.211-39.217,7.244Z" transform="translate(-5.361 -8.801)" fill="#eeefef"/>
            <path id="Trazado_203253" data-name="Trazado 203253" d="M204.377,317.508c.352-.305.69-.609,1.042-.914.677-.606,1.343-1.2,1.984-1.766.338-.3.677-.606.991-.891.617-.552,1.2-1.07,1.717-1.533.374-.337.723-.656,1.038-.94l1.378-1.235a.764.764,0,0,1,1-.021c1.387,1.167,5.87,3.833,13.991-1.192a.779.779,0,0,1,1.1.288l4.911,9.438s-35.488,6.21-39.217,7.244c1.226-.765,5.757-4.685,10.057-8.477" transform="translate(-5.361 -8.522)" fill="#122654"/>
            <path id="Trazado_203254" data-name="Trazado 203254" d="M139.687,326.122c.063,2.574,1.508,4.63,4.082,4.567l34.315-.838a1.572,1.572,0,0,0,1.533-1.609l-.075-3.045s-36.025.476-39.87.9Z" transform="translate(-3.853 -8.972)" fill="#eeefef"/>
            <path id="Trazado_203255" data-name="Trazado 203255" d="M150.951,319c.4-.246.779-.491,1.175-.736.765-.49,1.516-.967,2.24-1.428.382-.245.764-.491,1.119-.722l1.94-1.24c.423-.274.819-.533,1.174-.764l1.558-1a.763.763,0,0,1,.995.139c1.183,1.372,5.185,4.719,14,1.052a.779.779,0,0,1,1.045.46l3.344,10.1s-36.024.477-39.87.9c1.331-.56,6.429-3.708,11.278-6.767" transform="translate(-3.853 -8.635)" fill="#122654"/>
            <path id="Trazado_203256" data-name="Trazado 203256" d="M114.064,181.185,95.738,132.308h52.174l18.326,48.877Z" transform="translate(-2.641 -3.65)" fill="#9ca7ad"/>
            <path id="Trazado_203257" data-name="Trazado 203257" d="M170.943,181.185h-3.225l-18.326-48.877,2.929.13,16.951,44.241Z" transform="translate(-4.122 -3.65)" fill="#70838e"/>
            <path id="Trazado_203258" data-name="Trazado 203258" d="M170.494,182.484h34.475l-.093-3.082H169.789" transform="translate(-4.684 -4.949)" fill="#70838e"/>
            <rect id="Rectángulo_294672" data-name="Rectángulo 294672" width="8.301" height="136.365" transform="translate(304.385 186.857)" fill="#70838e"/>
            <rect id="Rectángulo_294673" data-name="Rectángulo 294673" width="8.301" height="136.365" transform="translate(259.329 186.857)" fill="#9ca7ad"/>
            <rect id="Rectángulo_294674" data-name="Rectángulo 294674" width="8.301" height="136.365" transform="translate(114.986 186.857)" fill="#70838e"/>
            <rect id="Rectángulo_294675" data-name="Rectángulo 294675" width="8.301" height="136.365" transform="translate(69.931 186.857)" fill="#9ca7ad"/>
            <path id="Trazado_203259" data-name="Trazado 203259" d="M322.636,192.412H63.625a4.034,4.034,0,0,1-4.035-4.035v-1.771a4.034,4.034,0,0,1,4.035-4.035H322.636a4.035,4.035,0,0,1,4.035,4.035v1.771a4.035,4.035,0,0,1-4.035,4.035" transform="translate(-1.644 -5.037)" fill="#141d40"/>
            <path id="Trazado_203260" data-name="Trazado 203260" d="M104.7,137.592l.893,2.38h10.393l-.893-2.38Z" transform="translate(-2.888 -3.796)" fill="#70838e"/>
            <path id="Trazado_203261" data-name="Trazado 203261" d="M211.122,149.464l-.746,1.441,10.519,10.871v-3.191Z" transform="translate(-5.804 -4.124)" fill="#e38467"/>
            <rect id="Rectángulo_294676" data-name="Rectángulo 294676" width="420" height="9.59" transform="translate(0 321.468)" fill="#93a9bb"/>
            <path id="Trazado_203262" data-name="Trazado 203262" d="M421.3,256.379c-1.669,8.1-1.166,21.885-11.875,24.069-2.884.588-5.67-1.411-7.347-3.7-2.194-3-2.719-9.343-2.681-12.972.031-2.877,1.011-6.084,1.327-8.986.341-3.134.618-6.276.984-9.407,1.318-11.288,7.214-20.748,17.188-26.383.772,3.7,2.532,6.842,4.083,10.4a36.868,36.868,0,0,1,1.806,5.032c.816,3.011-.171,6.052-.9,8.935-1.083,4.263-1.695,8.705-2.584,13.016" transform="translate(-11.019 -6.042)" fill="#122654"/>
            <path id="Trazado_203263" data-name="Trazado 203263" d="M407.667,280.836q.114-1.018.249-2.037a8.713,8.713,0,0,0,3.686-1.286,19.606,19.606,0,0,0,4.838-3.831c.078-.079-.054-.206-.138-.136a21.761,21.761,0,0,1-4.709,3.224,13.318,13.318,0,0,1-3.578,1.332q.169-1.215.371-2.426a10.159,10.159,0,0,0,3.682-1.709,42.087,42.087,0,0,0,5.276-4.028.019.019,0,0,0-.023-.031c-2.616,1.9-5.529,4.6-8.837,5.195.175-1.011.361-2.02.573-3.022.012-.052.023-.1.034-.157,3.828-.969,6.419-3.971,9.35-6.4.048-.039,0-.121-.053-.082-2.887,2.242-5.6,4.8-9.168,5.889.309-1.433.631-2.863.955-4.29a20.426,20.426,0,0,0,8.652-6.135c.04-.047-.026-.114-.07-.068a26.383,26.383,0,0,1-8.443,5.59c.32-1.413.638-2.826.938-4.244a31.65,31.65,0,0,0,4.46-2.155,12.184,12.184,0,0,0,3.469-3.517.068.068,0,0,0-.115-.074c-1.938,2.786-4.86,3.653-7.684,5.119q.413-1.981.761-3.977c3.147-1.734,6.567-3.339,8.35-6.661.017-.032-.029-.064-.049-.032-1.889,3.051-5.192,4.365-8.19,6.026.039-.237.083-.474.12-.711.193-1.236.373-2.473.55-3.71a30.244,30.244,0,0,0,5.16-2.806,9.857,9.857,0,0,0,3.145-2.679.069.069,0,0,0-.113-.078c-1.688,2.417-5.384,3.816-8.115,5.025q.267-1.874.531-3.749c3.03-1.834,6.594-2.847,8.458-6.151a.088.088,0,0,0-.149-.092c-1.931,3.017-5.331,3.948-8.226,5.66q.166-1.161.341-2.322c3.271-1.2,7.075-3.941,8.8-6.9a.146.146,0,0,0-.246-.159,18.351,18.351,0,0,1-8.458,6.442c.194-1.252.395-2.5.618-3.754a.379.379,0,0,0,.049-.111,18.781,18.781,0,0,0,4.188-2.25,11.444,11.444,0,0,0,3.939-3.59c.105-.171-.173-.329-.272-.154-1.453,2.593-4.9,4.332-7.757,5.322.085-.455.166-.911.257-1.366q.2-1.02.412-2.039c1.169-.807,2.654-1.194,3.826-2.047a21.6,21.6,0,0,0,2.786-2.538c.087-.089-.042-.229-.134-.142a18.4,18.4,0,0,1-3.844,2.953c-.806.432-1.726.678-2.506,1.15.229-1.111.455-2.223.673-3.335l.042-.01.042.009a.205.205,0,0,0,.192-.059c1.59-.4,2.805-1.77,3.874-2.936a.029.029,0,0,0-.041-.042,10.611,10.611,0,0,1-3.9,2.628c-.006,0-.009,0-.016-.006l-.114-.018c.174-.905.339-1.813.49-2.722a.209.209,0,0,0,.189-.233,16.727,16.727,0,0,0,2.326-1.992.059.059,0,0,0-.079-.087,13.584,13.584,0,0,1-2.325,1.64,56.161,56.161,0,0,0,.632-5.675c.01-.177-.257-.178-.273,0-.166,1.837-.433,3.655-.749,5.465a16.9,16.9,0,0,1-2.388-3.652c-.028-.068-.136-.04-.113.033a10.513,10.513,0,0,0,1.162,2.261,13.958,13.958,0,0,0,1.231,1.985q-.264,1.459-.567,2.908a5.366,5.366,0,0,1-2.924-1.145,5.309,5.309,0,0,1-1.8-3.654c-.014-.175-.29-.174-.273,0a6.047,6.047,0,0,0,1.555,3.559,5.686,5.686,0,0,0,3.356,1.636q-.351,1.677-.721,3.35a26.139,26.139,0,0,1-2.74-2.035,37.311,37.311,0,0,1-3.462-3.737c-.123-.126-.323.056-.2.185a39.241,39.241,0,0,0,3.224,3.631,18.559,18.559,0,0,0,3.092,2.357c-.013.059-.025.118-.039.177-.012.012-.025.02-.037.031a.18.18,0,0,0-.024.25c-.235,1.069-.471,2.137-.7,3.208-.015.067-.026.134-.041.2-2.49-1.141-6.214-3.121-6.543-6.011a.194.194,0,1,0-.378.083c.737,3.27,4.331,4.72,6.808,6.5q-.366,1.816-.674,3.642a14.743,14.743,0,0,1-4.49-2.312c-1.228-.977-2.966-2.156-3.519-3.669-.017-.048-.088-.017-.072.03.512,1.505,2.071,2.539,3.206,3.566a12.01,12.01,0,0,0,4.764,2.93.34.34,0,0,0,0,.162q-.19,1.157-.368,2.317c-3.025-.232-7.258-2.529-8.8-4.818-.007-.011-.021,0-.016.012a9.916,9.916,0,0,0,4.446,3.652,12.284,12.284,0,0,0,4.312,1.557c-.217,1.431-.427,2.865-.641,4.3-1.312-.489-2.7-.723-4-1.244a9.909,9.909,0,0,1-4.542-3.868c-.069-.1-.24-.016-.173.091,2.095,3.33,5.108,4.307,8.637,5.553q-.264,1.762-.553,3.521c-2.889-.553-6.625-2.316-8.087-4.825-.107-.185-.4-.031-.294.155a9.367,9.367,0,0,0,4.138,3.443,12.689,12.689,0,0,0,4.17,1.674c-.007.039-.012.077-.018.116-.286,1.687-.62,3.366-.979,5.038-3.227-.81-5.313-3.2-7.659-5.439-.162-.156-.417.082-.256.241,2.39,2.351,4.489,4.819,7.808,5.689q-.448,2.042-.943,4.073a14.915,14.915,0,0,1-7.246-4.959c-.126-.159-.348.056-.229.214a16.046,16.046,0,0,0,7.348,5.27q-.535,2.181-1.1,4.353a10.7,10.7,0,0,1-6.737-4.431c-.041-.053-.132.017-.093.07,1.545,2.15,3.882,4.632,6.694,4.892l-.359,1.387q-.108.419-.224.848a16.053,16.053,0,0,1-5.863-2.826c-.049-.041-.105.036-.059.078a15.322,15.322,0,0,0,5.806,3.174c-.237.87-.488,1.765-.735,2.676a11.953,11.953,0,0,0-1.616-.688,11.578,11.578,0,0,1-2.667-1.542c-.085-.051-.18.069-.094.124a12.1,12.1,0,0,0,2.3,1.555c.684.258,1.327.586,1.989.879-.97,3.617-1.829,7.462-1.363,10.934.1.77,1.4.974,1.595.156a61.957,61.957,0,0,0,.868-7.778" transform="translate(-11.074 -6.156)" fill="#4f64ab"/>
            <path id="Trazado_203264" data-name="Trazado 203264" d="M386.377,254.124c1.9,8.044,8.18,20.332-.608,26.833-2.366,1.75-5.735,1.114-8.222-.256-3.255-1.791-6.409-7.322-7.906-10.629-1.186-2.621-1.651-5.942-2.59-8.706-1.013-2.985-2.088-5.95-3.078-8.944-3.57-10.789-2.217-21.854,4.447-31.172,2.264,3.033,5.183,5.133,8.091,7.7a37,37,0,0,1,3.761,3.8c2.01,2.384,2.4,5.559,2.951,8.481.818,4.32,2.137,8.607,3.152,12.889" transform="translate(-9.989 -6.104)" fill="#ffbc19"/>
            <path id="Trazado_203265" data-name="Trazado 203265" d="M384.292,282.09q-.328-.971-.634-1.952a8.723,8.723,0,0,0,2.8-2.723,19.62,19.62,0,0,0,2.769-5.515c.038-.1-.135-.164-.182-.065a21.793,21.793,0,0,1-2.91,4.91,13.318,13.318,0,0,1-2.681,2.718c-.241-.782-.469-1.568-.688-2.356a10.2,10.2,0,0,0,2.618-3.1,42.047,42.047,0,0,0,3.082-5.878.019.019,0,1,0-.034-.018c-1.569,2.826-3.069,6.506-5.818,8.439-.268-.99-.525-1.984-.758-2.981l-.035-.156c3.063-2.494,4.142-6.31,5.776-9.747.026-.055-.054-.108-.084-.052-1.67,3.251-3.049,6.715-5.826,9.208q-.486-2.144-.944-4.292a20.45,20.45,0,0,0,5.254-9.213c.017-.06-.072-.092-.092-.033a26.356,26.356,0,0,1-5.295,8.632c-.306-1.417-.614-2.832-.939-4.244a31.722,31.722,0,0,0,3.132-3.835,12.2,12.2,0,0,0,1.662-4.653.069.069,0,0,0-.137-.018c-.58,3.344-2.863,5.364-4.8,7.884-.309-1.314-.636-2.624-.989-3.928,2.122-2.9,4.544-5.8,4.758-9.563,0-.037-.052-.047-.057-.009-.424,3.564-2.864,6.149-4.88,8.92-.066-.232-.126-.465-.194-.7q-.519-1.8-1.067-3.595a30.11,30.11,0,0,0,3.494-4.722,9.829,9.829,0,0,0,1.72-3.755.069.069,0,0,0-.135-.023c-.509,2.9-3.27,5.732-5.235,7.982q-.548-1.812-1.1-3.623c1.973-2.941,4.776-5.364,5.073-9.147a.088.088,0,0,0-.175-.02c-.477,3.55-3.167,5.829-5.068,8.6-.226-.749-.451-1.5-.67-2.248,2.456-2.472,4.749-6.56,5.066-9.969a.147.147,0,0,0-.291-.039,18.36,18.36,0,0,1-4.948,9.41q-.532-1.828-1.025-3.664a.342.342,0,0,0,0-.122,18.744,18.744,0,0,0,2.847-3.808,11.471,11.471,0,0,0,2.057-4.917.157.157,0,0,0-.312-.024c-.223,2.964-2.616,6-4.785,8.1-.117-.449-.234-.9-.345-1.348-.165-.673-.325-1.348-.487-2.023.721-1.225,1.9-2.2,2.606-3.471a21.644,21.644,0,0,0,1.455-3.476.1.1,0,0,0-.183-.072,18.394,18.394,0,0,1-2.238,4.3c-.547.731-1.277,1.343-1.786,2.1q-.391-1.656-.8-3.308c.012-.008.021-.018.033-.025l.042-.011a.21.21,0,0,0,.15-.134c1.271-1.035,1.8-2.789,2.273-4.3.01-.036-.042-.056-.054-.02a10.633,10.633,0,0,1-2.422,4.027c-.008,0-.013,0-.018,0l-.112.032q-.335-1.343-.7-2.676a.207.207,0,0,0,.072-.291,16.626,16.626,0,0,0,1.269-2.788.059.059,0,0,0-.109-.045,13.668,13.668,0,0,1-1.414,2.469,56.6,56.6,0,0,0-1.822-5.412c-.067-.164-.31-.053-.251.112.624,1.735,1.149,3.5,1.629,5.27a16.9,16.9,0,0,1-3.708-2.3c-.054-.05-.14.02-.089.077a10.424,10.424,0,0,0,2.008,1.559,13.834,13.834,0,0,0,1.954,1.281c.251.956.486,1.915.713,2.876a4.99,4.99,0,0,1-6.3-2.358c-.085-.154-.335-.036-.248.116a6.054,6.054,0,0,0,2.912,2.57,5.689,5.689,0,0,0,3.732.067q.389,1.667.761,3.34a26.018,26.018,0,0,1-3.344-.689,37.342,37.342,0,0,1-4.715-1.926.137.137,0,0,0-.105.253,39.564,39.564,0,0,0,4.456,1.931,18.494,18.494,0,0,0,3.8.831c.014.059.026.118.041.177a.468.468,0,0,0-.02.045.179.179,0,0,0,.082.236c.238,1.068.476,2.135.723,3.2l.05.2c-2.74.019-6.952-.207-8.47-2.688-.144-.236-.483.007-.307.234,2.047,2.655,5.918,2.451,8.916,3.023q.433,1.8.927,3.586a14.753,14.753,0,0,1-5.047-.2c-1.526-.368-3.6-.7-4.74-1.841-.035-.036-.086.022-.052.058,1.1,1.147,2.948,1.427,4.41,1.879a12.006,12.006,0,0,0,5.556.646.335.335,0,0,0,.064.149q.317,1.13.646,2.257c-2.842,1.066-7.649.77-10.015-.652-.012-.007-.019.01-.011.017a9.939,9.939,0,0,0,5.573,1.434,12.268,12.268,0,0,0,4.565-.408c.407,1.39.822,2.777,1.232,4.166-1.4.11-2.755.484-4.152.561a9.914,9.914,0,0,1-5.751-1.589c-.106-.064-.224.087-.119.156,3.306,2.134,6.448,1.748,10.174,1.389q.506,1.711.984,3.427c-2.851.717-6.984.7-9.367-.963-.174-.121-.375.141-.2.265a9.368,9.368,0,0,0,5.2,1.376,12.7,12.7,0,0,0,4.487-.243c.011.038.022.076.032.113.453,1.65.859,3.313,1.24,4.982-3.268.626-6.169-.66-9.24-1.7-.212-.073-.344.25-.13.326,3.159,1.124,6.1,2.475,9.48,1.862.305,1.359.59,2.724.863,4.091a14.905,14.905,0,0,1-8.661-1.438c-.183-.09-.292.2-.116.291a16.044,16.044,0,0,0,8.885,1.677c.29,1.468.567,2.939.84,4.41a10.7,10.7,0,0,1-7.978-1.175c-.058-.03-.113.07-.054.1,2.307,1.3,5.474,2.56,8.132,1.61q.131.7.261,1.408c.052.284.1.572.154.863a16.026,16.026,0,0,1-6.505-.089c-.062-.016-.081.078-.021.1a15.288,15.288,0,0,0,6.6.428c.152.889.3,1.806.464,2.736a11.976,11.976,0,0,0-1.756.058,11.575,11.575,0,0,1-3.068-.273c-.1-.01-.134.138-.034.153a12.122,12.122,0,0,0,2.742.44c.729-.055,1.451-.03,2.174-.043.647,3.688,1.491,7.536,3.379,10.487.419.654,1.676.295,1.51-.533a61.941,61.941,0,0,0-2.494-7.418" transform="translate(-10.039 -6.225)" fill="#d89718"/>
            <path id="Trazado_203266" data-name="Trazado 203266" d="M405.382,247.393c.452,10.22,5.236,26.612-6.951,32.48-3.283,1.579-7.231.026-9.937-2.215-3.541-2.931-6.1-10.386-7.149-14.752-.836-3.46-.631-7.606-1.133-11.184-.541-3.863-1.16-7.717-1.671-11.585-1.842-13.942,2.365-27.082,12.624-36.866,2.05,4.211,5.112,7.44,8.053,11.239A45.614,45.614,0,0,1,402.91,220c1.891,3.365,1.63,7.313,1.625,10.993-.006,5.443.606,10.958.847,16.4" transform="translate(-10.432 -5.608)" fill="#4ab7ce"/>
            <path id="Trazado_203267" data-name="Trazado 203267" d="M396.405,280.9q-.172-1.257-.318-2.52a10.8,10.8,0,0,0,4.033-2.661,24.3,24.3,0,0,0,4.642-6.063c.07-.119-.127-.232-.206-.122a26.959,26.959,0,0,1-4.674,5.3,16.429,16.429,0,0,1-3.89,2.683q-.166-1.51-.29-3.023c1.549-.6,2.748-2.02,3.9-3.165a52.177,52.177,0,0,0,5.11-6.434.024.024,0,0,0-.038-.029c-2.562,3.072-5.238,7.2-9.028,8.912-.1-1.267-.18-2.533-.23-3.8,0-.066,0-.132-.007-.2,4.3-2.323,6.5-6.711,9.279-10.512.045-.061-.041-.144-.089-.082-2.785,3.565-5.264,7.458-9.216,9.845-.063-1.814-.11-3.626-.155-5.438a25.271,25.271,0,0,0,8.52-9.983.06.06,0,0,0-.1-.06c-2.216,3.889-5.073,6.523-8.436,9.267-.044-1.793-.091-3.584-.16-5.376,1.575-1.339,3.331-2.354,4.7-3.936a15.1,15.1,0,0,0,3.1-5.273.085.085,0,0,0-.16-.053c-1.48,3.931-4.724,5.858-7.667,8.472-.071-1.668-.164-3.335-.293-5,3.251-3.034,6.867-6,8-10.522.011-.045-.054-.07-.069-.024-1.342,4.233-4.906,6.811-8,9.713-.024-.3-.044-.593-.072-.891-.143-1.54-.3-3.08-.465-4.618a37.34,37.34,0,0,0,5.34-4.931,12.177,12.177,0,0,0,2.961-4.168.085.085,0,0,0-.158-.059c-1.292,3.413-5.3,6.211-8.212,8.491q-.249-2.331-.5-4.66c3.079-3.119,7.048-5.415,8.283-9.945a.109.109,0,0,0-.207-.066c-1.4,4.206-5.2,6.354-8.154,9.286q-.152-1.444-.294-2.889c3.56-2.435,7.294-6.874,8.468-10.945a.182.182,0,0,0-.344-.115,22.721,22.721,0,0,1-8.195,10.294c-.148-1.563-.285-3.125-.4-4.692a.422.422,0,0,0,.025-.148,23.219,23.219,0,0,0,4.344-3.969,14.177,14.177,0,0,0,3.638-5.5.194.194,0,0,0-.373-.1c-.957,3.552-4.568,6.683-7.694,8.737-.037-.572-.077-1.144-.106-1.716q-.067-1.286-.123-2.573c1.158-1.322,2.821-2.237,3.97-3.615a26.856,26.856,0,0,0,2.573-3.89.121.121,0,0,0-.2-.13,22.718,22.718,0,0,1-3.717,4.708c-.836.762-1.865,1.337-2.659,2.141-.062-1.4-.126-2.805-.2-4.207l.047-.023.053,0a.254.254,0,0,0,.212-.129c1.785-.963,2.83-2.975,3.757-4.7a.036.036,0,0,0-.061-.038,13.142,13.142,0,0,1-3.877,4.335c-.008,0-.014,0-.021,0l-.143.013q-.1-1.71-.236-3.415a.257.257,0,0,0,.156-.336,20.714,20.714,0,0,0,2.187-3.1.073.073,0,0,0-.122-.08,16.81,16.81,0,0,1-2.291,2.673,69.664,69.664,0,0,0-.963-7c-.042-.215-.363-.136-.329.078.357,2.253.588,4.516.758,6.783a20.9,20.9,0,0,1-3.972-3.657c-.054-.073-.176-.008-.125.074a12.924,12.924,0,0,0,2.079,2.359,17.12,17.12,0,0,0,2.079,2.009c.084,1.219.148,2.44.2,3.662a6.638,6.638,0,0,1-3.855-.488,6.563,6.563,0,0,1-3.263-3.839c-.069-.205-.4-.121-.328.085a7.486,7.486,0,0,0,2.945,3.8,7.042,7.042,0,0,0,4.523.946q.087,2.116.151,4.236a32.173,32.173,0,0,1-3.9-1.61c-2.03-.92-3.437-2.288-5.287-3.434a.169.169,0,0,0-.186.283c1.744,1.113,3.072,2.461,4.968,3.378a22.879,22.879,0,0,0,4.425,1.891c0,.075,0,.15.007.224-.011.018-.024.032-.035.05a.221.221,0,0,0,.046.306c.042,1.354.084,2.707.138,4.06,0,.085.01.169.014.254-3.334-.613-8.4-1.861-9.674-5.229a.241.241,0,1,0-.429.214c1.876,3.7,6.628,4.35,10.14,5.739q.111,2.29.3,4.574a18.261,18.261,0,0,1-6.087-1.414c-1.771-.8-4.213-1.687-5.336-3.335-.036-.052-.111.007-.077.058,1.071,1.65,3.255,2.418,4.927,3.305a14.847,14.847,0,0,0,6.6,2.071.4.4,0,0,0,.044.2q.122,1.447.262,2.893c-3.7.638-9.476-.835-12.025-3.112-.012-.011-.026.008-.015.018A12.282,12.282,0,0,0,387,239.3a15.188,15.188,0,0,0,5.646.561c.173,1.783.356,3.566.534,5.349-1.723-.189-3.463-.049-5.179-.279a12.261,12.261,0,0,1-6.622-3.263c-.114-.1-.294.053-.18.162,3.523,3.36,7.434,3.618,12.047,4.044q.216,2.2.4,4.392c-3.634.212-8.652-.77-11.165-3.338-.185-.189-.49.085-.305.275a11.592,11.592,0,0,0,6.008,2.877c1.581.354,3.809,1.04,5.512.744l.012.144c.169,2.111.278,4.226.353,6.342-4.117.006-7.346-2.231-10.838-4.2-.243-.137-.476.225-.234.367,3.58,2.1,6.847,4.422,11.093,4.458q.083,2.586.1,5.174a18.458,18.458,0,0,1-10.2-3.754c-.2-.153-.4.173-.208.326a19.851,19.851,0,0,0,10.414,4.1c.013,1.851.01,3.7,0,5.555-3.518.34-6.664-1.121-9.428-3.274-.064-.051-.154.058-.09.112,2.5,2.111,6.062,4.381,9.515,3.84q0,.887-.01,1.773c0,.357-.006.72-.012,1.085a19.87,19.87,0,0,1-7.891-1.613c-.071-.034-.115.075-.047.111a18.922,18.922,0,0,0,7.928,2.048c-.021,1.116-.051,2.266-.07,3.435a14.677,14.677,0,0,0-2.149-.335,14.412,14.412,0,0,1-3.667-1.042c-.117-.036-.2.137-.076.178a15.015,15.015,0,0,0,3.232,1.168c.9.1,1.772.3,2.653.451-.068,4.635.068,9.508,1.68,13.533.357.893,1.969.746,1.96-.3-.028-3.205-.881-6.423-1.317-9.6" transform="translate(-10.499 -5.758)" fill="#122654"/>
            <path id="Trazado_203268" data-name="Trazado 203268" d="M412.125,286.886l-.451,8.307-.706,12.936-1.157,21.254H381.036l-1.157-21.254-.706-12.936-.451-8.307Z" transform="translate(-10.448 -7.915)" fill="#8299a7"/>
            <path id="Trazado_203269" data-name="Trazado 203269" d="M411.687,295.429l-.092,1.666-.092,1.724-.521,9.546H379.892l-.521-9.546-.092-1.724-.092-1.666Z" transform="translate(-10.461 -8.151)" fill="#93a9bb"/>
            <path id="Trazado_203270" data-name="Trazado 203270" d="M411.6,297.142l-.092,1.724H379.373l-.092-1.724Z" transform="translate(-10.464 -8.198)" fill="#8299a7"/>
          </g>
        </g>
      </g>
    </g>
  </g>
</svg>
