<svg xmlns="http://www.w3.org/2000/svg" xmlns:xlink="http://www.w3.org/1999/xlink" width="295" height="126.953" viewBox="0 0 295 126.953">
  <defs>
    <clipPath id="clip-path">
      <rect id="Rectángulo_296411" data-name="Rectángulo 296411" width="295" height="126.952" fill="none"/>
    </clipPath>
  </defs>
  <g id="Grupo_147927" data-name="Grupo 147927" transform="translate(0 0)">
    <path id="Trazado_206852" data-name="Trazado 206852" d="M175.785,80.648H110.31V78.921h63.748V56.415h1.727Z" transform="translate(80.193 41.013)" fill="#ffbc19"/>
    <path id="Trazado_206853" data-name="Trazado 206853" d="M116.716,67.4,112.322,71.8l4.393,4.392h-3.729L108.6,71.8l4.392-4.392Z" transform="translate(78.947 49.002)" fill="#ffbc19"/>
    <path id="Trazado_206854" data-name="Trazado 206854" d="M239.552,26.134h-1.727V5.046H24.323V25.033H22.6V3.319H239.552Z" transform="translate(16.427 2.413)" fill="#ffbc19"/>
    <path id="Trazado_206855" data-name="Trazado 206855" d="M29.336,12.9,24.944,17.3,20.553,12.9v3.729l4.392,4.392,4.392-4.392Z" transform="translate(14.941 9.381)" fill="#ffbc19"/>
    <path id="Trazado_206856" data-name="Trazado 206856" d="M145.18,13.542l4.392,4.393,4.392-4.393v3.729l-4.392,4.392-4.392-4.392Z" transform="translate(105.544 9.845)" fill="#ffbc19"/>
    <path id="Trazado_206857" data-name="Trazado 206857" d="M86.8,80.555H22.6V56.543h1.727V78.828H86.8Z" transform="translate(16.427 41.106)" fill="#ffbc19"/>
    <path id="Trazado_206858" data-name="Trazado 206858" d="M56.787,67.4,61.18,71.8l-4.393,4.392h3.729L64.907,71.8,60.515,67.4Z" transform="translate(41.283 49.002)" fill="#ffbc19"/>
    <path id="Trazado_207568" data-name="Trazado 207568" d="M0,0H61.729V12.567H0Z" transform="translate(113.245 0.863)" fill="#fff"/>
    <path id="Trazado_206859" data-name="Trazado 206859" d="M66.8,1.729h60V12.567h-60ZM65.075,14.293h63.456V0H65.075Z" transform="translate(47.309 0)" fill="#ffbc19"/>
    <rect id="Rectángulo_296402" data-name="Rectángulo 296402" width="61.729" height="12.567" transform="translate(113.245 113.521)" fill="#fff"/>
    <path id="Trazado_206860" data-name="Trazado 206860" d="M66.8,66.96h60V77.8h-60ZM65.075,79.527h63.456V65.235H65.075Z" transform="translate(47.309 47.425)" fill="#ffbc19"/>
    <rect id="Rectángulo_296403" data-name="Rectángulo 296403" width="1.727" height="13.519" transform="translate(146.333 16.738)" fill="#ffbc19"/>
    <path id="Trazado_206861" data-name="Trazado 206861" d="M82.69,14.532l4.392,4.393,4.392-4.393V18.26l-4.392,4.392L82.69,18.26Z" transform="translate(60.115 10.565)" fill="#ffbc19"/>
    <rect id="Rectángulo_296404" data-name="Rectángulo 296404" width="1.727" height="13.519" transform="translate(146.333 93.461)" fill="#ffbc19"/>
    <path id="Trazado_206862" data-name="Trazado 206862" d="M82.69,58.957l4.392,4.393,4.392-4.393v3.729l-4.392,4.392L82.69,62.686Z" transform="translate(60.115 42.861)" fill="#ffbc19"/>
    <path id="Trazado_206863" data-name="Trazado 206863" d="M118.563,69.906,106.486,48.384,85.054,24.645l1.281-1.157,21.608,23.965L120.067,69.06Z" transform="translate(61.833 17.076)" fill="#ffbc19"/>
    <path id="Trazado_206864" data-name="Trazado 206864" d="M67.026,70.608l-1.5-.846L77.759,48l23-25.476V48.578H99.03V27.013L79.1,49.086Z" transform="translate(47.633 16.374)" fill="#ffbc19"/>
    <rect id="Rectángulo_296405" data-name="Rectángulo 296405" width="1.728" height="24.354" transform="translate(125.283 65.383) rotate(-29.859)" fill="#ffbc19"/>
    <rect id="Rectángulo_296406" data-name="Rectángulo 296406" width="24.69" height="1.726" transform="translate(155.495 85.625) rotate(-58.791)" fill="#ffbc19"/>
    <g id="Grupo_147926" data-name="Grupo 147926" transform="translate(0 0)">
      <g id="Grupo_147925" data-name="Grupo 147925" clip-path="url(#clip-path)">
        <path id="Trazado_206865" data-name="Trazado 206865" d="M112.1,52.255a5.07,5.07,0,1,1-5.07-5.07,5.07,5.07,0,0,1,5.07,5.07" transform="translate(74.121 34.303)" fill="#fff"/>
        <path id="Trazado_206866" data-name="Trazado 206866" d="M107.391,58.552a5.934,5.934,0,1,1,5.936-5.932,5.939,5.939,0,0,1-5.936,5.932m0-10.141A4.207,4.207,0,1,0,111.6,52.62a4.213,4.213,0,0,0-4.209-4.209" transform="translate(73.758 33.939)" fill="#ffbc19"/>
        <path id="Trazado_206867" data-name="Trazado 206867" d="M97.673,52.255a5.07,5.07,0,1,1-5.07-5.07,5.07,5.07,0,0,1,5.07,5.07" transform="translate(63.634 34.303)" fill="#fff"/>
        <path id="Trazado_206868" data-name="Trazado 206868" d="M92.967,58.552A5.934,5.934,0,1,1,98.9,52.62a5.941,5.941,0,0,1-5.934,5.932m0-10.141a4.207,4.207,0,1,0,4.207,4.209,4.213,4.213,0,0,0-4.207-4.209" transform="translate(63.27 33.939)" fill="#ffbc19"/>
        <path id="Trazado_206869" data-name="Trazado 206869" d="M105.077,39.744a5.07,5.07,0,1,1-5.07-5.07,5.07,5.07,0,0,1,5.07,5.07" transform="translate(69.017 25.208)" fill="#fff"/>
        <path id="Trazado_206870" data-name="Trazado 206870" d="M100.371,46.044A5.935,5.935,0,1,1,106.3,40.11a5.942,5.942,0,0,1-5.934,5.934m0-10.143a4.208,4.208,0,1,0,4.207,4.209,4.213,4.213,0,0,0-4.207-4.209" transform="translate(68.653 24.845)" fill="#ffbc19"/>
        <path id="Trazado_206871" data-name="Trazado 206871" d="M92.63,39.744a5.07,5.07,0,1,1-5.07-5.07,5.07,5.07,0,0,1,5.07,5.07" transform="translate(59.968 25.208)" fill="#fff"/>
        <path id="Trazado_206872" data-name="Trazado 206872" d="M87.923,46.044a5.935,5.935,0,1,1,5.936-5.934,5.941,5.941,0,0,1-5.936,5.934m0-10.143a4.208,4.208,0,1,0,4.209,4.209A4.213,4.213,0,0,0,87.923,35.9" transform="translate(59.605 24.845)" fill="#ffbc19"/>
        <path id="Trazado_206873" data-name="Trazado 206873" d="M92.63,25.957a5.07,5.07,0,1,1-5.07-5.07,5.07,5.07,0,0,1,5.07,5.07" transform="translate(59.968 15.185)" fill="#fff"/>
        <path id="Trazado_206874" data-name="Trazado 206874" d="M87.923,32.255a5.934,5.934,0,1,1,5.936-5.932,5.939,5.939,0,0,1-5.936,5.932m0-10.141a4.207,4.207,0,1,0,4.209,4.209,4.213,4.213,0,0,0-4.209-4.209" transform="translate(59.605 14.822)" fill="#ffbc19"/>
        <path id="Trazado_206875" data-name="Trazado 206875" d="M87.2,52.255a5.07,5.07,0,1,1-5.07-5.07,5.07,5.07,0,0,1,5.07,5.07" transform="translate(56.024 34.303)" fill="#fff"/>
        <path id="Trazado_206876" data-name="Trazado 206876" d="M82.5,58.552a5.934,5.934,0,1,1,5.936-5.932A5.939,5.939,0,0,1,82.5,58.552m0-10.141a4.207,4.207,0,1,0,4.209,4.209A4.213,4.213,0,0,0,82.5,48.411" transform="translate(55.66 33.939)" fill="#ffbc19"/>
        <path id="Trazado_206877" data-name="Trazado 206877" d="M72.779,52.255a5.07,5.07,0,1,1-5.07-5.07,5.07,5.07,0,0,1,5.07,5.07" transform="translate(45.537 34.303)" fill="#fff"/>
        <path id="Trazado_206878" data-name="Trazado 206878" d="M68.073,58.552a5.934,5.934,0,1,1,5.934-5.932,5.941,5.941,0,0,1-5.934,5.932m0-10.141A4.207,4.207,0,1,0,72.28,52.62a4.213,4.213,0,0,0-4.207-4.209" transform="translate(45.173 33.939)" fill="#ffbc19"/>
        <path id="Trazado_206879" data-name="Trazado 206879" d="M80.183,39.744a5.07,5.07,0,1,1-5.07-5.07,5.07,5.07,0,0,1,5.07,5.07" transform="translate(50.919 25.208)" fill="#fff"/>
        <path id="Trazado_206880" data-name="Trazado 206880" d="M75.478,46.044a5.935,5.935,0,1,1,5.932-5.934,5.943,5.943,0,0,1-5.932,5.934m0-10.143a4.208,4.208,0,1,0,4.205,4.209A4.213,4.213,0,0,0,75.478,35.9" transform="translate(50.555 24.845)" fill="#ffbc19"/>
        <path id="Trazado_206881" data-name="Trazado 206881" d="M181.054,69.906,168.975,48.384,147.543,24.645l1.281-1.157,21.608,23.965L182.558,69.06Z" transform="translate(107.262 17.076)" fill="#ffbc19"/>
        <path id="Trazado_206882" data-name="Trazado 206882" d="M129.515,70.608l-1.5-.846L140.248,48l23-25.476V48.578h-1.727V27.013L141.594,49.086Z" transform="translate(93.062 16.375)" fill="#ffbc19"/>
        <rect id="Rectángulo_296407" data-name="Rectángulo 296407" width="1.727" height="24.355" transform="matrix(0.867, -0.498, 0.498, 0.867, 233.202, 65.383)" fill="#ffbc19"/>
        <rect id="Rectángulo_296408" data-name="Rectángulo 296408" width="24.69" height="1.726" transform="matrix(0.518, -0.855, 0.855, 0.518, 263.413, 85.625)" fill="#ffbc19"/>
        <path id="Trazado_206883" data-name="Trazado 206883" d="M174.588,52.255a5.07,5.07,0,1,1-5.07-5.07,5.07,5.07,0,0,1,5.07,5.07" transform="translate(119.55 34.303)" fill="#fff"/>
        <path id="Trazado_206884" data-name="Trazado 206884" d="M169.882,58.552a5.934,5.934,0,1,1,5.934-5.932,5.941,5.941,0,0,1-5.934,5.932m0-10.141a4.207,4.207,0,1,0,4.207,4.209,4.213,4.213,0,0,0-4.207-4.209" transform="translate(119.186 33.939)" fill="#ffbc19"/>
        <path id="Trazado_206885" data-name="Trazado 206885" d="M160.162,52.255a5.07,5.07,0,1,1-5.07-5.07,5.07,5.07,0,0,1,5.07,5.07" transform="translate(109.063 34.303)" fill="#fff"/>
        <path id="Trazado_206886" data-name="Trazado 206886" d="M155.456,58.552a5.934,5.934,0,1,1,5.934-5.932,5.941,5.941,0,0,1-5.934,5.932m0-10.141a4.207,4.207,0,1,0,4.207,4.209,4.213,4.213,0,0,0-4.207-4.209" transform="translate(108.699 33.939)" fill="#ffbc19"/>
        <path id="Trazado_206887" data-name="Trazado 206887" d="M167.566,39.744a5.07,5.07,0,1,1-5.07-5.07,5.07,5.07,0,0,1,5.07,5.07" transform="translate(114.446 25.208)" fill="#fff"/>
        <path id="Trazado_206888" data-name="Trazado 206888" d="M162.86,46.044a5.935,5.935,0,1,1,5.934-5.934,5.942,5.942,0,0,1-5.934,5.934m0-10.143a4.208,4.208,0,1,0,4.207,4.209A4.213,4.213,0,0,0,162.86,35.9" transform="translate(114.081 24.845)" fill="#ffbc19"/>
        <path id="Trazado_206889" data-name="Trazado 206889" d="M155.119,39.744a5.07,5.07,0,1,1-5.07-5.07,5.07,5.07,0,0,1,5.07,5.07" transform="translate(105.397 25.208)" fill="#fff"/>
        <path id="Trazado_206890" data-name="Trazado 206890" d="M150.412,46.044a5.935,5.935,0,1,1,5.936-5.934,5.941,5.941,0,0,1-5.936,5.934m0-10.143a4.208,4.208,0,1,0,4.209,4.209,4.213,4.213,0,0,0-4.209-4.209" transform="translate(105.033 24.845)" fill="#ffbc19"/>
        <path id="Trazado_206891" data-name="Trazado 206891" d="M155.119,25.957a5.07,5.07,0,1,1-5.07-5.07,5.07,5.07,0,0,1,5.07,5.07" transform="translate(105.397 15.185)" fill="#fff"/>
        <path id="Trazado_206892" data-name="Trazado 206892" d="M150.412,32.255a5.934,5.934,0,1,1,5.936-5.932,5.939,5.939,0,0,1-5.936,5.932m0-10.141a4.207,4.207,0,1,0,4.209,4.209,4.213,4.213,0,0,0-4.209-4.209" transform="translate(105.033 14.822)" fill="#ffbc19"/>
        <path id="Trazado_206893" data-name="Trazado 206893" d="M149.694,52.255a5.07,5.07,0,1,1-5.07-5.07,5.07,5.07,0,0,1,5.07,5.07" transform="translate(101.453 34.303)" fill="#fff"/>
        <path id="Trazado_206894" data-name="Trazado 206894" d="M144.988,58.552a5.934,5.934,0,1,1,5.934-5.932,5.941,5.941,0,0,1-5.934,5.932m0-10.141a4.207,4.207,0,1,0,4.207,4.209,4.213,4.213,0,0,0-4.207-4.209" transform="translate(101.089 33.939)" fill="#ffbc19"/>
        <path id="Trazado_206895" data-name="Trazado 206895" d="M135.268,52.255a5.07,5.07,0,1,1-5.07-5.07,5.07,5.07,0,0,1,5.07,5.07" transform="translate(90.965 34.303)" fill="#fff"/>
        <path id="Trazado_206896" data-name="Trazado 206896" d="M130.563,58.552a5.934,5.934,0,1,1,5.932-5.932,5.941,5.941,0,0,1-5.932,5.932m0-10.141a4.207,4.207,0,1,0,4.205,4.209,4.213,4.213,0,0,0-4.205-4.209" transform="translate(90.602 33.939)" fill="#ffbc19"/>
        <path id="Trazado_206897" data-name="Trazado 206897" d="M142.673,39.744a5.07,5.07,0,1,1-5.07-5.07,5.07,5.07,0,0,1,5.07,5.07" transform="translate(96.349 25.208)" fill="#fff"/>
        <path id="Trazado_206898" data-name="Trazado 206898" d="M137.967,46.044A5.935,5.935,0,1,1,143.9,40.11a5.942,5.942,0,0,1-5.934,5.934m0-10.143a4.208,4.208,0,1,0,4.207,4.209,4.213,4.213,0,0,0-4.207-4.209" transform="translate(95.985 24.845)" fill="#ffbc19"/>
        <path id="Trazado_206899" data-name="Trazado 206899" d="M56.423,69.906,44.348,48.384,22.916,24.645,24.2,23.488l21.61,23.965L57.931,69.06Z" transform="translate(16.66 17.076)" fill="#ffbc19"/>
        <path id="Trazado_206900" data-name="Trazado 206900" d="M4.888,70.608l-1.5-.846L15.621,48l23-25.476V48.578H36.893V27.013L16.967,49.086Z" transform="translate(2.46 16.375)" fill="#ffbc19"/>
        <rect id="Rectángulo_296409" data-name="Rectángulo 296409" width="1.728" height="24.354" transform="translate(17.972 65.383) rotate(-29.859)" fill="#ffbc19"/>
        <rect id="Rectángulo_296410" data-name="Rectángulo 296410" width="24.69" height="1.726" transform="translate(48.184 85.625) rotate(-58.791)" fill="#ffbc19"/>
        <path id="Trazado_206901" data-name="Trazado 206901" d="M49.962,52.255a5.071,5.071,0,1,1-5.07-5.07,5.072,5.072,0,0,1,5.07,5.07" transform="translate(28.948 34.303)" fill="#fff"/>
        <path id="Trazado_206902" data-name="Trazado 206902" d="M45.253,58.552a5.934,5.934,0,1,1,5.936-5.932,5.939,5.939,0,0,1-5.936,5.932m0-10.141a4.207,4.207,0,1,0,4.209,4.209,4.213,4.213,0,0,0-4.209-4.209" transform="translate(28.584 33.939)" fill="#ffbc19"/>
        <path id="Trazado_206903" data-name="Trazado 206903" d="M35.535,52.255a5.07,5.07,0,1,1-5.07-5.07,5.07,5.07,0,0,1,5.07,5.07" transform="translate(18.461 34.303)" fill="#fff"/>
        <path id="Trazado_206904" data-name="Trazado 206904" d="M30.829,58.552a5.934,5.934,0,1,1,5.934-5.932,5.941,5.941,0,0,1-5.934,5.932m0-10.141a4.207,4.207,0,1,0,4.207,4.209,4.213,4.213,0,0,0-4.207-4.209" transform="translate(18.097 33.939)" fill="#ffbc19"/>
        <path id="Trazado_206905" data-name="Trazado 206905" d="M42.939,39.744a5.07,5.07,0,1,1-5.07-5.07,5.07,5.07,0,0,1,5.07,5.07" transform="translate(23.844 25.208)" fill="#fff"/>
        <path id="Trazado_206906" data-name="Trazado 206906" d="M38.233,46.044a5.935,5.935,0,1,1,5.934-5.934,5.942,5.942,0,0,1-5.934,5.934m0-10.143A4.208,4.208,0,1,0,42.44,40.11,4.213,4.213,0,0,0,38.233,35.9" transform="translate(23.479 24.845)" fill="#ffbc19"/>
        <path id="Trazado_206907" data-name="Trazado 206907" d="M30.492,39.744a5.07,5.07,0,1,1-5.07-5.07,5.07,5.07,0,0,1,5.07,5.07" transform="translate(14.795 25.208)" fill="#fff"/>
        <path id="Trazado_206908" data-name="Trazado 206908" d="M25.786,46.044a5.935,5.935,0,1,1,5.936-5.934,5.942,5.942,0,0,1-5.936,5.934m0-10.143a4.208,4.208,0,1,0,4.209,4.209A4.213,4.213,0,0,0,25.786,35.9" transform="translate(14.431 24.845)" fill="#ffbc19"/>
        <path id="Trazado_206909" data-name="Trazado 206909" d="M30.492,25.957a5.07,5.07,0,1,1-5.07-5.07,5.07,5.07,0,0,1,5.07,5.07" transform="translate(14.795 15.185)" fill="#fff"/>
        <path id="Trazado_206910" data-name="Trazado 206910" d="M25.786,32.255a5.934,5.934,0,1,1,5.936-5.932,5.941,5.941,0,0,1-5.936,5.932m0-10.141a4.207,4.207,0,1,0,4.209,4.209,4.213,4.213,0,0,0-4.209-4.209" transform="translate(14.431 14.822)" fill="#ffbc19"/>
        <path id="Trazado_206911" data-name="Trazado 206911" d="M25.067,52.255A5.07,5.07,0,1,1,20,47.185a5.07,5.07,0,0,1,5.07,5.07" transform="translate(10.851 34.303)" fill="#fff"/>
        <path id="Trazado_206912" data-name="Trazado 206912" d="M20.359,58.552a5.934,5.934,0,1,1,5.936-5.932,5.939,5.939,0,0,1-5.936,5.932m0-10.141a4.207,4.207,0,1,0,4.209,4.209,4.213,4.213,0,0,0-4.209-4.209" transform="translate(10.487 33.939)" fill="#ffbc19"/>
        <path id="Trazado_206913" data-name="Trazado 206913" d="M10.641,52.255a5.07,5.07,0,1,1-5.07-5.07,5.07,5.07,0,0,1,5.07,5.07" transform="translate(0.363 34.303)" fill="#fff"/>
        <path id="Trazado_206914" data-name="Trazado 206914" d="M5.936,58.552a5.934,5.934,0,1,1,5.932-5.932,5.941,5.941,0,0,1-5.932,5.932m0-10.141a4.207,4.207,0,1,0,4.205,4.209,4.212,4.212,0,0,0-4.205-4.209" transform="translate(0 33.939)" fill="#ffbc19"/>
        <path id="Trazado_206915" data-name="Trazado 206915" d="M18.046,39.744a5.07,5.07,0,1,1-5.07-5.07,5.07,5.07,0,0,1,5.07,5.07" transform="translate(5.747 25.208)" fill="#fff"/>
        <path id="Trazado_206916" data-name="Trazado 206916" d="M13.34,46.044a5.935,5.935,0,1,1,5.934-5.934,5.942,5.942,0,0,1-5.934,5.934m0-10.143a4.208,4.208,0,1,0,4.207,4.209A4.213,4.213,0,0,0,13.34,35.9" transform="translate(5.383 24.845)" fill="#ffbc19"/>
      </g>
    </g>
  </g>
</svg>
