<svg xmlns="http://www.w3.org/2000/svg" xmlns:xlink="http://www.w3.org/1999/xlink" width="190" height="134" viewBox="0 0 190 134">
  <defs>
    <clipPath id="clip-path">
      <rect id="Rectángulo_296393" data-name="Rectángulo 296393" width="124.519" height="133.729" fill="none"/>
    </clipPath>
  </defs>
  <g id="Grupo_172740" data-name="Grupo 172740" transform="translate(-285 -9901)">
    <rect id="Rectángulo_296744" data-name="Rectángulo 296744" width="190" height="134" transform="translate(285 9901)" fill="none"/>
    <g id="Grupo_172739" data-name="Grupo 172739" transform="translate(318 9901.001)">
      <g id="Grupo_147910" data-name="Grupo 147910" transform="translate(0 -0.001)" clip-path="url(#clip-path)">
        <path id="Trazado_206835" data-name="Trazado 206835" d="M62.254,25.293q10.031,0,20.061,0c2.117,0,2.97-.83,2.971-2.9q0-9.742,0-19.485C85.283.825,84.444,0,82.326,0Q62.266,0,42.2,0c-2.165,0-2.971.819-2.972,3.012q0,9.569,0,19.139c0,2.39.761,3.141,3.193,3.141q9.915,0,19.83,0m.091,4.7q-10.145,0-20.291,0c-1.948,0-2.817.87-2.819,2.815q-.011,9.8,0,19.6c0,2.023.859,2.873,2.881,2.874q20.061,0,40.121,0c2.257,0,3.052-.795,3.053-3.05q.005-9.627,0-19.254c0-2.182-.809-2.986-2.994-2.987q-9.973,0-19.945,0M60,94.587h-22.3q-10.669,0-21.337.005a2.237,2.237,0,0,0-2.5,2.483c-.012,2.076,0,4.152,0,6.228,0,.154-.006.308.008.461a2.363,2.363,0,0,0,2.206,2.259,2.316,2.316,0,0,0,2.3-2.277c.054-1.518.013-3.039.013-4.532H59.886a1.716,1.716,0,0,1,.085.316c.01,1.23.014,2.46.024,3.69.014,1.686.9,2.79,2.245,2.8s2.268-1.108,2.28-2.77c.009-1.334,0-2.668,0-4.068h41.442c.067.132.128.2.129.264.018,1.306.024,2.613.044,3.919a2.4,2.4,0,0,0,2.277,2.655c1.306-.011,2.234-1.106,2.246-2.687.013-1.884,0-3.768,0-5.651,0-2.425-.657-3.1-3.041-3.1l-41.636,0H64.708c-.1-.218-.149-.286-.15-.354-.015-1.268-.022-2.536-.034-3.8-.016-1.646-.962-2.771-2.306-2.746C60.914,87.7,60.01,88.8,60,90.387c-.011,1.339,0,2.679,0,4.2M90.943,74.006l.1-.265h1.215c7.611,0,15.223.013,22.834-.007,3.957-.01,7.04-2.816,7.08-6.557.065-6.073.077-12.148,0-18.221a7.215,7.215,0,0,0-7.354-7.165q-10.956-.014-21.912,0c-1.816,0-2.912.85-2.908,2.233,0,1.367,1.129,2.241,2.9,2.256.192,0,.384,0,.577,0l20.759,0c2.508,0,3.427.925,3.428,3.484q.006,8.3,0,16.607c0,2.132-.689,2.833-2.811,2.834q-11.129.006-22.258,0c-.4,0-.8-.033-1.212-.051.04-.217.028-.314.07-.356q1.491-1.525,2.993-3.038a2.335,2.335,0,0,0,.785-2.686c-.66-1.623-2.5-1.9-3.873-.567-2.511,2.431-5.008,4.876-7.518,7.307a2.357,2.357,0,0,0-.189,3.4c.429.488.948.9,1.416,1.351,2.37,2.3,4.725,4.623,7.108,6.912a2.236,2.236,0,1,0,3.155-3.155c-.477-.5-.99-.966-1.483-1.452q-1.455-1.431-2.906-2.867M26.527,41.245l-.171.278q-8.357,0-16.713,0c-1.973,0-2.79-.832-2.791-2.809q-.006-9.859,0-19.719c0-2.136.786-2.927,2.906-2.928q10.782,0,21.564,0a10.024,10.024,0,0,0,1.037-.017,2.359,2.359,0,0,0,2.161-2.3,2.373,2.373,0,0,0-2.143-2.2,7.343,7.343,0,0,0-.807-.016q-10.9,0-21.795,0c-4.505.006-7.444,2.938-7.452,7.432q-.016,9.8,0,19.6c.005,4.569,2.924,7.475,7.517,7.482,5.151.008,10.3,0,15.452,0,.39,0,.779.038,1.169.059l.14.323c-1.376,1.331-2.762,2.652-4.125,4-1.146,1.13-1.26,2.511-.32,3.457s2.329.832,3.464-.29q4.018-3.971,8.028-7.949c1.3-1.286,1.276-2.46-.059-3.777q-3.489-3.44-6.96-6.9c-1.443-1.438-2.751-1.649-3.791-.585s-.808,2.329.654,3.787c1.018,1.015,2.024,2.043,3.035,3.065M62.22,85.273h4.727c1.576,0,3.152.008,4.728,0a6.89,6.89,0,0,0,6.686-6.723q.02-5.938,0-11.876a6.886,6.886,0,0,0-6.72-6.688q-9.4-.018-18.794,0a6.9,6.9,0,0,0-6.69,6.721q-.021,5.938,0,11.876a6.9,6.9,0,0,0,6.725,6.687c3.113.011,6.226,0,9.339,0m0,48.447c3.152,0,6.3.01,9.455,0a6.908,6.908,0,0,0,6.684-6.609q.027-6,0-11.992a6.878,6.878,0,0,0-6.722-6.684q-9.4-.019-18.795,0a6.91,6.91,0,0,0-6.69,6.723q-.013,5.88,0,11.761a6.877,6.877,0,0,0,6.841,6.8c3.075.008,6.15,0,9.225,0m-46.1-25.291c-3,0-6-.015-8.995,0a6.988,6.988,0,0,0-7.106,7.078q-.034,5.535,0,11.07a6.967,6.967,0,0,0,7.167,7.133q8.937.029,17.874,0a6.962,6.962,0,0,0,7.162-7.135q.032-5.477,0-10.955A6.966,6.966,0,0,0,25,108.432c-2.96-.015-5.92,0-8.879,0m92.275,25.29v0h4.5c1.5,0,3,.008,4.5-.006a6.975,6.975,0,0,0,7.11-7.073q.039-5.535,0-11.07a6.956,6.956,0,0,0-7.158-7.139q-8.937-.029-17.873,0a6.987,6.987,0,0,0-7.171,7.129q-.029,5.477,0,10.955a6.978,6.978,0,0,0,7.219,7.2c2.96.015,5.92,0,8.879,0" transform="translate(0 0.001)" fill="#fff"/>
        <path id="Trazado_206836" data-name="Trazado 206836" d="M193.073,25.294q-9.915,0-19.83,0c-2.432,0-3.193-.752-3.193-3.141q0-9.569,0-19.139c0-2.193.807-3.012,2.972-3.012q20.061,0,40.122,0c2.118,0,2.956.824,2.958,2.908q.007,9.742,0,19.484c0,2.068-.855,2.9-2.971,2.9q-10.031,0-20.061,0m-18.445-4.62h36.857V4.618H174.628Z" transform="translate(-130.819 0.001)" fill="#161615"/>
        <path id="Trazado_206837" data-name="Trazado 206837" d="M193.155,130q9.972,0,19.945,0c2.185,0,2.993.805,2.994,2.987q.007,9.627,0,19.254c0,2.255-.8,3.05-3.053,3.05q-20.061,0-40.121,0c-2.021,0-2.879-.85-2.881-2.874q-.009-9.8,0-19.6c0-1.945.872-2.813,2.82-2.815q10.146-.01,20.291,0M174.619,150.67h36.858V134.617H174.619Z" transform="translate(-130.81 -100.007)" fill="#161615"/>
        <path id="Trazado_206838" data-name="Trazado 206838" d="M106.184,386.968c0-1.521-.008-2.861,0-4.2.013-1.591.916-2.683,2.221-2.707,1.344-.025,2.29,1.1,2.306,2.746.012,1.268.019,2.536.034,3.8,0,.068.055.136.15.354h1.278l41.636,0c2.384,0,3.04.671,3.041,3.1,0,1.884.01,3.768,0,5.651-.011,1.581-.939,2.676-2.246,2.687a2.4,2.4,0,0,1-2.277-2.656c-.02-1.306-.025-2.613-.044-3.919,0-.066-.062-.131-.129-.264H110.712c0,1.4.007,2.734,0,4.068-.011,1.661-.941,2.783-2.279,2.77s-2.232-1.117-2.246-2.8c-.01-1.23-.013-2.46-.024-3.69a1.713,1.713,0,0,0-.085-.316H64.566c0,1.494.042,3.015-.013,4.532a2.316,2.316,0,0,1-2.3,2.277,2.364,2.364,0,0,1-2.206-2.259c-.013-.153-.008-.307-.008-.461,0-2.076-.009-4.152,0-6.228a2.238,2.238,0,0,1,2.5-2.483q10.668-.011,21.337-.005h22.3" transform="translate(-46.19 -292.38)" fill="#161615"/>
        <path id="Trazado_206839" data-name="Trazado 206839" d="M367.774,213.346q1.453,1.434,2.906,2.867c.493.485,1.006.951,1.483,1.452a2.236,2.236,0,1,1-3.155,3.155c-2.383-2.29-4.739-4.608-7.108-6.912-.468-.455-.987-.863-1.416-1.351a2.357,2.357,0,0,1,.189-3.4c2.511-2.431,5.008-4.876,7.518-7.307,1.374-1.33,3.213-1.056,3.873.567a2.335,2.335,0,0,1-.785,2.686q-1.5,1.515-2.993,3.038c-.042.043-.03.139-.07.357.417.018.815.051,1.212.051q11.129,0,22.258,0c2.122,0,2.81-.7,2.811-2.834q0-8.3,0-16.607c0-2.559-.92-3.484-3.428-3.484l-20.759,0c-.192,0-.384,0-.577,0-1.775-.015-2.9-.889-2.9-2.256,0-1.384,1.092-2.233,2.908-2.233q10.956,0,21.912,0A7.215,7.215,0,0,1,399,188.3c.081,6.073.069,12.148,0,18.221-.04,3.741-3.123,6.547-7.08,6.557-7.611.02-15.223.007-22.834.007h-1.215l-.1.265" transform="translate(-276.831 -139.34)" fill="#161615"/>
        <path id="Trazado_206840" data-name="Trazado 206840" d="M34.243,79.7c-1.011-1.022-2.017-2.05-3.035-3.065-1.463-1.458-1.688-2.73-.655-3.787s2.348-.853,3.791.585q3.471,3.458,6.96,6.9c1.335,1.316,1.359,2.49.059,3.777q-4.016,3.973-8.028,7.949c-1.135,1.122-2.528,1.233-3.464.29s-.826-2.327.32-3.457c1.363-1.344,2.749-2.665,4.125-4l-.14-.323c-.389-.02-.779-.058-1.168-.059-5.151,0-10.3.006-15.452,0-4.594-.007-7.512-2.913-7.517-7.482q-.011-9.8,0-19.6c.007-4.494,2.947-7.426,7.452-7.432q10.9-.015,21.795,0a7.339,7.339,0,0,1,.807.016,2.249,2.249,0,0,1-.018,4.494,10.023,10.023,0,0,1-1.037.017q-10.782,0-21.564,0c-2.12,0-2.905.793-2.906,2.928q0,9.859,0,19.719c0,1.977.819,2.806,2.791,2.809q8.357.011,16.713,0l.172-.278" transform="translate(-7.716 -38.454)" fill="#161615"/>
        <path id="Trazado_206841" data-name="Trazado 206841" d="M216.1,285.268c-3.113,0-6.226.008-9.339,0a6.9,6.9,0,0,1-6.725-6.687q-.016-5.938,0-11.876a6.9,6.9,0,0,1,6.69-6.721q9.4-.024,18.794,0a6.886,6.886,0,0,1,6.72,6.688q.022,5.938,0,11.876a6.89,6.89,0,0,1-6.686,6.723c-1.576.011-3.152,0-4.727,0H216.1m.094-4.529c2.919,0,5.837.011,8.756,0a2.481,2.481,0,0,0,2.763-2.784q.02-5.3,0-10.6c-.006-1.9-.935-2.841-2.818-2.844q-8.756-.013-17.511,0c-1.892,0-2.814.935-2.819,2.839q-.015,5.242,0,10.484c0,1.986.907,2.9,2.875,2.906,2.918.01,5.837,0,8.755,0" transform="translate(-153.88 -199.995)" fill="#161615"/>
        <path id="Trazado_206842" data-name="Trazado 206842" d="M216.1,495.276c-3.075,0-6.15.006-9.224,0a6.877,6.877,0,0,1-6.841-6.8q-.018-5.88,0-11.761a6.91,6.91,0,0,1,6.69-6.723q9.4-.017,18.795,0a6.878,6.878,0,0,1,6.722,6.684q.027,6,0,11.992a6.908,6.908,0,0,1-6.684,6.609c-3.152.012-6.3,0-9.455,0m-.016-4.53c2.918,0,5.836.008,8.755,0,1.919-.007,2.863-.919,2.87-2.792q.022-5.356,0-10.713A2.449,2.449,0,0,0,225,474.519q-8.812-.017-17.624,0c-1.891,0-2.805.934-2.812,2.846q-.017,5.241,0,10.483c.006,1.987.91,2.891,2.879,2.9,2.88.007,5.76,0,8.639,0" transform="translate(-153.882 -361.555)" fill="#161615"/>
        <path id="Trazado_206843" data-name="Trazado 206843" d="M16.119,469.986c2.96,0,5.92-.012,8.879,0a6.966,6.966,0,0,1,7.223,7.193q.034,5.477,0,10.954a6.962,6.962,0,0,1-7.162,7.135q-8.937.026-17.873,0a6.968,6.968,0,0,1-7.167-7.133q-.035-5.535,0-11.07a6.988,6.988,0,0,1,7.106-7.078c3-.019,6,0,8.994,0m-.028,4.53c-2.958,0-5.916-.009-8.873,0-1.818.008-2.664.859-2.669,2.694q-.017,5.416,0,10.832c.006,1.835.856,2.7,2.667,2.7q8.873.011,17.747,0c1.892,0,2.725-.847,2.73-2.755q.015-5.359,0-10.717c-.005-1.909-.842-2.749-2.727-2.753-2.958-.007-5.916,0-8.873,0" transform="translate(0 -361.556)" fill="#161615"/>
        <path id="Trazado_206844" data-name="Trazado 206844" d="M416.12,495.266c-2.96,0-5.92.012-8.879,0a6.978,6.978,0,0,1-7.219-7.2q-.029-5.477,0-10.955a6.987,6.987,0,0,1,7.171-7.129q8.937-.024,17.873,0a6.955,6.955,0,0,1,7.158,7.139q.04,5.535,0,11.07a6.975,6.975,0,0,1-7.11,7.073c-1.5.014-3,.005-4.5.006h-4.5ZM416,490.734c3.035,0,6.069.012,9.1,0a2.3,2.3,0,0,0,2.585-2.548q.027-5.532,0-11.063a2.324,2.324,0,0,0-2.636-2.611q-8.931-.012-17.862,0a2.32,2.32,0,0,0-2.642,2.6q-.022,5.474,0,10.948c.006,1.817.868,2.666,2.693,2.671,2.919.009,5.839,0,8.758,0" transform="translate(-307.726 -361.546)" fill="#161615"/>
        <rect id="Rectángulo_296391" data-name="Rectángulo 296391" width="36.857" height="16.056" transform="translate(43.808 4.619)" fill="#add5f3"/>
        <rect id="Rectángulo_296392" data-name="Rectángulo 296392" width="36.858" height="16.053" transform="translate(43.809 34.61)" fill="#ffbc19"/>
        <path id="Trazado_206845" data-name="Trazado 206845" d="M231.3,295.855c-2.919,0-5.837.007-8.756,0-1.967-.006-2.87-.92-2.875-2.906q-.012-5.242,0-10.483c.005-1.9.927-2.836,2.819-2.839q8.756-.012,17.511,0c1.883,0,2.813.945,2.818,2.844q.015,5.3,0,10.6a2.48,2.48,0,0,1-2.763,2.783c-2.918.015-5.837,0-8.756,0" transform="translate(-168.989 -215.11)" fill="#4ab7ce"/>
        <path id="Trazado_206846" data-name="Trazado 206846" d="M231.2,505.857c-2.88,0-5.76.006-8.639,0-1.969,0-2.873-.909-2.879-2.9q-.015-5.241,0-10.482c.006-1.912.921-2.843,2.812-2.846q8.812-.016,17.624,0a2.449,2.449,0,0,1,2.705,2.718q.027,5.356,0,10.713c-.008,1.874-.952,2.785-2.87,2.793-2.918.011-5.836,0-8.755,0" transform="translate(-168.993 -376.666)" fill="#add5f3"/>
        <path id="Trazado_206847" data-name="Trazado 206847" d="M31.225,489.631c2.958,0,5.916-.006,8.873,0,1.885,0,2.722.845,2.727,2.753q.015,5.359,0,10.717c-.005,1.907-.838,2.752-2.73,2.754q-8.873.013-17.747,0c-1.811,0-2.661-.863-2.667-2.7q-.016-5.416,0-10.832c.006-1.835.851-2.686,2.669-2.694,2.958-.012,5.916,0,8.873,0" transform="translate(-15.135 -376.671)" fill="#add5f3"/>
        <path id="Trazado_206848" data-name="Trazado 206848" d="M431.131,505.859c-2.92,0-5.839.007-8.758,0-1.825-.005-2.687-.854-2.692-2.671q-.017-5.473,0-10.948a2.32,2.32,0,0,1,2.642-2.6q8.931-.016,17.862,0a2.324,2.324,0,0,1,2.636,2.611q.022,5.531,0,11.063a2.3,2.3,0,0,1-2.585,2.548c-3.035.017-6.069,0-9.1.006" transform="translate(-322.853 -376.669)" fill="#add5f3"/>
      </g>
    </g>
  </g>
</svg>
