<svg xmlns="http://www.w3.org/2000/svg" width="190" height="115" viewBox="0 0 190 115">
  <g id="Grupo_172742" data-name="Grupo 172742" transform="translate(-180 -399)">
    <rect id="Rectángulo_43992" data-name="Rectángulo 43992" width="190" height="115" transform="translate(180 399)" fill="none"/>
    <rect id="Rectángulo_41430" data-name="Rectángulo 41430" width="85" height="28" rx="14" transform="translate(285 407)" fill="#feca2e" opacity="0.2"/>
    <rect id="Rectángulo_41431" data-name="Rectángulo 41431" width="85" height="28" rx="14" transform="translate(180 468)" fill="#4dd0e1" opacity="0.2"/>
    <g id="chip" transform="translate(229.167 411)">
      <g id="Grupo_172754" data-name="Grupo 172754" transform="translate(17.224 0.001)">
        <g id="Grupo_172753" data-name="Grupo 172753" transform="translate(0 0)">
          <path id="Trazado_207573" data-name="Trazado 207573" d="M169.3,44.491h-21.62V41.436h5.833a1.343,1.343,0,1,0,0-2.686h-5.833V35.7h4.05a5.611,5.611,0,0,0,3.994-1.654l8.831-8.831a4.211,4.211,0,1,0-1.9-1.9l-8.831,8.831a2.944,2.944,0,0,1-2.1.868h-4.05V30.047a7.091,7.091,0,0,0-7.083-7.083h-2.963V11.077a4.213,4.213,0,1,0-2.686,0V22.964H131.9V17.13a1.343,1.343,0,0,0-2.686,0v5.833h-3.055V1.344a1.343,1.343,0,0,0-2.686,0v21.62h-3.055V17.13a1.343,1.343,0,1,0-2.686,0v5.833h-3.055v-4.05a5.611,5.611,0,0,0-1.654-3.994l-8.834-8.834a4.215,4.215,0,1,0-1.9,1.9l8.834,8.834a2.943,2.943,0,0,1,.868,2.095v4.05h-2.963a7.113,7.113,0,0,0-1.77.223,1.343,1.343,0,0,0,.669,2.6,4.422,4.422,0,0,1,1.1-.139H140.6a4.4,4.4,0,0,1,4.4,4.4V61.621a4.423,4.423,0,0,1-.138,1.1,1.343,1.343,0,1,0,2.6.669,7.106,7.106,0,0,0,.223-1.768V58.658h11.887a4.213,4.213,0,1,0,0-2.686H147.684V52.917h5.833a1.343,1.343,0,1,0,0-2.686h-5.833V47.177H169.3a1.343,1.343,0,0,0,0-2.686Zm-3.95-24.135a1.527,1.527,0,1,1-.447,1.08A1.517,1.517,0,0,1,165.354,20.356ZM101.5,5.295a1.527,1.527,0,1,1,0-2.16A1.53,1.53,0,0,1,101.5,5.295Zm34.8,3.317a1.528,1.528,0,1,1,1.528-1.528A1.529,1.529,0,0,1,136.3,8.612Zm27.268,47.176a1.528,1.528,0,1,1-1.528,1.528A1.529,1.529,0,0,1,163.564,55.788Z" transform="translate(-96.206 -0.001)" fill="#0f2771"/>
        </g>
      </g>
      <g id="Grupo_172756" data-name="Grupo 172756" transform="translate(0 27.269)">
        <g id="Grupo_172755" data-name="Grupo 172755">
          <path id="Trazado_207574" data-name="Trazado 207574" d="M73.21,209.512a4.218,4.218,0,0,0-4.851-.792l-8.834-8.834a2.943,2.943,0,0,1-.868-2.095v-4.05H61.62a7.11,7.11,0,0,0,1.77-.223,1.343,1.343,0,1,0-.669-2.6,4.42,4.42,0,0,1-1.1.138H30.046a4.4,4.4,0,0,1-4.4-4.4V155.084a4.417,4.417,0,0,1,.138-1.1,1.343,1.343,0,1,0-2.6-.67,7.1,7.1,0,0,0-.223,1.77v2.963H11.076a4.213,4.213,0,1,0,0,2.686H22.963v3.055H17.129a1.343,1.343,0,0,0,0,2.686h5.833v3.055H1.343a1.343,1.343,0,0,0,0,2.686h21.62v3.055H17.129a1.343,1.343,0,1,0,0,2.686h5.833v3.055h-4.05a5.611,5.611,0,0,0-3.994,1.654L6.088,191.5a4.209,4.209,0,1,0,1.9,1.9l8.831-8.831a2.944,2.944,0,0,1,2.1-.868h4.05v2.963a7.091,7.091,0,0,0,7.083,7.083h2.963v11.887a4.213,4.213,0,1,0,2.686,0V193.741H38.75v5.833a1.343,1.343,0,0,0,2.686,0v-5.833H44.49v21.62a1.343,1.343,0,1,0,2.686,0v-21.62h3.055v5.833a1.343,1.343,0,1,0,2.686,0v-5.833h3.055v4.05a5.611,5.611,0,0,0,1.654,3.994l8.834,8.834a4.212,4.212,0,1,0,6.75-1.107ZM7.083,160.917a1.528,1.528,0,1,1,1.528-1.528A1.529,1.529,0,0,1,7.083,160.917Zm-1.79,35.432a1.527,1.527,0,1,1,.447-1.08A1.517,1.517,0,0,1,5.293,196.349Zm30.586,13.272a1.528,1.528,0,1,1-1.528-1.528A1.529,1.529,0,0,1,35.879,209.621Zm35.432,3.95a1.527,1.527,0,1,1,0-2.16A1.529,1.529,0,0,1,71.311,213.571Z" transform="translate(0 -152.306)" fill="#0f2771"/>
        </g>
      </g>
      <g id="Grupo_172758" data-name="Grupo 172758" transform="translate(31.574 30.139)">
        <g id="Grupo_172757" data-name="Grupo 172757">
          <path id="Trazado_207575" data-name="Trazado 207575" d="M204.875,180.447a6.486,6.486,0,0,0-4.976-6.095,4.584,4.584,0,0,0,.132-1.081,5.176,5.176,0,0,0-5.379-4.931,5.586,5.586,0,0,0-4.036,1.677,5.586,5.586,0,0,0-4.036-1.677,5.175,5.175,0,0,0-5.379,4.931,4.584,4.584,0,0,0,.132,1.081,6.485,6.485,0,0,0-4.976,6.095,5.9,5.9,0,0,0,1.414,3.821,6.64,6.64,0,0,0-1.414,4.072,6.915,6.915,0,0,0,3.229,5.737v0a5.943,5.943,0,0,0,6.187,5.648,6.407,6.407,0,0,0,4.844-2.141,6.407,6.407,0,0,0,4.844,2.141,5.984,5.984,0,0,0,6.173-5.3,6.276,6.276,0,0,0,3.242-5.372,6.052,6.052,0,0,0-1.867-4.305A6.053,6.053,0,0,0,204.875,180.447Zm-4.752,5.493a3.582,3.582,0,0,1,2.066,3.118,3.435,3.435,0,0,1-1.183,2.525,6.028,6.028,0,0,0-3.53-2.843,1.343,1.343,0,1,0-.8,2.562,3.046,3.046,0,0,1,2.289,2.78,3.55,3.55,0,0,1-7,0V185.47a3.269,3.269,0,0,1,3.5-2.963,1.343,1.343,0,0,0,0-2.686,6.565,6.565,0,0,0-3.5.995V179.1a1.343,1.343,0,0,0-2.686,0v7.454a6.4,6.4,0,0,0-1.483-.687,1.343,1.343,0,0,0-.805,2.562,3.046,3.046,0,0,1,2.289,2.779v2.87a3.55,3.55,0,0,1-7,0,2.707,2.707,0,0,1,.836-1.917,1.343,1.343,0,0,0-1.893-1.9,5.711,5.711,0,0,0-.829,1.041,4.1,4.1,0,0,1-1.343-2.96,4.573,4.573,0,0,1,3.8-4.25,1.343,1.343,0,1,0-.6-2.617,8.181,8.181,0,0,0-2.463,1,3.24,3.24,0,0,1-.733-2.029c0-2.02,1.915-3.664,4.275-3.68l.036,0a1.342,1.342,0,0,0,1.139-2.049c-.01-.016-.02-.033-.03-.049l-.018-.024c-.021-.029-.042-.058-.065-.085l0,0a1.993,1.993,0,0,1-.491-1.288,2.738,2.738,0,0,1,5.387,0,1.343,1.343,0,0,0,2.686,0,2.738,2.738,0,0,1,5.387,0,1.889,1.889,0,0,1-.2.845,7.457,7.457,0,0,0-2.2.553,1.343,1.343,0,0,0,1.043,2.475,4.847,4.847,0,0,1,1.856-.376l.038,0,.036,0c2.36.015,4.275,1.66,4.275,3.68a3.582,3.582,0,0,1-2.066,3.118,1.343,1.343,0,0,0,0,2.375Z" transform="translate(-176.357 -168.34)" fill="#0f2771"/>
        </g>
      </g>
    </g>
  </g>
</svg>
