<svg xmlns="http://www.w3.org/2000/svg" width="190" height="115" viewBox="0 0 190 115">
  <g id="Grupo_172765" data-name="Grupo 172765" transform="translate(-180 -5891)">
    <rect id="Rectángulo_43992" data-name="Rectángulo 43992" width="190" height="115" transform="translate(180 5891)" fill="none"/>
    <rect id="Rectángulo_41430" data-name="Rectángulo 41430" width="85" height="28" rx="14" transform="translate(285 5899)" fill="#feca2e" opacity="0.2"/>
    <rect id="Rectángulo_41431" data-name="Rectángulo 41431" width="85" height="28" rx="14" transform="translate(180 5960)" fill="#4dd0e1" opacity="0.2"/>
    <g id="grafico-circular" transform="translate(225 5883.646)">
      <g id="Grupo_172764" data-name="Grupo 172764" transform="translate(0 18.354)">
        <g id="Grupo_172761" data-name="Grupo 172761" transform="translate(59.735 65.581)">
          <path id="Trazado_207576" data-name="Trazado 207576" d="M320.949,374.507a1.947,1.947,0,0,1-1.821-1.259l-4.189-11.1-4.229,11.106a1.946,1.946,0,1,1-3.637-1.385l5.735-15.058a2.292,2.292,0,0,1,4.259-.048l5.7,15.111a1.947,1.947,0,0,1-1.82,2.634Z" transform="translate(-306.944 -355.342)" fill="#0f2771"/>
          <path id="Línea_453" data-name="Línea 453" d="M.456-6.108h-8.51A1.946,1.946,0,0,1-10-8.054,1.946,1.946,0,0,1-8.054-10H.456A1.946,1.946,0,0,1,2.4-8.054,1.946,1.946,0,0,1,.456-6.108Z" transform="translate(11.789 21.523)" fill="#0f2771"/>
        </g>
        <g id="Grupo_172762" data-name="Grupo 172762" transform="translate(78.535 65.808)">
          <path id="Línea_454" data-name="Línea 454" d="M-8.054,8.457A1.946,1.946,0,0,1-10,6.511V-8.054A1.946,1.946,0,0,1-8.054-10,1.946,1.946,0,0,1-6.108-8.054V6.511A1.946,1.946,0,0,1-8.054,8.457Z" transform="translate(10 10.015)" fill="#0f2771"/>
          <path id="Trazado_207577" data-name="Trazado 207577" d="M409.7,356.5a7.336,7.336,0,0,1,6.03,2.954,10.586,10.586,0,0,1,1.9,6.4c0,5.324-3.27,9.245-7.774,9.324-1.2.021-4.317.033-4.317.033a1.946,1.946,0,0,1-1.954-1.939s-.019-5.373-.019-7.434l-.011-7.39a1.946,1.946,0,0,1,1.946-1.95h4.2Zm-2.229,14.811c.852-.005,1.778-.013,2.317-.022,2.729-.048,3.95-2.763,3.95-5.432a6.867,6.867,0,0,0-1.126-4.071A3.4,3.4,0,0,0,409.7,360.4h-2.249l.008,5.448C407.456,367.095,407.463,369.568,407.469,371.315Z" transform="translate(-403.553 -356.504)" fill="#0f2771"/>
        </g>
        <g id="Grupo_172763" data-name="Grupo 172763" transform="translate(0 9.595)">
          <path id="Trazado_207578" data-name="Trazado 207578" d="M83.195,189.514A38.418,38.418,0,0,1,55.85,178.188a1.946,1.946,0,0,1,0-2.752l51.94-51.94a1.946,1.946,0,0,1,1.376-.57h0a1.946,1.946,0,0,1,1.376.57,38.769,38.769,0,0,1,6.76,9.106,1.946,1.946,0,1,1-3.431,1.838,34.869,34.869,0,0,0-4.744-6.778L60.016,176.774A34.825,34.825,0,0,0,96.938,182.8V167.021a6.866,6.866,0,0,1,6.858-6.858h12.917a34.789,34.789,0,0,0,1.263-9.32l-.01-.814a1.946,1.946,0,1,1,3.891-.09c.007.3.011.6.011.9a38.6,38.6,0,0,1-1.855,11.863,1.946,1.946,0,0,1-1.852,1.349H103.8a2.969,2.969,0,0,0-2.966,2.966v17.036a1.946,1.946,0,0,1-1.114,1.759A38.331,38.331,0,0,1,83.195,189.514Z" transform="translate(-44.522 -112.17)" fill="#0f2771"/>
          <path id="Trazado_207579" data-name="Trazado 207579" d="M38.673,67.656A1.946,1.946,0,0,1,40.619,69.6v36.727a1.946,1.946,0,0,1-1.946,1.946H1.946A1.946,1.946,0,0,1,0,106.329,38.717,38.717,0,0,1,38.673,67.656Zm-1.946,36.727V71.6A34.832,34.832,0,0,0,3.946,104.383Z" transform="translate(0 -67.656)" fill="#0f2771"/>
          <path id="Trazado_207580" data-name="Trazado 207580" d="M1.946,256.376H38.673a1.946,1.946,0,0,1,1.376,3.322L14.08,285.667a1.946,1.946,0,0,1-2.752,0A38.417,38.417,0,0,1,0,258.322,1.946,1.946,0,0,1,1.946,256.376Zm32.029,3.892H3.945a34.485,34.485,0,0,0,8.8,21.233Z" transform="translate(0 -219.649)" fill="#0f2771"/>
        </g>
        <path id="Trazado_207581" data-name="Trazado 207581" d="M156.614,46.557a1.946,1.946,0,0,1-1.376-3.322l22.276-22.276a8.836,8.836,0,0,1,6.289-2.605h29.475A4.831,4.831,0,0,1,218.1,23.18v6.974a4.831,4.831,0,0,1-4.826,4.826H183.8a4.831,4.831,0,0,1-4.826-4.826V25L157.99,45.987A1.94,1.94,0,0,1,156.614,46.557ZM183.8,22.246a.933.933,0,0,0-.932.932v6.976a.934.934,0,0,0,.933.933h29.473a.934.934,0,0,0,.933-.933V23.18a.934.934,0,0,0-.933-.933Z" transform="translate(-124.568 -18.354)" fill="#0f2771"/>
        <path id="Línea_455" data-name="Línea 455" transform="translate(74.138 38.691)" fill="#0f2771"/>
      </g>
      <path id="Trazado_207582" data-name="Trazado 207582" d="M309.705,349.177H276.2a6.866,6.866,0,0,1-6.858-6.858V321.126a6.866,6.866,0,0,1,6.858-6.858h33.508a6.866,6.866,0,0,1,6.858,6.858v21.192a6.858,6.858,0,0,1-6.858,6.858ZM276.2,318.16a2.969,2.969,0,0,0-2.966,2.966v21.192a2.969,2.969,0,0,0,2.966,2.966h33.508a2.966,2.966,0,0,0,2.966-2.966V321.126a2.969,2.969,0,0,0-2.966-2.966Z" transform="translate(-216.923 -238.326)" fill="#0f2771"/>
    </g>
  </g>
</svg>
