<svg xmlns="http://www.w3.org/2000/svg" width="80" height="78.249" viewBox="0 0 80 78.249">
  <g id="web" transform="translate(-1.25 -1.95)">
    <g id="Grupo_148536" data-name="Grupo 148536" transform="translate(2.195 2.895)">
      <g id="Grupo_148519" data-name="Grupo 148519" transform="translate(0 12.071)">
        <path id="Trazado_207218" data-name="Trazado 207218" d="M2,12.28V57.062a2.587,2.587,0,0,0,2.583,2.583H65.43a2.587,2.587,0,0,0,2.583-2.583V12.28Z" transform="translate(-2 -12.28)" fill="#e6e9ee"/>
      </g>
      <g id="Grupo_148520" data-name="Grupo 148520" transform="translate(5.179 17.25)">
        <path id="Trazado_207219" data-name="Trazado 207219" d="M33.289,16.39H6.753a.645.645,0,0,0-.643.643V29.885a.645.645,0,0,0,.643.643H33.289a.645.645,0,0,0,.643-.643V17.033a.63.63,0,0,0-.643-.643Z" transform="translate(-6.11 -16.39)" fill="#bddcf6"/>
      </g>
      <g id="Grupo_148521" data-name="Grupo 148521" transform="translate(0 12.071)" opacity="0.1">
        <path id="Trazado_207220" data-name="Trazado 207220" d="M49.365,54.6A42.327,42.327,0,0,1,7.04,12.28H2V57.062a2.587,2.587,0,0,0,2.583,2.583H65.43a2.587,2.587,0,0,0,2.583-2.583V54.6Z" transform="translate(-2 -12.28)"/>
      </g>
      <g id="Grupo_148522" data-name="Grupo 148522" transform="translate(16.192 42.703)">
        <path id="Trazado_207221" data-name="Trazado 207221" d="M48.506,55.881V50.954l-3.616-.869a13.643,13.643,0,0,0-1.512-3.642l1.94-3.175-3.49-3.49-3.175,1.94a13.643,13.643,0,0,0-3.642-1.512l-.869-3.616H29.214l-.869,3.616A13.642,13.642,0,0,0,24.7,41.718l-3.175-1.94-3.49,3.49,1.94,3.175a13.643,13.643,0,0,0-1.512,3.642l-3.616.869v4.927l3.616.869a13.643,13.643,0,0,0,1.512,3.642l-1.953,3.175,3.49,3.49,3.175-1.94a13.643,13.643,0,0,0,3.642,1.512l.869,3.616h4.927L35,66.629a13.642,13.642,0,0,0,3.642-1.512l3.175,1.94,3.5-3.49-1.94-3.175a13.643,13.643,0,0,0,1.512-3.642ZM31.672,60.443A7.031,7.031,0,1,1,38.7,53.412a7.034,7.034,0,0,1-7.031,7.031Z" transform="translate(-14.85 -36.59)" fill="#4dd0e1"/>
      </g>
      <g id="Grupo_148523" data-name="Grupo 148523">
        <path id="Trazado_207222" data-name="Trazado 207222" d="M65.43,2.7H4.583A2.589,2.589,0,0,0,2,5.3v9.476H68.026V5.3a2.592,2.592,0,0,0-2.6-2.6Z" transform="translate(-2 -2.7)" fill="#0f2771"/>
      </g>
      <g id="Grupo_148524" data-name="Grupo 148524" transform="translate(5.179 3.453)">
        <circle id="Elipse_4861" data-name="Elipse 4861" cx="2.583" cy="2.583" r="2.583" fill="#e6e9ee"/>
      </g>
      <g id="Grupo_148525" data-name="Grupo 148525" transform="translate(14.881 3.453)">
        <circle id="Elipse_4862" data-name="Elipse 4862" cx="2.583" cy="2.583" r="2.583" fill="#e6e9ee"/>
      </g>
      <g id="Grupo_148526" data-name="Grupo 148526" transform="translate(24.571 3.453)">
        <circle id="Elipse_4863" data-name="Elipse 4863" cx="2.583" cy="2.583" r="2.583" fill="#e6e9ee"/>
      </g>
      <g id="Grupo_148527" data-name="Grupo 148527" transform="translate(24.583 3.717)" opacity="0.1">
        <path id="Trazado_207223" data-name="Trazado 207223" d="M25.3,9.342A2.587,2.587,0,0,1,22.72,6.759a2.522,2.522,0,0,1,.265-1.109A2.587,2.587,0,1,0,26.424,9.1a2.974,2.974,0,0,1-1.121.239Z" transform="translate(-21.51 -5.65)"/>
      </g>
      <g id="Grupo_148528" data-name="Grupo 148528" transform="translate(44.064 17.804)">
        <path id="Trazado_207224" data-name="Trazado 207224" d="M68.433,16.83H39.553a2.587,2.587,0,0,0-2.583,2.583v18.56a2.587,2.587,0,0,0,2.583,2.583h4.221v5.28l7.157-5.28H68.446a2.587,2.587,0,0,0,2.583-2.583V19.413a2.589,2.589,0,0,0-2.6-2.583Z" transform="translate(-36.97 -16.83)" fill="#feca2e"/>
      </g>
      <g id="Grupo_148529" data-name="Grupo 148529" transform="translate(14.894 3.717)" opacity="0.1">
        <path id="Trazado_207225" data-name="Trazado 207225" d="M17.613,9.342A2.587,2.587,0,0,1,15.03,6.759a2.522,2.522,0,0,1,.265-1.109A2.587,2.587,0,1,0,18.734,9.1a3.082,3.082,0,0,1-1.121.239Z" transform="translate(-13.82 -5.65)"/>
      </g>
      <g id="Grupo_148530" data-name="Grupo 148530" transform="translate(5.179 3.705)" opacity="0.1">
        <path id="Trazado_207226" data-name="Trazado 207226" d="M9.915,9.345a2.589,2.589,0,0,1-2.583-2.6A2.522,2.522,0,0,1,7.6,5.64a2.585,2.585,0,1,0,3.427,3.453,2.7,2.7,0,0,1-1.109.252Z" transform="translate(-6.11 -5.64)"/>
      </g>
      <g id="Grupo_148531" data-name="Grupo 148531" transform="translate(44.051 17.792)" opacity="0.1">
        <path id="Trazado_207227" data-name="Trazado 207227" d="M45.616,35.683a3.775,3.775,0,0,1-3.78-3.78V17.122c0-.1.025-.2.025-.3H39.543a2.589,2.589,0,0,0-2.583,2.6v18.56a2.587,2.587,0,0,0,2.583,2.583h4.221v5.28l7.157-5.28H68.436a2.587,2.587,0,0,0,2.583-2.583V35.683Z" transform="translate(-36.96 -16.82)"/>
      </g>
      <g id="Grupo_148532" data-name="Grupo 148532" transform="translate(16.166 45.878)" opacity="0.1">
        <path id="Trazado_207228" data-name="Trazado 207228" d="M38.506,63.063A16.222,16.222,0,0,1,23.612,40.4l-2.1-1.285-3.49,3.49,1.94,3.175a13.643,13.643,0,0,0-1.512,3.642l-3.616.869v4.927l3.616.869a13.643,13.643,0,0,0,1.512,3.642l-1.928,3.188,3.49,3.49,3.175-1.94a13.643,13.643,0,0,0,3.642,1.512l.869,3.616h4.927L35,65.974a13.643,13.643,0,0,0,3.642-1.512L41.82,66.4l3.5-3.49-.655-1.071A16.186,16.186,0,0,1,38.506,63.063Z" transform="translate(-14.83 -39.11)"/>
      </g>
      <g id="Grupo_148533" data-name="Grupo 148533" transform="translate(56.626 17.804)" opacity="0.15">
        <path id="Trazado_207229" data-name="Trazado 207229" d="M65.841,16.83H46.94a3.775,3.775,0,0,0,3.78,3.78h6.54a7.4,7.4,0,0,1,7.4,7.4,3.775,3.775,0,0,0,3.78,3.78V19.413a2.589,2.589,0,0,0-2.6-2.583Z" transform="translate(-46.94 -16.83)" fill="#fff"/>
      </g>
      <g id="Grupo_148534" data-name="Grupo 148534" transform="translate(36.642 0)" opacity="0.25">
        <path id="Trazado_207230" data-name="Trazado 207230" d="M60.464,20.5V5.3a2.6,2.6,0,0,0-2.583-2.6H31.08a3.775,3.775,0,0,0,3.78,3.78H56.684V20.492h3.78Z" transform="translate(-31.08 -2.7)" fill="#fff"/>
      </g>
      <g id="Grupo_148535" data-name="Grupo 148535" transform="translate(10.093 17.25)" opacity="0.3">
        <path id="Trazado_207231" data-name="Trazado 207231" d="M32.2,16.39H10.01a2.845,2.845,0,0,0,2.848,2.848H21.2a8.871,8.871,0,0,1,8.593,6.653,2.889,2.889,0,0,0,2.772,2.218h.353V17.121a.713.713,0,0,0-.718-.731Z" transform="translate(-10.01 -16.39)" fill="#fff"/>
      </g>
    </g>
    <g id="Grupo_148553" data-name="Grupo 148553" transform="translate(1.25 1.95)">
      <g id="Grupo_148537" data-name="Grupo 148537" transform="translate(16.192 42.728)">
        <path id="Trazado_207232" data-name="Trazado 207232" d="M34.336,71.381H29.4a.946.946,0,0,1-.92-.718l-.743-3.074A14.3,14.3,0,0,1,24.9,66.416l-2.7,1.651a.935.935,0,0,1-1.159-.139l-3.49-3.49a.937.937,0,0,1-.139-1.159l1.651-2.7a14.618,14.618,0,0,1-1.172-2.835L14.818,57a.932.932,0,0,1-.718-.92V51.157a.946.946,0,0,1,.718-.92l3.075-.743a14.3,14.3,0,0,1,1.172-2.835l-1.651-2.7a.935.935,0,0,1,.139-1.159l3.49-3.49a.937.937,0,0,1,1.159-.139l2.7,1.651a14.3,14.3,0,0,1,2.835-1.172l.743-3.075a.932.932,0,0,1,.92-.718h4.939a.946.946,0,0,1,.92.718L36,39.653a14,14,0,0,1,2.835,1.172l2.7-1.651a.935.935,0,0,1,1.159.139l3.49,3.49a.937.937,0,0,1,.139,1.159l-1.651,2.7a14.618,14.618,0,0,1,1.172,2.835l3.074.743a.932.932,0,0,1,.718.92v4.927a.946.946,0,0,1-.718.92l-3.074.743a14.3,14.3,0,0,1-1.172,2.835l1.651,2.7a.935.935,0,0,1-.139,1.159l-3.49,3.49a.937.937,0,0,1-1.159.139l-2.7-1.651A14.617,14.617,0,0,1,36,67.588l-.743,3.074A.968.968,0,0,1,34.336,71.381Zm-4.2-1.89h3.44l.693-2.885a.965.965,0,0,1,.693-.693,12.666,12.666,0,0,0,3.39-1.4.979.979,0,0,1,.983,0l2.545,1.55,2.432-2.432-1.55-2.545a.923.923,0,0,1,0-.983,12.269,12.269,0,0,0,1.4-3.39.965.965,0,0,1,.693-.693l2.885-.693v-3.44l-2.885-.693a.965.965,0,0,1-.693-.693,12.666,12.666,0,0,0-1.4-3.39.979.979,0,0,1,0-.983l1.55-2.533-2.432-2.432-2.533,1.55a.923.923,0,0,1-.983,0,12.5,12.5,0,0,0-3.39-1.4.965.965,0,0,1-.693-.693l-.693-2.885h-3.44l-.693,2.885a.965.965,0,0,1-.693.693,12.912,12.912,0,0,0-3.39,1.4.979.979,0,0,1-.983,0l-2.533-1.55L19.43,43.6l1.55,2.533a.923.923,0,0,1,0,.983,12.269,12.269,0,0,0-1.4,3.39.929.929,0,0,1-.693.68L16,51.875v3.44l2.885.693a.97.97,0,0,1,.693.68,12.666,12.666,0,0,0,1.4,3.39.979.979,0,0,1,0,.983l-1.55,2.545,2.432,2.432,2.545-1.55a.95.95,0,0,1,.983,0,12.269,12.269,0,0,0,3.39,1.4.965.965,0,0,1,.693.693Zm1.726-7.913A7.976,7.976,0,1,1,39.843,53.6a7.986,7.986,0,0,1-7.976,7.976Zm0-14.062A6.086,6.086,0,1,0,37.953,53.6a6.1,6.1,0,0,0-6.086-6.086Z" transform="translate(-14.1 -35.86)" fill="#211e27"/>
      </g>
      <g id="Grupo_148538" data-name="Grupo 148538" transform="translate(5.179 17.25)">
        <path id="Trazado_207233" data-name="Trazado 207233" d="M33.484,31.68H6.948A1.589,1.589,0,0,1,5.36,30.093V17.228A1.589,1.589,0,0,1,6.948,15.64H33.484a1.589,1.589,0,0,1,1.588,1.588V30.08a1.584,1.584,0,0,1-1.588,1.6ZM7.25,29.79H33.194V17.53H7.25Z" transform="translate(-5.36 -15.64)" fill="#211e27"/>
      </g>
      <g id="Grupo_148539" data-name="Grupo 148539">
        <path id="Trazado_207234" data-name="Trazado 207234" d="M68.221,15.911H2.2a.952.952,0,0,1-.945-.945V5.491A3.541,3.541,0,0,1,4.778,1.95H65.625a3.533,3.533,0,0,1,3.528,3.541v9.476a.933.933,0,0,1-.932.945ZM3.14,14.021H67.276V5.491A1.646,1.646,0,0,0,65.638,3.84H4.778A1.646,1.646,0,0,0,3.14,5.491Z" transform="translate(-1.25 -1.95)" fill="#211e27"/>
      </g>
      <g id="Grupo_148540" data-name="Grupo 148540" transform="translate(5.166 3.465)">
        <path id="Trazado_207235" data-name="Trazado 207235" d="M8.891,11.756a3.528,3.528,0,1,1,3.528-3.528A3.541,3.541,0,0,1,8.891,11.756Zm0-5.179a1.638,1.638,0,1,0,1.638,1.638A1.646,1.646,0,0,0,8.891,6.577Z" transform="translate(-5.35 -4.7)" fill="#211e27"/>
      </g>
      <g id="Grupo_148541" data-name="Grupo 148541" transform="translate(14.868 3.465)">
        <path id="Trazado_207236" data-name="Trazado 207236" d="M16.591,11.756a3.528,3.528,0,1,1,3.528-3.528,3.541,3.541,0,0,1-3.528,3.528Zm0-5.179a1.638,1.638,0,1,0,1.638,1.638,1.646,1.646,0,0,0-1.638-1.638Z" transform="translate(-13.05 -4.7)" fill="#211e27"/>
      </g>
      <g id="Grupo_148542" data-name="Grupo 148542" transform="translate(24.558 3.465)">
        <path id="Trazado_207237" data-name="Trazado 207237" d="M24.281,11.756a3.528,3.528,0,1,1,3.528-3.528A3.541,3.541,0,0,1,24.281,11.756Zm0-5.179a1.638,1.638,0,1,0,1.638,1.638,1.646,1.646,0,0,0-1.638-1.638Z" transform="translate(-20.74 -4.7)" fill="#211e27"/>
      </g>
      <g id="Grupo_148543" data-name="Grupo 148543" transform="translate(44.051 17.792)">
        <path id="Trazado_207238" data-name="Trazado 207238" d="M43.959,46.991a1.017,1.017,0,0,1-.428-.1.958.958,0,0,1-.517-.844V41.712H39.738a3.53,3.53,0,0,1-3.528-3.528V19.611a3.541,3.541,0,0,1,3.528-3.541H68.631a3.533,3.533,0,0,1,3.528,3.541v18.56A3.53,3.53,0,0,1,68.631,41.7h-17.2l-6.918,5.1a.869.869,0,0,1-.554.189ZM39.751,17.96a1.646,1.646,0,0,0-1.638,1.651v18.56a1.635,1.635,0,0,0,1.638,1.638h4.221a.952.952,0,0,1,.945.945v3.415L50.574,40a1.019,1.019,0,0,1,.567-.189H68.656a1.635,1.635,0,0,0,1.638-1.638V19.611a1.646,1.646,0,0,0-1.638-1.651Z" transform="translate(-36.21 -16.07)" fill="#211e27"/>
      </g>
      <g id="Grupo_148548" data-name="Grupo 148548" transform="translate(50.981 23.822)">
        <g id="Grupo_148546" data-name="Grupo 148546" transform="translate(0 2.705)">
          <g id="Grupo_148544" data-name="Grupo 148544">
            <path id="Trazado_207239" data-name="Trazado 207239" d="M45.742,31.064a.935.935,0,0,1-.668-.277L41.987,27.7a.943.943,0,0,1,0-1.336l3.087-3.087a.944.944,0,0,1,1.336,1.336l-2.419,2.419,2.419,2.419a.951.951,0,0,1,0,1.336.99.99,0,0,1-.668.277Z" transform="translate(-41.71 -23.002)" fill="#211e27"/>
          </g>
          <g id="Grupo_148545" data-name="Grupo 148545" transform="translate(17.127 0)">
            <path id="Trazado_207240" data-name="Trazado 207240" d="M56.244,31.064a.935.935,0,0,1-.668-.277.951.951,0,0,1,0-1.336L58,27.031l-2.419-2.419a.944.944,0,0,1,1.336-1.336L60,26.364A.943.943,0,0,1,60,27.7l-3.087,3.087a.944.944,0,0,1-.668.277Z" transform="translate(-55.303 -23.003)" fill="#211e27"/>
          </g>
        </g>
        <g id="Grupo_148547" data-name="Grupo 148547" transform="translate(7.063)">
          <path id="Trazado_207241" data-name="Trazado 207241" d="M48.266,34.318a.919.919,0,0,1-.441-.113.944.944,0,0,1-.4-1.273L53.5,21.365a.944.944,0,0,1,1.676.869L49.1,33.8A.93.93,0,0,1,48.266,34.318Z" transform="translate(-47.315 -20.855)" fill="#211e27"/>
        </g>
      </g>
      <g id="Grupo_148549" data-name="Grupo 148549" transform="translate(5.179 36.579)">
        <path id="Trazado_207242" data-name="Trazado 207242" d="M27.751,32.87H6.305a.945.945,0,1,1,0-1.89H27.751a.945.945,0,1,1,0,1.89Z" transform="translate(-5.36 -30.98)" fill="#211e27"/>
      </g>
      <g id="Grupo_148550" data-name="Grupo 148550" transform="translate(5.179 41.758)">
        <path id="Trazado_207243" data-name="Trazado 207243" d="M20.216,36.98H6.305a.945.945,0,1,1,0-1.89H20.228a.945.945,0,1,1-.013,1.89Z" transform="translate(-5.36 -35.09)" fill="#211e27"/>
      </g>
      <g id="Grupo_148551" data-name="Grupo 148551" transform="translate(0 12.071)">
        <path id="Trazado_207244" data-name="Trazado 207244" d="M18.374,60.785H4.778A3.53,3.53,0,0,1,1.25,57.257V12.475A.952.952,0,0,1,2.2,11.53H68.221a.952.952,0,0,1,.945.945v5.733a.945.945,0,0,1-1.89,0V13.42H3.14V57.257a1.635,1.635,0,0,0,1.638,1.638h13.6a.945.945,0,1,1,0,1.89Z" transform="translate(-1.25 -11.53)" fill="#211e27"/>
      </g>
      <g id="Grupo_148552" data-name="Grupo 148552" transform="translate(49.847 41.758)">
        <path id="Trazado_207245" data-name="Trazado 207245" d="M55.338,54.658H41.755a.945.945,0,1,1,0-1.89h13.6a1.635,1.635,0,0,0,1.638-1.638v-15.1a.945.945,0,0,1,1.89,0V51.118a3.544,3.544,0,0,1-3.541,3.541Z" transform="translate(-40.81 -35.09)" fill="#211e27"/>
      </g>
    </g>
  </g>
</svg>
