<svg xmlns="http://www.w3.org/2000/svg" width="190" height="115" viewBox="0 0 190 115">
  <g id="Grupo_148912" data-name="Grupo 148912" transform="translate(-180 -399)">
    <rect id="Rectángulo_43992" data-name="Rectángulo 43992" width="190" height="115" transform="translate(180 399)" fill="none"/>
    <rect id="Rectángulo_41430" data-name="Rectángulo 41430" width="85" height="28" rx="14" transform="translate(285 407)" fill="#feca2e" opacity="0.2"/>
    <rect id="Rectángulo_41431" data-name="Rectángulo 41431" width="85" height="28" rx="14" transform="translate(180 468)" fill="#4dd0e1" opacity="0.2"/>
    <g id="inteligencia-artificial" transform="translate(224.74 386.756)">
      <path id="Trazado_207563" data-name="Trazado 207563" d="M286.529,236.807a1.487,1.487,0,1,0,1.487,1.487A1.487,1.487,0,0,0,286.529,236.807Z" transform="translate(-229.08 -170.831)" fill="#0f2771"/>
      <path id="Trazado_207564" data-name="Trazado 207564" d="M99.047,102.383H95.363V44.319a5.405,5.405,0,0,0-5.4-5.4h-9.47a1.472,1.472,0,1,0,0,2.945h9.47a2.457,2.457,0,0,1,2.454,2.454v58.064H8.1V44.319a2.457,2.457,0,0,1,2.454-2.454H38.673v3H12.579a1.472,1.472,0,0,0-1.472,1.472V97.906a1.472,1.472,0,0,0,1.472,1.472h4.842a1.472,1.472,0,0,0,0-2.945h-3.37V76.58A4.842,4.842,0,0,0,20.564,73.6H34.9v3.986l-3.82,3.184H28.5a4.844,4.844,0,1,0,0,2.945h3.12a1.473,1.473,0,0,0,.943-.341L34.9,81.416v.664a5.405,5.405,0,0,0,5.4,5.4H60.216a5.405,5.405,0,0,0,5.4-5.4v-.664L67.96,83.37a1.473,1.473,0,0,0,.943.341h3.12a4.844,4.844,0,1,0,0-2.945H69.435l-3.82-3.184V73.6h14.34a4.842,4.842,0,0,0,6.513,2.983V96.433H24.3a1.472,1.472,0,0,0,0,2.945H87.941a1.472,1.472,0,0,0,1.472-1.472V46.342a1.472,1.472,0,0,0-1.472-1.472H61.847v-3H73.595a1.472,1.472,0,1,0,0-2.945H64.83a4.844,4.844,0,1,0-8.911,0H51.732V33.7a4.844,4.844,0,1,0-2.945,0V38.92H44.6a4.844,4.844,0,1,0-8.911,0H10.555a5.405,5.405,0,0,0-5.4,5.4v58.064H1.472A1.472,1.472,0,0,0,0,103.856v4.812a6.584,6.584,0,0,0,6.577,6.577H70.555a1.472,1.472,0,0,0,0-2.945H6.577a3.636,3.636,0,0,1-3.632-3.632v-3.339h94.63v3.339a3.636,3.636,0,0,1-3.632,3.632H77.465a1.472,1.472,0,1,0,0,2.945H93.943a6.584,6.584,0,0,0,6.577-6.577v-4.812a1.472,1.472,0,0,0-1.472-1.472ZM23.883,84.137a1.9,1.9,0,1,1,1.9-1.9A1.9,1.9,0,0,1,23.883,84.137Zm52.754-3.8a1.9,1.9,0,1,1-1.9,1.9A1.9,1.9,0,0,1,76.637,80.339ZM50.26,27.189a1.9,1.9,0,1,1-1.9,1.9A1.9,1.9,0,0,1,50.26,27.189ZM15.95,74.023a1.9,1.9,0,1,1,1.9-1.9A1.9,1.9,0,0,1,15.95,74.023Zm4.614-3.372a4.842,4.842,0,0,0-6.513-2.983V47.814H38.673v5.667a1.473,1.473,0,0,0,.341.943l1.954,2.344H40.3a5.405,5.405,0,0,0-5.4,5.4v.664L32.56,60.878a1.473,1.473,0,0,0-.943-.341H28.5a4.844,4.844,0,1,0,0,2.945h2.587l3.82,3.184v3.986H20.564ZM55.718,56.769H51.732V47.814H58.9v5.134Zm-6.931,0H44.8l-3.184-3.82V47.814h7.169ZM25.782,62.01a1.9,1.9,0,1,1-1.9-1.9A1.9,1.9,0,0,1,25.782,62.01ZM60.216,84.534H40.3A2.457,2.457,0,0,1,37.85,82.08V62.168A2.457,2.457,0,0,1,40.3,59.714H60.216a2.457,2.457,0,0,1,2.454,2.454V82.08A2.457,2.457,0,0,1,60.216,84.534ZM84.57,74.023a1.9,1.9,0,1,1,1.9-1.9A1.9,1.9,0,0,1,84.57,74.023Zm1.9-26.209V67.668a4.842,4.842,0,0,0-6.513,2.983H65.615V66.665l3.82-3.184h2.587a4.844,4.844,0,1,0,0-2.945H68.9a1.472,1.472,0,0,0-.943.341l-2.345,1.954v-.664a5.405,5.405,0,0,0-5.4-5.4h-.664l1.954-2.344a1.473,1.473,0,0,0,.341-.943V47.814H86.469ZM74.738,62.01a1.9,1.9,0,1,1,1.9,1.9A1.9,1.9,0,0,1,74.738,62.01ZM58.475,37.021a1.9,1.9,0,1,1,1.9,1.9A1.9,1.9,0,0,1,58.475,37.021Zm.426,4.844v3H51.732v-3Zm-10.114,3H41.618v-3h7.169ZM38.246,37.021a1.9,1.9,0,1,1,1.9,1.9A1.9,1.9,0,0,1,38.246,37.021Z" fill="#0f2771"/>
      <path id="Trazado_207565" data-name="Trazado 207565" d="M212.519,223.215a1.472,1.472,0,0,0-2.775,0l-5.355,15.072a1.472,1.472,0,0,0,2.775.986l1.272-3.582h5.389l1.272,3.582a1.473,1.473,0,0,0,2.775-.986Zm-3.036,9.531,1.649-4.64,1.649,4.64Z" transform="translate(-164.193 -159.121)" fill="#0f2771"/>
      <path id="Trazado_207566" data-name="Trazado 207566" d="M286.59,262.643a1.472,1.472,0,0,0-1.472,1.472v7.139a1.472,1.472,0,1,0,2.945,0v-7.139A1.472,1.472,0,0,0,286.59,262.643Z" transform="translate(-229.141 -191.595)" fill="#0f2771"/>
    </g>
  </g>
</svg>
