<svg xmlns="http://www.w3.org/2000/svg" width="80" height="80" viewBox="0 0 80 80">
  <g id="codigos-del-sitio-web" transform="translate(-1 -1)">
    <g id="Grupo_148629" data-name="Grupo 148629" transform="translate(2.212 2.212)">
      <g id="Grupo_148626" data-name="Grupo 148626" transform="translate(0 15.887)">
        <path id="Trazado_207304" data-name="Trazado 207304" d="M1.97,14.68V71.518a4.855,4.855,0,0,0,4.85,4.85H74.695a4.855,4.855,0,0,0,4.85-4.85V14.68Z" transform="translate(-1.97 -14.68)" fill="#bddcf6"/>
      </g>
      <g id="Grupo_148627" data-name="Grupo 148627" transform="translate(0)">
        <path id="Trazado_207305" data-name="Trazado 207305" d="M79.545,6.82a4.855,4.855,0,0,0-4.85-4.85H6.82A4.855,4.855,0,0,0,1.97,6.82V17.858H79.545Z" transform="translate(-1.97 -1.97)" fill="#feca2e"/>
      </g>
      <g id="Grupo_148628" data-name="Grupo 148628" transform="translate(0 0)" opacity="0.12">
        <path id="Trazado_207306" data-name="Trazado 207306" d="M74.695,1.97H73.482V68.632a4.863,4.863,0,0,1-4.85,4.85H1.97v1.213a4.855,4.855,0,0,0,4.85,4.85H74.695a4.863,4.863,0,0,0,4.85-4.85V6.82a4.863,4.863,0,0,0-4.85-4.85Z" transform="translate(-1.97 -1.97)"/>
      </g>
    </g>
    <g id="Grupo_148666" data-name="Grupo 148666" transform="translate(1 1)">
      <g id="Grupo_148652" data-name="Grupo 148652">
        <g id="Grupo_148651" data-name="Grupo 148651">
          <g id="Grupo_148650" data-name="Grupo 148650">
            <g id="Grupo_148649" data-name="Grupo 148649">
              <g id="Grupo_148648" data-name="Grupo 148648">
                <g id="Grupo_148647" data-name="Grupo 148647">
                  <g id="Grupo_148646" data-name="Grupo 148646">
                    <g id="Grupo_148633" data-name="Grupo 148633" transform="translate(7.163 23.8)">
                      <g id="Grupo_148630" data-name="Grupo 148630" transform="translate(0)">
                        <path id="Trazado_207307" data-name="Trazado 207307" d="M27.118,22.465H7.943a1.212,1.212,0,1,1,0-2.425H27.118a1.212,1.212,0,0,1,0,2.425Z" transform="translate(-6.73 -20.04)"/>
                      </g>
                      <g id="Grupo_148631" data-name="Grupo 148631" transform="translate(8.275 5.737)">
                        <path id="Trazado_207308" data-name="Trazado 207308" d="M16.475,27.055H14.563a1.212,1.212,0,1,1,0-2.425h1.912a1.212,1.212,0,0,1,0,2.425Z" transform="translate(-13.35 -24.63)"/>
                      </g>
                      <g id="Grupo_148632" data-name="Grupo 148632" transform="translate(0 5.737)">
                        <path id="Trazado_207309" data-name="Trazado 207309" d="M12.1,27.055H7.943a1.212,1.212,0,1,1,0-2.425H12.1a1.212,1.212,0,1,1,0,2.425Z" transform="translate(-6.73 -24.63)"/>
                      </g>
                    </g>
                    <g id="Grupo_148645" data-name="Grupo 148645">
                      <g id="Grupo_148644" data-name="Grupo 148644">
                        <g id="Grupo_148643" data-name="Grupo 148643">
                          <g id="Grupo_148642" data-name="Grupo 148642">
                            <g id="Grupo_148641" data-name="Grupo 148641">
                              <g id="Grupo_148634" data-name="Grupo 148634" transform="translate(0)">
                                <path id="Trazado_207310" data-name="Trazado 207310" d="M74.938,81H7.063A6.076,6.076,0,0,1,1,74.938V7.063A6.076,6.076,0,0,1,7.063,1H74.938A6.076,6.076,0,0,1,81,7.063V74.938A6.076,6.076,0,0,1,74.938,81ZM7.063,3.425A3.641,3.641,0,0,0,3.425,7.062V74.938a3.641,3.641,0,0,0,3.637,3.637H74.938a3.641,3.641,0,0,0,3.637-3.637V7.062a3.641,3.641,0,0,0-3.637-3.637Z" transform="translate(-1 -1)"/>
                              </g>
                              <g id="Grupo_148635" data-name="Grupo 148635" transform="translate(0 15.887)">
                                <path id="Trazado_207311" data-name="Trazado 207311" d="M79.787,16.135H2.212a1.213,1.213,0,1,1,0-2.425H79.787a1.213,1.213,0,1,1,0,2.425Z" transform="translate(-1 -13.71)"/>
                              </g>
                              <g id="Grupo_148639" data-name="Grupo 148639" transform="translate(7.475 7.95)">
                                <g id="Grupo_148636" data-name="Grupo 148636">
                                  <path id="Trazado_207312" data-name="Trazado 207312" d="M10.755,9.785H8.193a1.213,1.213,0,0,1,0-2.425h2.563a1.206,1.206,0,0,1,1.213,1.213A1.222,1.222,0,0,1,10.755,9.785Z" transform="translate(-6.98 -7.36)"/>
                                </g>
                                <g id="Grupo_148637" data-name="Grupo 148637" transform="translate(7)">
                                  <path id="Trazado_207313" data-name="Trazado 207313" d="M16.355,9.785H13.793a1.213,1.213,0,1,1,0-2.425h2.563a1.213,1.213,0,0,1,0,2.425Z" transform="translate(-12.58 -7.36)"/>
                                </g>
                                <g id="Grupo_148638" data-name="Grupo 148638" transform="translate(14)">
                                  <path id="Trazado_207314" data-name="Trazado 207314" d="M21.955,9.785H19.393a1.213,1.213,0,0,1,0-2.425h2.563a1.213,1.213,0,0,1,0,2.425Z" transform="translate(-18.18 -7.36)"/>
                                </g>
                              </g>
                              <g id="Grupo_148640" data-name="Grupo 148640" transform="translate(41.2 7.95)">
                                <path id="Trazado_207315" data-name="Trazado 207315" d="M63.873,9.785h-28.7a1.213,1.213,0,1,1,0-2.425h28.7a1.206,1.206,0,0,1,1.212,1.213A1.222,1.222,0,0,1,63.873,9.785Z" transform="translate(-33.96 -7.36)"/>
                              </g>
                            </g>
                          </g>
                        </g>
                      </g>
                    </g>
                  </g>
                </g>
              </g>
            </g>
          </g>
        </g>
      </g>
      <g id="Grupo_148665" data-name="Grupo 148665" transform="translate(8.013 36.375)">
        <g id="Grupo_148653" data-name="Grupo 148653" transform="translate(0 18.537)">
          <path id="Trazado_207316" data-name="Trazado 207316" d="M12.5,44.93a4.423,4.423,0,0,0-3.812,1.85A8.1,8.1,0,0,0,7.41,51.567a8.1,8.1,0,0,0,1.275,4.788,4.423,4.423,0,0,0,3.812,1.85,4.436,4.436,0,0,0,3.8-1.838,8.1,8.1,0,0,0,1.287-4.787A8.1,8.1,0,0,0,16.3,46.792a4.4,4.4,0,0,0-3.8-1.863Zm2.775,6.625a6.179,6.179,0,0,1-.75,3.325,2.229,2.229,0,0,1-2.025,1.1,2.253,2.253,0,0,1-2.025-1.1,6.209,6.209,0,0,1-.75-3.325,6.191,6.191,0,0,1,.75-3.313,2.229,2.229,0,0,1,2.025-1.1,2.253,2.253,0,0,1,2.025,1.1A6.191,6.191,0,0,1,15.272,51.555Z" transform="translate(-7.41 -44.93)"/>
        </g>
        <g id="Grupo_148654" data-name="Grupo 148654" transform="translate(12.45 18.725)">
          <path id="Trazado_207317" data-name="Trazado 207317" d="M23.97,55.768H22.607V46.28a1.141,1.141,0,0,0-.35-.85,1.19,1.19,0,0,0-.85-.35h-.375a1.39,1.39,0,0,0-.65.162L18.02,46.48a1.106,1.106,0,0,0-.65,1.038,1.07,1.07,0,0,0,1.112,1.112,1.4,1.4,0,0,0,.563-.138l1.25-.612v7.9H18.582a1.1,1.1,0,0,0-.787.325,1.138,1.138,0,0,0-.312.788,1.086,1.086,0,0,0,.313.775,1.108,1.108,0,0,0,.775.313h5.388a1.138,1.138,0,0,0,.787-.312,1.075,1.075,0,0,0,.325-.788,1.1,1.1,0,0,0-.325-.787,1.047,1.047,0,0,0-.775-.325Z" transform="translate(-17.37 -45.08)"/>
        </g>
        <g id="Grupo_148655" data-name="Grupo 148655" transform="translate(21.912 18.537)">
          <path id="Trazado_207318" data-name="Trazado 207318" d="M30.027,44.93a4.423,4.423,0,0,0-3.812,1.85,8.1,8.1,0,0,0-1.275,4.787,8.1,8.1,0,0,0,1.275,4.788,4.423,4.423,0,0,0,3.812,1.85,4.436,4.436,0,0,0,3.8-1.838,8.1,8.1,0,0,0,1.287-4.787,8.1,8.1,0,0,0-1.287-4.788,4.41,4.41,0,0,0-3.8-1.863ZM32.8,51.555a6.179,6.179,0,0,1-.75,3.325,2.229,2.229,0,0,1-2.025,1.1A2.253,2.253,0,0,1,28,54.88a6.209,6.209,0,0,1-.75-3.325A6.191,6.191,0,0,1,28,48.242a2.229,2.229,0,0,1,2.025-1.1,2.253,2.253,0,0,1,2.025,1.1A6.191,6.191,0,0,1,32.8,51.555Z" transform="translate(-24.94 -44.93)"/>
        </g>
        <g id="Grupo_148656" data-name="Grupo 148656" transform="translate(43.825 18.537)">
          <path id="Trazado_207319" data-name="Trazado 207319" d="M47.558,44.93a4.423,4.423,0,0,0-3.812,1.85,8.1,8.1,0,0,0-1.275,4.787,8.1,8.1,0,0,0,1.275,4.788,4.851,4.851,0,0,0,7.612.012,8.1,8.1,0,0,0,1.287-4.787,8.1,8.1,0,0,0-1.287-4.788,4.41,4.41,0,0,0-3.8-1.863Zm2.775,6.625a6.179,6.179,0,0,1-.75,3.325,2.229,2.229,0,0,1-2.025,1.1,2.253,2.253,0,0,1-2.025-1.1,6.209,6.209,0,0,1-.75-3.325,6.191,6.191,0,0,1,.75-3.313,2.229,2.229,0,0,1,2.025-1.1,2.253,2.253,0,0,1,2.025,1.1A6.191,6.191,0,0,1,50.333,51.555Z" transform="translate(-42.47 -44.93)"/>
        </g>
        <g id="Grupo_148657" data-name="Grupo 148657" transform="translate(34.362 18.725)">
          <path id="Trazado_207320" data-name="Trazado 207320" d="M42.275,56.092a1.1,1.1,0,0,0-.788-.325H40.125V46.28a1.141,1.141,0,0,0-.35-.85,1.191,1.191,0,0,0-.85-.35h-.362a1.39,1.39,0,0,0-.65.162L35.55,46.48a1.106,1.106,0,0,0-.65,1.038,1.07,1.07,0,0,0,1.113,1.112,1.4,1.4,0,0,0,.563-.138l1.25-.612v7.9H36.112a1.1,1.1,0,0,0-.787.325,1.138,1.138,0,0,0-.312.788,1.086,1.086,0,0,0,.313.775,1.108,1.108,0,0,0,.775.313h5.388a1.138,1.138,0,0,0,.788-.312,1.075,1.075,0,0,0,.325-.788A1.1,1.1,0,0,0,42.275,56.092Z" transform="translate(-34.9 -45.08)"/>
        </g>
        <g id="Grupo_148658" data-name="Grupo 148658" transform="translate(56.275 18.725)">
          <path id="Trazado_207321" data-name="Trazado 207321" d="M59.805,56.092a1.1,1.1,0,0,0-.787-.325H57.655V46.28a1.141,1.141,0,0,0-.35-.85,1.19,1.19,0,0,0-.85-.35h-.363a1.39,1.39,0,0,0-.65.162L53.08,46.48a1.106,1.106,0,0,0-.65,1.038,1.07,1.07,0,0,0,1.112,1.112,1.4,1.4,0,0,0,.563-.138l1.25-.612v7.9H53.643a1.1,1.1,0,0,0-.788.325,1.138,1.138,0,0,0-.312.788,1.086,1.086,0,0,0,.313.775,1.108,1.108,0,0,0,.775.313h5.388a1.138,1.138,0,0,0,.787-.312,1.075,1.075,0,0,0,.325-.788A1.1,1.1,0,0,0,59.805,56.092Z" transform="translate(-52.43 -45.08)"/>
        </g>
        <g id="Grupo_148659" data-name="Grupo 148659" transform="translate(0.262 0.175)">
          <path id="Trazado_207322" data-name="Trazado 207322" d="M8.72,33.79a1.4,1.4,0,0,0,.563-.138l1.25-.612v7.9h-1.7a1.1,1.1,0,0,0-.788.325,1.138,1.138,0,0,0-.312.787,1.086,1.086,0,0,0,.312.775,1.108,1.108,0,0,0,.775.313h5.387a1.138,1.138,0,0,0,.787-.312,1.075,1.075,0,0,0,.325-.788,1.11,1.11,0,0,0-1.112-1.112H12.845V31.44a1.141,1.141,0,0,0-.35-.85,1.19,1.19,0,0,0-.85-.35h-.362a1.39,1.39,0,0,0-.65.162L8.27,31.64a1.106,1.106,0,0,0-.65,1.038,1.146,1.146,0,0,0,.313.8,1.094,1.094,0,0,0,.787.313Z" transform="translate(-7.62 -30.24)"/>
        </g>
        <g id="Grupo_148660" data-name="Grupo 148660" transform="translate(9.725)">
          <path id="Trazado_207323" data-name="Trazado 207323" d="M24.077,41.513a8.1,8.1,0,0,0,1.288-4.787,8.1,8.1,0,0,0-1.288-4.788,4.421,4.421,0,0,0-3.8-1.837,4.423,4.423,0,0,0-3.812,1.85,8.1,8.1,0,0,0-1.275,4.788,8.1,8.1,0,0,0,1.275,4.788,4.423,4.423,0,0,0,3.812,1.85,4.518,4.518,0,0,0,3.8-1.863ZM22.3,40.05a2.229,2.229,0,0,1-2.025,1.1,2.253,2.253,0,0,1-2.025-1.1,6.209,6.209,0,0,1-.75-3.325,6.191,6.191,0,0,1,.75-3.313,2.229,2.229,0,0,1,2.025-1.1,2.253,2.253,0,0,1,2.025,1.1,6.191,6.191,0,0,1,.75,3.313A6.209,6.209,0,0,1,22.3,40.05Z" transform="translate(-15.19 -30.1)"/>
        </g>
        <g id="Grupo_148661" data-name="Grupo 148661" transform="translate(22.162 0.175)">
          <path id="Trazado_207324" data-name="Trazado 207324" d="M26.252,33.79a1.4,1.4,0,0,0,.563-.138l1.25-.612v7.9H26.353a1.1,1.1,0,0,0-.788.325,1.138,1.138,0,0,0-.312.787,1.086,1.086,0,0,0,.313.775,1.108,1.108,0,0,0,.775.313h5.387a1.138,1.138,0,0,0,.787-.312,1.075,1.075,0,0,0,.325-.788,1.11,1.11,0,0,0-1.112-1.112H30.365V31.44a1.141,1.141,0,0,0-.35-.85,1.191,1.191,0,0,0-.85-.35H28.8a1.39,1.39,0,0,0-.65.162L25.79,31.64a1.106,1.106,0,0,0-.65,1.038,1.07,1.07,0,0,0,1.113,1.112Z" transform="translate(-25.14 -30.24)"/>
        </g>
        <g id="Grupo_148662" data-name="Grupo 148662" transform="translate(44.075 0.175)">
          <path id="Trazado_207325" data-name="Trazado 207325" d="M43.783,33.79a1.4,1.4,0,0,0,.563-.138l1.25-.612v7.9H43.883a1.1,1.1,0,0,0-.788.325,1.138,1.138,0,0,0-.312.787,1.086,1.086,0,0,0,.313.775,1.108,1.108,0,0,0,.775.313h5.387a1.138,1.138,0,0,0,.788-.312,1.075,1.075,0,0,0,.325-.788,1.11,1.11,0,0,0-1.113-1.112H47.9V31.44a1.141,1.141,0,0,0-.35-.85,1.191,1.191,0,0,0-.85-.35h-.362a1.39,1.39,0,0,0-.65.162L43.32,31.64a1.106,1.106,0,0,0-.65,1.038,1.07,1.07,0,0,0,1.112,1.112Z" transform="translate(-42.67 -30.24)"/>
        </g>
        <g id="Grupo_148663" data-name="Grupo 148663" transform="translate(31.637)">
          <path id="Trazado_207326" data-name="Trazado 207326" d="M41.608,41.513A8.1,8.1,0,0,0,42.9,36.725a8.1,8.1,0,0,0-1.287-4.788,4.421,4.421,0,0,0-3.8-1.837A4.423,4.423,0,0,0,34,31.95a8.1,8.1,0,0,0-1.275,4.788A8.1,8.1,0,0,0,34,41.525a4.423,4.423,0,0,0,3.813,1.85,4.534,4.534,0,0,0,3.8-1.863ZM39.833,40.05a2.229,2.229,0,0,1-2.025,1.1,2.253,2.253,0,0,1-2.025-1.1,6.209,6.209,0,0,1-.75-3.325,6.191,6.191,0,0,1,.75-3.313,2.229,2.229,0,0,1,2.025-1.1,2.253,2.253,0,0,1,2.025,1.1,6.191,6.191,0,0,1,.75,3.313A6.209,6.209,0,0,1,39.833,40.05Z" transform="translate(-32.72 -30.1)"/>
        </g>
        <g id="Grupo_148664" data-name="Grupo 148664" transform="translate(53.55)">
          <path id="Trazado_207327" data-name="Trazado 207327" d="M59.137,41.513a8.1,8.1,0,0,0,1.288-4.787,8.1,8.1,0,0,0-1.288-4.788,4.851,4.851,0,0,0-7.612.013,8.1,8.1,0,0,0-1.275,4.788,8.1,8.1,0,0,0,1.275,4.788,4.423,4.423,0,0,0,3.813,1.85,4.534,4.534,0,0,0,3.8-1.863ZM57.362,40.05a2.229,2.229,0,0,1-2.025,1.1,2.253,2.253,0,0,1-2.025-1.1,6.209,6.209,0,0,1-.75-3.325,6.191,6.191,0,0,1,.75-3.313,2.229,2.229,0,0,1,2.025-1.1,2.253,2.253,0,0,1,2.025,1.1,6.191,6.191,0,0,1,.75,3.313A6.209,6.209,0,0,1,57.362,40.05Z" transform="translate(-50.25 -30.1)"/>
        </g>
      </g>
    </g>
  </g>
</svg>
