<svg xmlns="http://www.w3.org/2000/svg" width="610" height="272" viewBox="0 0 610 272">
  <g id="Grupo_172780" data-name="Grupo 172780" transform="translate(-515 -1752)">
    <rect id="Rectángulo_294688" data-name="Rectángulo 294688" width="610" height="272" rx="16" transform="translate(515 1752)" fill="#bddcf6" opacity="0.2"/>
    <g id="Grupo_148953" data-name="Grupo 148953" transform="translate(-23 -111.317)">
      <path id="Trazado_206673" data-name="Trazado 206673" d="M166.482,199.65l-14.914-14.914v7.969H109.83V206.6h41.738v7.969Z" transform="translate(654.053 1878.818)" fill="#4dd0e1"/>
      <path id="Trazado_206674" data-name="Trazado 206674" d="M109.83,48.5l14.914,14.914V55.446h41.738V41.556H124.744V33.587Z" transform="translate(654.053 1878.818)" fill="#4dd0e1"/>
      <path id="Trazado_206675" data-name="Trazado 206675" d="M291.1,91.026,276.184,105.94h7.969v41.738h13.89V105.94h7.969Z" transform="translate(646.816 1878.818)" fill="#4dd0e1"/>
      <path id="Trazado_206676" data-name="Trazado 206676" d="M25.225,147.678l14.914-14.914H32.17V91.026H18.279v41.738H10.311Z" transform="translate(630.689 1878.818)" fill="#4dd0e1"/>
      <path id="Trazado_206677" data-name="Trazado 206677" d="M347.48,229.182H230.094a5.669,5.669,0,0,1-5.669-5.669V187.362a5.669,5.669,0,0,1,5.669-5.669H347.48a5.669,5.669,0,0,1,5.669,5.669v36.151a5.669,5.669,0,0,1-5.669,5.669" transform="translate(648.575 1879.307)" fill="#feca2e"/>
      <path id="Trazado_207579" data-name="Trazado 207579" d="M4.5-4.824V0H1.074V-14.219H6.748a6.608,6.608,0,0,1,2.886.6,4.526,4.526,0,0,1,1.943,1.709,4.667,4.667,0,0,1,.688,2.515,4.114,4.114,0,0,1-1.489,3.325A6.179,6.179,0,0,1,6.689-4.824Zm0-2.646H6.748a2.118,2.118,0,0,0,1.519-.5,1.85,1.85,0,0,0,.522-1.406,2.287,2.287,0,0,0-.537-1.592,1.9,1.9,0,0,0-1.465-.605H4.5Zm15.83-.117-1.084-.078a1.947,1.947,0,0,0-1.992.977V0H13.965V-10.566h3.086l.107,1.357a2.548,2.548,0,0,1,2.314-1.553,3.209,3.209,0,0,1,.918.117ZM26.631.2A5.432,5.432,0,0,1,22.7-1.255a5.008,5.008,0,0,1-1.5-3.774V-5.3a6.489,6.489,0,0,1,.6-2.861,4.395,4.395,0,0,1,1.753-1.919,5.292,5.292,0,0,1,2.734-.679A4.574,4.574,0,0,1,29.795-9.38a5.43,5.43,0,0,1,1.289,3.853v1.279H24.541a2.372,2.372,0,0,0,.771,1.4,2.3,2.3,0,0,0,1.543.508A2.958,2.958,0,0,0,29.3-3.437L30.8-1.66A4.2,4.2,0,0,1,29.058-.308,5.891,5.891,0,0,1,26.631.2ZM26.26-8.223q-1.445,0-1.719,1.914h3.32v-.254a1.63,1.63,0,0,0-.4-1.226A1.593,1.593,0,0,0,26.26-8.223Zm5.732,2.861a6.455,6.455,0,0,1,1.084-3.955A3.568,3.568,0,0,1,36.1-10.762a3.035,3.035,0,0,1,2.383,1.113V-15h3.3V0H38.828l-.166-1.133A3.116,3.116,0,0,1,36.084.2,3.562,3.562,0,0,1,33.1-1.25,6.659,6.659,0,0,1,31.992-5.361Zm3.291.205q0,2.813,1.641,2.813a1.62,1.62,0,0,0,1.563-.918V-7.285a1.576,1.576,0,0,0-1.543-.937q-1.523,0-1.65,2.461ZM47.129,0h-3.3V-10.566h3.3Zm-3.5-13.291a1.469,1.469,0,0,1,.508-1.152,1.916,1.916,0,0,1,1.318-.449,1.916,1.916,0,0,1,1.318.449,1.469,1.469,0,0,1,.508,1.152,1.469,1.469,0,0,1-.508,1.152,1.916,1.916,0,0,1-1.318.449,1.916,1.916,0,0,1-1.318-.449A1.469,1.469,0,0,1,43.633-13.291Zm9.99,10.947A1.464,1.464,0,0,0,54.7-2.72a1.379,1.379,0,0,0,.371-1.05h3.086A3.653,3.653,0,0,1,56.909-.918,4.631,4.631,0,0,1,53.7.2,4.689,4.689,0,0,1,50.068-1.25a5.7,5.7,0,0,1-1.328-4v-.137a6.436,6.436,0,0,1,.591-2.827,4.3,4.3,0,0,1,1.7-1.885,5.081,5.081,0,0,1,2.637-.659,4.573,4.573,0,0,1,3.271,1.143,4.053,4.053,0,0,1,1.211,3.1H55.068a1.807,1.807,0,0,0-.4-1.26,1.382,1.382,0,0,0-1.074-.439q-1.279,0-1.494,1.631a11.507,11.507,0,0,0-.068,1.426,4.52,4.52,0,0,0,.381,2.207A1.319,1.319,0,0,0,53.623-2.344Zm10.391,0a1.464,1.464,0,0,0,1.074-.376,1.379,1.379,0,0,0,.371-1.05h3.086A3.653,3.653,0,0,1,67.3-.918,4.631,4.631,0,0,1,64.092.2,4.689,4.689,0,0,1,60.459-1.25a5.7,5.7,0,0,1-1.328-4v-.137a6.436,6.436,0,0,1,.591-2.827,4.3,4.3,0,0,1,1.7-1.885,5.081,5.081,0,0,1,2.637-.659,4.573,4.573,0,0,1,3.271,1.143,4.053,4.053,0,0,1,1.211,3.1H65.459a1.806,1.806,0,0,0-.4-1.26,1.382,1.382,0,0,0-1.074-.439q-1.279,0-1.494,1.631a11.507,11.507,0,0,0-.068,1.426A4.52,4.52,0,0,0,62.8-2.959,1.319,1.319,0,0,0,64.014-2.344ZM73.408,0h-3.3V-10.566h3.3Zm-3.5-13.291a1.469,1.469,0,0,1,.508-1.152,1.916,1.916,0,0,1,1.318-.449,1.916,1.916,0,0,1,1.318.449,1.469,1.469,0,0,1,.508,1.152,1.469,1.469,0,0,1-.508,1.152,1.916,1.916,0,0,1-1.318.449,1.916,1.916,0,0,1-1.318-.449A1.469,1.469,0,0,1,69.912-13.291Zm5.107,7.91A6.236,6.236,0,0,1,75.635-8.2,4.4,4.4,0,0,1,77.4-10.1a5.323,5.323,0,0,1,2.705-.664,4.858,4.858,0,0,1,3.74,1.47,5.64,5.64,0,0,1,1.367,4v.117a5.472,5.472,0,0,1-1.372,3.921A4.871,4.871,0,0,1,80.127.2,4.927,4.927,0,0,1,76.5-1.157a5.29,5.29,0,0,1-1.475-3.667Zm3.291.205a3.932,3.932,0,0,0,.459,2.148,1.529,1.529,0,0,0,1.357.684q1.758,0,1.8-2.705v-.332q0-2.842-1.816-2.842-1.65,0-1.787,2.451ZM80.557-15h3.477l-2.715,3.066-2.686,0Zm9.131,4.434.107,1.24a3.583,3.583,0,0,1,3.018-1.436,3.015,3.015,0,0,1,2.466.986,4.7,4.7,0,0,1,.845,2.969V0h-3.3V-6.67A1.783,1.783,0,0,0,92.5-7.847a1.491,1.491,0,0,0-1.172-.376,1.569,1.569,0,0,0-1.436.762V0H86.6V-10.566Z" transform="translate(889 2091)" fill="#12263f"/>
      <path id="Trazado_207580" data-name="Trazado 207580" d="M4.727,0H1.309V-14.219H4.727Zm6.064-13.193v2.627h1.738v2.285H10.791v4.834a1.234,1.234,0,0,0,.215.83,1.152,1.152,0,0,0,.85.234,4.828,4.828,0,0,0,.82-.059V-.088A6.074,6.074,0,0,1,10.82.2a3.448,3.448,0,0,1-2.51-.8A3.282,3.282,0,0,1,7.5-3.037V-8.281H6.152v-2.285H7.5v-2.627ZM18.936.2A5.432,5.432,0,0,1,15-1.255a5.008,5.008,0,0,1-1.5-3.774V-5.3a6.489,6.489,0,0,1,.6-2.861,4.395,4.395,0,0,1,1.753-1.919,5.292,5.292,0,0,1,2.734-.679A4.574,4.574,0,0,1,22.1-9.38a5.43,5.43,0,0,1,1.289,3.853v1.279H16.846a2.372,2.372,0,0,0,.771,1.4,2.3,2.3,0,0,0,1.543.508A2.958,2.958,0,0,0,21.6-3.437l1.5,1.777A4.2,4.2,0,0,1,21.362-.308,5.891,5.891,0,0,1,18.936.2Zm-.371-8.418q-1.445,0-1.719,1.914h3.32v-.254a1.63,1.63,0,0,0-.4-1.226A1.593,1.593,0,0,0,18.564-8.223ZM31.1-7.588,30.02-7.666a1.947,1.947,0,0,0-1.992.977V0H24.736V-10.566h3.086l.107,1.357a2.548,2.548,0,0,1,2.314-1.553,3.209,3.209,0,0,1,.918.117ZM37.949,0a3.716,3.716,0,0,1-.312-.947A3.06,3.06,0,0,1,35.1.2a3.749,3.749,0,0,1-2.539-.9,2.875,2.875,0,0,1-1.045-2.271,2.955,2.955,0,0,1,1.27-2.6,6.468,6.468,0,0,1,3.691-.879H37.49v-.559q0-1.462-1.26-1.462a1.03,1.03,0,0,0-1.172,1.158H31.768a2.95,2.95,0,0,1,1.3-2.487,5.479,5.479,0,0,1,3.325-.956,4.8,4.8,0,0,1,3.193.986,3.429,3.429,0,0,1,1.2,2.705v4.678A4.79,4.79,0,0,0,41.24-.166V0ZM35.889-2.148a1.836,1.836,0,0,0,1.021-.264,1.653,1.653,0,0,0,.581-.6V-4.7h-.957q-1.719,0-1.719,1.543a.942.942,0,0,0,.3.728A1.1,1.1,0,0,0,35.889-2.148Zm11.191-.2a1.464,1.464,0,0,0,1.074-.376,1.379,1.379,0,0,0,.371-1.05h3.086A3.653,3.653,0,0,1,50.366-.918,4.631,4.631,0,0,1,47.158.2,4.689,4.689,0,0,1,43.525-1.25a5.7,5.7,0,0,1-1.328-4v-.137a6.436,6.436,0,0,1,.591-2.827,4.3,4.3,0,0,1,1.7-1.885,5.081,5.081,0,0,1,2.637-.659A4.573,4.573,0,0,1,50.4-9.619a4.053,4.053,0,0,1,1.211,3.1H48.525a1.807,1.807,0,0,0-.4-1.26,1.382,1.382,0,0,0-1.074-.439q-1.279,0-1.494,1.631a11.507,11.507,0,0,0-.068,1.426,4.52,4.52,0,0,0,.381,2.207A1.319,1.319,0,0,0,47.08-2.344ZM56.475,0h-3.3V-10.566h3.3Zm-3.5-13.291a1.469,1.469,0,0,1,.508-1.152,1.916,1.916,0,0,1,1.318-.449,1.916,1.916,0,0,1,1.318.449,1.469,1.469,0,0,1,.508,1.152,1.469,1.469,0,0,1-.508,1.152,1.916,1.916,0,0,1-1.318.449,1.916,1.916,0,0,1-1.318-.449A1.469,1.469,0,0,1,52.979-13.291Zm5.107,7.91A6.236,6.236,0,0,1,58.7-8.2a4.4,4.4,0,0,1,1.768-1.9,5.323,5.323,0,0,1,2.705-.664,4.858,4.858,0,0,1,3.74,1.47,5.64,5.64,0,0,1,1.367,4v.117a5.472,5.472,0,0,1-1.372,3.921A4.871,4.871,0,0,1,63.193.2,4.927,4.927,0,0,1,59.57-1.157,5.29,5.29,0,0,1,58.1-4.824Zm3.291.205a3.932,3.932,0,0,0,.459,2.148,1.529,1.529,0,0,0,1.357.684q1.758,0,1.8-2.705v-.332q0-2.842-1.816-2.842-1.65,0-1.787,2.451ZM63.623-15H67.1l-2.715,3.066-2.686,0Zm9.131,4.434.107,1.24a3.583,3.583,0,0,1,3.018-1.436,3.015,3.015,0,0,1,2.466.986,4.7,4.7,0,0,1,.845,2.969V0h-3.3V-6.67a1.783,1.783,0,0,0-.322-1.177,1.491,1.491,0,0,0-1.172-.376,1.569,1.569,0,0,0-1.436.762V0H69.668V-10.566ZM85.576-5.381A6.236,6.236,0,0,1,86.191-8.2a4.4,4.4,0,0,1,1.768-1.9,5.323,5.323,0,0,1,2.705-.664,4.858,4.858,0,0,1,3.74,1.47,5.64,5.64,0,0,1,1.367,4v.117A5.472,5.472,0,0,1,94.4-1.255,4.871,4.871,0,0,1,90.684.2a4.927,4.927,0,0,1-3.623-1.353,5.29,5.29,0,0,1-1.475-3.667Zm3.291.205a3.932,3.932,0,0,0,.459,2.148,1.529,1.529,0,0,0,1.357.684q1.758,0,1.8-2.705v-.332q0-2.842-1.816-2.842-1.65,0-1.787,2.451ZM6.875,27a3.716,3.716,0,0,1-.312-.947A3.06,3.06,0,0,1,4.023,27.2a3.749,3.749,0,0,1-2.539-.9A2.875,2.875,0,0,1,.439,24.021a2.955,2.955,0,0,1,1.27-2.6A6.468,6.468,0,0,1,5.4,20.545H6.416v-.559q0-1.462-1.26-1.462a1.03,1.03,0,0,0-1.172,1.158H.693A2.95,2.95,0,0,1,2,17.194a5.479,5.479,0,0,1,3.325-.956,4.8,4.8,0,0,1,3.193.986,3.429,3.429,0,0,1,1.2,2.705v4.678a4.79,4.79,0,0,0,.449,2.227V27ZM4.814,24.852a1.836,1.836,0,0,0,1.021-.264,1.653,1.653,0,0,0,.581-.6V22.3H5.459q-1.719,0-1.719,1.543a.942.942,0,0,0,.3.728A1.1,1.1,0,0,0,4.814,24.852Zm11.191-.2a1.464,1.464,0,0,0,1.074-.376,1.379,1.379,0,0,0,.371-1.05h3.086a3.653,3.653,0,0,1-1.245,2.852A4.631,4.631,0,0,1,16.084,27.2a4.689,4.689,0,0,1-3.633-1.445,5.7,5.7,0,0,1-1.328-4v-.137a6.436,6.436,0,0,1,.591-2.827,4.3,4.3,0,0,1,1.7-1.885,5.081,5.081,0,0,1,2.637-.659,4.573,4.573,0,0,1,3.271,1.143,4.053,4.053,0,0,1,1.211,3.1H17.451a1.807,1.807,0,0,0-.4-1.26,1.382,1.382,0,0,0-1.074-.439q-1.279,0-1.494,1.631a11.508,11.508,0,0,0-.068,1.426,4.52,4.52,0,0,0,.381,2.207A1.319,1.319,0,0,0,16.006,24.656Zm9.756-10.85v2.627H27.5v2.285H25.762v4.834a1.234,1.234,0,0,0,.215.83,1.152,1.152,0,0,0,.85.234,4.828,4.828,0,0,0,.82-.059v2.354a6.074,6.074,0,0,1-1.855.283,3.448,3.448,0,0,1-2.51-.8,3.282,3.282,0,0,1-.811-2.432V18.719H21.123V16.434h1.348V13.807Zm9.326,12.051A3.393,3.393,0,0,1,32.266,27.2a3.328,3.328,0,0,1-2.632-1.011,4.251,4.251,0,0,1-.894-2.905V16.434h3.291V23.3a1.183,1.183,0,0,0,1.318,1.357,1.72,1.72,0,0,0,1.611-.811V16.434h3.311V27H35.186ZM46.025,27a3.716,3.716,0,0,1-.312-.947A3.06,3.06,0,0,1,43.174,27.2a3.749,3.749,0,0,1-2.539-.9,2.875,2.875,0,0,1-1.045-2.271,2.955,2.955,0,0,1,1.27-2.6,6.468,6.468,0,0,1,3.691-.879h1.016v-.559q0-1.462-1.26-1.462a1.03,1.03,0,0,0-1.172,1.158H39.844a2.95,2.95,0,0,1,1.3-2.487,5.479,5.479,0,0,1,3.325-.956,4.8,4.8,0,0,1,3.193.986,3.429,3.429,0,0,1,1.2,2.705v4.678a4.79,4.79,0,0,0,.449,2.227V27Zm-2.061-2.148a1.836,1.836,0,0,0,1.021-.264,1.653,1.653,0,0,0,.581-.6V22.3h-.957q-1.719,0-1.719,1.543a.942.942,0,0,0,.3.728A1.1,1.1,0,0,0,43.965,24.852ZM54.16,27h-3.3V12h3.3Zm5.5,0h-3.3V16.434h3.3Zm-3.5-13.291a1.469,1.469,0,0,1,.508-1.152,2.159,2.159,0,0,1,2.637,0,1.561,1.561,0,0,1,0,2.3,2.159,2.159,0,0,1-2.637,0A1.469,1.469,0,0,1,56.162,13.709Zm9.4,10.752h4.814V27H61.406V25.164l4.688-6.191H61.611V16.434h8.662v1.777ZM77.93,27a3.716,3.716,0,0,1-.312-.947A3.06,3.06,0,0,1,75.078,27.2a3.749,3.749,0,0,1-2.539-.9,2.875,2.875,0,0,1-1.045-2.271,2.955,2.955,0,0,1,1.27-2.6,6.468,6.468,0,0,1,3.691-.879h1.016v-.559q0-1.462-1.26-1.462a1.03,1.03,0,0,0-1.172,1.158H71.748a2.95,2.95,0,0,1,1.3-2.487,5.479,5.479,0,0,1,3.325-.956,4.8,4.8,0,0,1,3.193.986,3.429,3.429,0,0,1,1.2,2.705v4.678a4.79,4.79,0,0,0,.449,2.227V27Zm-2.061-2.148a1.836,1.836,0,0,0,1.021-.264,1.653,1.653,0,0,0,.581-.6V22.3h-.957q-1.719,0-1.719,1.543a.942.942,0,0,0,.3.728A1.1,1.1,0,0,0,75.869,24.852Zm11.191-.2a1.464,1.464,0,0,0,1.074-.376,1.379,1.379,0,0,0,.371-1.05h3.086a3.653,3.653,0,0,1-1.245,2.852A4.631,4.631,0,0,1,87.139,27.2a4.689,4.689,0,0,1-3.633-1.445,5.7,5.7,0,0,1-1.328-4v-.137a6.436,6.436,0,0,1,.591-2.827,4.3,4.3,0,0,1,1.7-1.885,5.081,5.081,0,0,1,2.637-.659,4.573,4.573,0,0,1,3.271,1.143,4.053,4.053,0,0,1,1.211,3.1H88.506a1.806,1.806,0,0,0-.4-1.26,1.382,1.382,0,0,0-1.074-.439q-1.279,0-1.494,1.631a11.508,11.508,0,0,0-.068,1.426,4.52,4.52,0,0,0,.381,2.207A1.319,1.319,0,0,0,87.061,24.656ZM96.455,27h-3.3V16.434h3.3Zm-3.5-13.291a1.469,1.469,0,0,1,.508-1.152,2.159,2.159,0,0,1,2.637,0,1.561,1.561,0,0,1,0,2.3,2.159,2.159,0,0,1-2.637,0A1.469,1.469,0,0,1,92.959,13.709Zm5.107,7.91a6.236,6.236,0,0,1,.615-2.817,4.4,4.4,0,0,1,1.768-1.9,5.323,5.323,0,0,1,2.705-.664,4.858,4.858,0,0,1,3.74,1.47,5.64,5.64,0,0,1,1.367,4v.117a5.472,5.472,0,0,1-1.372,3.921,4.871,4.871,0,0,1-3.716,1.45,4.927,4.927,0,0,1-3.623-1.353,5.29,5.29,0,0,1-1.475-3.667Zm3.291.205a3.932,3.932,0,0,0,.459,2.148,1.529,1.529,0,0,0,1.357.684q1.758,0,1.8-2.705v-.332q0-2.842-1.816-2.842-1.65,0-1.787,2.451ZM103.6,12h3.477l-2.715,3.066-2.686,0Zm9.131,4.434.107,1.24a3.583,3.583,0,0,1,3.018-1.436,3.015,3.015,0,0,1,2.466.986,4.7,4.7,0,0,1,.845,2.969V27h-3.3V20.33a1.783,1.783,0,0,0-.322-1.177,1.491,1.491,0,0,0-1.172-.376,1.569,1.569,0,0,0-1.436.762V27h-3.291V16.434Z" transform="translate(980 1920.318)" fill="#12263f"/>
      <path id="Trazado_207578" data-name="Trazado 207578" d="M5.576-14.219,8.75-4.326l3.164-9.893h4.512V0H12.988V-3.32l.332-6.8L9.883,0H7.617L4.17-10.127,4.5-3.32V0H1.074V-14.219ZM18.037-5.381A6.236,6.236,0,0,1,18.652-8.2a4.4,4.4,0,0,1,1.768-1.9,5.323,5.323,0,0,1,2.705-.664,4.858,4.858,0,0,1,3.74,1.47,5.64,5.64,0,0,1,1.367,4v.117A5.472,5.472,0,0,1,26.86-1.255,4.871,4.871,0,0,1,23.145.2a4.927,4.927,0,0,1-3.623-1.353,5.29,5.29,0,0,1-1.475-3.667Zm3.291.205a3.932,3.932,0,0,0,.459,2.148,1.529,1.529,0,0,0,1.357.684q1.758,0,1.8-2.705v-.332q0-2.842-1.816-2.842-1.65,0-1.787,2.451Zm7.939-.186a6.455,6.455,0,0,1,1.084-3.955,3.568,3.568,0,0,1,3.027-1.445,3.035,3.035,0,0,1,2.383,1.113V-15h3.3V0H36.1l-.166-1.133A3.116,3.116,0,0,1,33.359.2,3.562,3.562,0,0,1,30.371-1.25,6.659,6.659,0,0,1,29.268-5.361Zm3.291.205q0,2.813,1.641,2.813a1.62,1.62,0,0,0,1.563-.918V-7.285a1.576,1.576,0,0,0-1.543-.937q-1.523,0-1.65,2.461ZM46.045.2a5.432,5.432,0,0,1-3.936-1.45,5.008,5.008,0,0,1-1.5-3.774V-5.3a6.489,6.489,0,0,1,.6-2.861,4.395,4.395,0,0,1,1.753-1.919,5.292,5.292,0,0,1,2.734-.679A4.574,4.574,0,0,1,49.209-9.38,5.43,5.43,0,0,1,50.5-5.527v1.279H43.955a2.372,2.372,0,0,0,.771,1.4,2.3,2.3,0,0,0,1.543.508,2.958,2.958,0,0,0,2.441-1.094l1.5,1.777A4.2,4.2,0,0,1,48.472-.308,5.891,5.891,0,0,1,46.045.2Zm-.371-8.418q-1.445,0-1.719,1.914h3.32v-.254a1.63,1.63,0,0,0-.4-1.226A1.593,1.593,0,0,0,45.674-8.223ZM55.293,0h-3.3V-15h3.3ZM56.9-5.381A6.236,6.236,0,0,1,57.52-8.2a4.4,4.4,0,0,1,1.768-1.9,5.323,5.323,0,0,1,2.705-.664,4.858,4.858,0,0,1,3.74,1.47,5.64,5.64,0,0,1,1.367,4v.117a5.472,5.472,0,0,1-1.372,3.921A4.871,4.871,0,0,1,62.012.2a4.927,4.927,0,0,1-3.623-1.353,5.29,5.29,0,0,1-1.475-3.667Zm3.291.205a3.932,3.932,0,0,0,.459,2.148,1.529,1.529,0,0,0,1.357.684q1.758,0,1.8-2.705v-.332q0-2.842-1.816-2.842-1.65,0-1.787,2.451Z" transform="translate(547 2074.492)" fill="#12263f"/>
      <path id="Trazado_206678" data-name="Trazado 206678" d="M297.642,58.029l-8.548-8.548v-13h4V47.825L300.47,55.2Z" transform="translate(642.906 1878.818)" fill="#0c1d30"/>
      <path id="Trazado_206679" data-name="Trazado 206679" d="M310.957,48.735a19.868,19.868,0,1,1-4.409-12.473l-4.574,4.575L313.063,42.9V29.747l-4.382,4.382a22.86,22.86,0,1,0,5.276,14.606Z" transform="translate(646.767 1878.818)" fill="#0c1d30"/>
      <path id="Trazado_206680" data-name="Trazado 206680" d="M54.83,57.96v5.434c0,2.263-.032,4.528.018,6.79a1.647,1.647,0,0,1-.744,1.67,42.281,42.281,0,0,1-5.119,2.7c-7.7,2.938-15.642,3.453-23.681,2.713a41.8,41.8,0,0,1-13.8-3.434c-.227-.1-.453-.21-.684-.308-2.255-.943-3.462-2.444-3.186-5.5.3-3.26.067-6.579.067-10.055,7.477,4.2,15.422,5.321,23.519,5.324,8.115,0,16.08-1.093,23.612-5.342" transform="translate(622.58 1867.278)" fill="#0c1d30"/>
      <path id="Trazado_206681" data-name="Trazado 206681" d="M7.682,45.177c7.416,4.915,15.457,6,23.635,5.991,8.143-.014,16.154-1.079,23.5-6.023v6.517c0,1.628-.123,3.271.035,4.878a2.647,2.647,0,0,1-1.614,2.953,48.383,48.383,0,0,1-7.354,3.1,54.764,54.764,0,0,1-29.251,0A48.526,48.526,0,0,1,9.18,59.445a2.711,2.711,0,0,1-1.541-2.886c.132-3.725.043-7.459.043-11.382" transform="translate(622.538 1862.233)" fill="#0c1d30"/>
      <path id="Trazado_206682" data-name="Trazado 206682" d="M30.893,39.979a44.3,44.3,0,0,1-17.774-3.4,16.61,16.61,0,0,1-4.291-2.911c-1.566-1.424-1.569-3.062-.015-4.521A16.154,16.154,0,0,1,12.9,26.321C18.83,23.54,25.1,22.837,31.438,22.858c6.231.018,12.4.734,18.211,3.5a16.01,16.01,0,0,1,4.074,2.854c1.505,1.433,1.417,2.921-.026,4.464a14.272,14.272,0,0,1-5.675,3.5,49.086,49.086,0,0,1-17.128,2.8" transform="translate(622.523 1853.46)" fill="#0c1d30"/>
      <path id="Trazado_206683" data-name="Trazado 206683" d="M7.686,33.724c2.194,1.052,4.224,2.238,6.369,3.017a51.325,51.325,0,0,0,21.086,2.672A44.982,44.982,0,0,0,49.448,36.37c1.8-.734,3.5-1.778,5.3-2.713a7.563,7.563,0,0,1,.066.768c.006,2.7-.035,5.4.021,8.1a3.776,3.776,0,0,1-1.274,3.226,23.624,23.624,0,0,1-4.142,2.757,37.15,37.15,0,0,1-13.1,3.166,50.338,50.338,0,0,1-18.489-1.481,39.707,39.707,0,0,1-7.423-3.2,5.133,5.133,0,0,1-2.762-5.36c.185-2.637.04-5.3.04-7.9" transform="translate(622.549 1857.711)" fill="#0c1d30"/>
      <path id="Trazado_206684" data-name="Trazado 206684" d="M19.579,164.5c.044,0,.161,0,.487.411q1.741,2.2,3.488,4.389l.936,1.176c.053.067.111.132.178.205l.09.1.444.5.461-.488.085-.087c.078-.08.15-.155.213-.234q2.241-2.814,4.477-5.631c.268-.336.392-.336.439-.336a1,1,0,0,1,.433.148q6.593,3.48,13.181,6.964l3.011,1.591.785.414c.583.306,1.165.612,1.745.925.232.126.375.269.4.4a.745.745,0,0,1-.219.545q-1.6,2.017-3.209,4.03l-1.511,1.9c-.068.084-.133.171-.2.265l-.107.142-.29.379.3.374.564.712,1.8,2.277q1.344,1.7,2.691,3.387a.667.667,0,0,1,.194.508c-.036.176-.244.309-.365.374l-.813.431c-1.264.672-2.527,1.344-3.8,2a1.234,1.234,0,0,0-.729,1.208q.009,2.073.006,4.147,0,2.23.009,4.462a.678.678,0,0,1-.411.728q-3.955,2.077-7.9,4.169l-2.392,1.265-1.771.936q-3.353,1.771-6.7,3.547a.807.807,0,0,1-.371.109.681.681,0,0,1-.315-.089l-1.634-.865q-8.581-4.542-17.168-9.074a.646.646,0,0,1-.409-.683q.009-2.086.006-4.173c0-1.493,0-2.986.008-4.478a1.269,1.269,0,0,0-.752-1.237c-.889-.46-1.773-.93-2.656-1.4-.614-.326-1.228-.653-1.844-.976-.25-.131-.4-.28-.434-.419a.743.743,0,0,1,.218-.543q1.578-2,3.163-3.988L4.88,183.04l.24-.308.133-.171.294-.38-.3-.377-.426-.539q-.555-.7-1.11-1.4l-1.5-1.884-1.94-2.435a.9.9,0,0,1-.266-.607c.028-.13.192-.283.451-.421q4.21-2.232,8.427-4.455l3.451-1.822,2.709-1.431,3.988-2.107a1.416,1.416,0,0,1,.547-.2m24.616,17.1.317-.4,3.362-4.221.936-1.176.449-.563-.627-.353-.276-.157c-.189-.108-.367-.21-.549-.307l-3.878-2.052q-6.021-3.186-12.037-6.379a1.256,1.256,0,0,0-.6-.172,1.1,1.1,0,0,0-.87.488q-1.333,1.707-2.687,3.4l-1.084,1.364c-.054.068-.1.141-.165.232l-.088.129L26,172l.612.323,17.134,9.037.449.237m-37.7-.276a1.316,1.316,0,0,0,.609-.175q5.829-3.086,11.666-6.153l3.387-1.784c.389-.205.777-.413,1.174-.626l.5-.268.613-.328-.4-.567-.092-.132c-.065-.1-.12-.173-.179-.248l-1.062-1.335c-.889-1.116-1.778-2.233-2.651-3.363a1.162,1.162,0,0,0-.9-.512,1.433,1.433,0,0,0-.674.2q-3.945,2.1-7.9,4.174l-3.188,1.68c-1.221.644-2.441,1.291-3.674,1.946l-1.893,1-.591.313.363.562.063.1a2.149,2.149,0,0,0,.139.206l1.061,1.33c.927,1.162,1.855,2.324,2.771,3.494a1.108,1.108,0,0,0,.861.483m18.7,10.225a1.717,1.717,0,0,0,.822-.244l8.46-4.462,4.587-2.418,2.177-1.152.98-.52.965-.511-.939-.558-.138-.084c-.1-.059-.178-.108-.263-.153l-4.085-2.154q-5.974-3.15-11.946-6.3a1.209,1.209,0,0,0-.574-.152,1.346,1.346,0,0,0-.628.174q-4.682,2.471-9.369,4.931l-3.188,1.676-2.371,1.25-1.467.774-.974.513.95.558.078.047c.047.028.078.046.109.062l3.418,1.807q6.358,3.361,12.709,6.737a1.444,1.444,0,0,0,.687.183m-6.04,7.026a1.068,1.068,0,0,0,.835-.47c.478-.62.967-1.233,1.455-1.846l.61-.767,1.549-1.956.4-.51.435-.55-.6-.358-.133-.08c-.093-.057-.173-.106-.255-.149L19.2,189.639q-6.1-3.227-12.193-6.457a1.136,1.136,0,0,0-.531-.149.968.968,0,0,0-.771.419q-1.28,1.628-2.571,3.249l-1.362,1.718a1.145,1.145,0,0,0-.16.284l-.028.061-.259.527.515.282.17.094c.12.066.233.128.346.188l1.422.745q1.392.728,2.783,1.46l.967.51q5.529,2.916,11.052,5.843a1.182,1.182,0,0,0,.569.16m12.128-.01a1.3,1.3,0,0,0,.609-.175q4.854-2.565,9.716-5.117l3.676-1.932c.769-.4,1.537-.813,2.319-1.229l1.006-.535.6-.317-.373-.563-.079-.121a2.513,2.513,0,0,0-.153-.224q-1.676-2.114-3.354-4.226c-.47-.591-.781-.982-1.345-.982a2.708,2.708,0,0,0-1.207.448l-6.019,3.176-7.552,3.984c-.556.293-1.11.589-1.675.892l-.841.449-.646.344.452.576.176.225.276.351.964,1.213c.868,1.09,1.736,2.18,2.591,3.28a1.109,1.109,0,0,0,.862.483m-6.564,13.029V195.526l-.047-.355-.265-.183-.054-.038-.6-.416-.3.667c-.012.027-.024.055-.041.1l-1.308,1.65Q21.048,198.27,20,199.591c-.059.075-.239.3-.36.3h0a2.135,2.135,0,0,1-.709-.233q-4.337-2.277-8.664-4.568l-2.3-1.214c-.094-.05-.191-.1-.307-.152l-.172-.082-.881-.429v3.162c0,1.577,0,3.155-.011,4.732a1.351,1.351,0,0,0,.8,1.335q5.548,2.919,11.087,5.858l3.4,1.8,1.243.652.7.367.9.471m6.151-11.668c-.049,0-.178,0-.472-.375q-1.126-1.43-2.257-2.853c-.286-.36-.573-.717-.882-1.1l-.456-.568-1.092-1.361V211.46l.844-.342.127-.05a2.784,2.784,0,0,0,.283-.122l4.555-2.4q5.817-3.071,11.636-6.135a1.186,1.186,0,0,0,.677-1.145c-.008-1.555-.007-3.11-.007-4.665v-1.966c0-.1-.008-.2-.018-.309l-.012-.14-.065-.86-.791.343-.112.047a2.443,2.443,0,0,0-.235.106l-2.348,1.24-1.166.616-2.121,1.121q-2.811,1.485-5.624,2.969a1.1,1.1,0,0,1-.464.16" transform="translate(631 1878.818)" fill="#0c1d30"/>
    </g>
  </g>
</svg>
