<svg xmlns="http://www.w3.org/2000/svg" width="80" height="62.438" viewBox="0 0 80 62.438">
  <g id="codificacion-limpia" transform="translate(-1.25 -8.22)">
    <g id="Grupo_148603" data-name="Grupo 148603" transform="translate(2.195 9.165)">
      <g id="Grupo_148598" data-name="Grupo 148598" transform="translate(0 50.217)">
        <path id="Trazado_207280" data-name="Trazado 207280" d="M2,48.83A10.329,10.329,0,0,0,12.331,59.161H69.78A10.329,10.329,0,0,0,80.11,48.83Z" transform="translate(-2 -48.83)" fill="#d7e6ef"/>
      </g>
      <g id="Grupo_148599" data-name="Grupo 148599" transform="translate(0 50.217)">
        <path id="Trazado_207281" data-name="Trazado 207281" d="M2,48.83a10.323,10.323,0,0,0,8.97,10.23c-.013-.013-.013-.025-.025-.05a3.486,3.486,0,0,1,3.1-5.14H78.787A10.324,10.324,0,0,0,80.11,48.83Z" transform="translate(-2 -48.83)" fill="#a4c0d8"/>
      </g>
      <g id="Grupo_148600" data-name="Grupo 148600" transform="translate(5.14)">
        <path id="Trazado_207282" data-name="Trazado 207282" d="M68.883,8.97H11.119A5.038,5.038,0,0,0,6.08,14.009V59.175H73.923V14.009A5.038,5.038,0,0,0,68.883,8.97Z" transform="translate(-6.08 -8.97)" fill="#d7e6ef"/>
      </g>
      <g id="Grupo_148601" data-name="Grupo 148601" transform="translate(10.18 5.039)">
        <path id="Trazado_207283" data-name="Trazado 207283" d="M10.08,12.97H67.844V53.1H10.08Z" transform="translate(-10.08 -12.97)" fill="#4dd0e1"/>
      </g>
      <g id="Grupo_148602" data-name="Grupo 148602" transform="translate(10.18 5.039)">
        <path id="Trazado_207284" data-name="Trazado 207284" d="M62.049,12.97A34.33,34.33,0,0,1,27.718,47.3H15.875a5.8,5.8,0,0,0-5.8,5.8H67.844V12.97Z" transform="translate(-10.08 -12.97)" fill="#44bac9"/>
      </g>
    </g>
    <g id="Grupo_148625" data-name="Grupo 148625" transform="translate(1.25 8.22)">
      <g id="Grupo_148604" data-name="Grupo 148604" transform="translate(0 50.217)">
        <path id="Trazado_207285" data-name="Trazado 207285" d="M69.974,60.3H12.526A11.288,11.288,0,0,1,1.25,49.025a.952.952,0,0,1,.945-.945h78.11a.952.952,0,0,1,.945.945A11.288,11.288,0,0,1,69.974,60.3ZM3.19,49.97a9.4,9.4,0,0,0,9.335,8.441H69.974A9.4,9.4,0,0,0,79.31,49.97Z" transform="translate(-1.25 -48.08)"/>
      </g>
      <g id="Grupo_148605" data-name="Grupo 148605" transform="translate(35.112 55.383)">
        <path id="Trazado_207286" data-name="Trazado 207286" d="M37.951,54.07H30.065a.945.945,0,1,1,0-1.89h7.887a.945.945,0,0,1,0,1.89Z" transform="translate(-29.12 -52.18)"/>
      </g>
      <g id="Grupo_148606" data-name="Grupo 148606" transform="translate(5.14)">
        <path id="Trazado_207287" data-name="Trazado 207287" d="M74.117,60.314H6.275a.952.952,0,0,1-.945-.945V14.2A5.99,5.99,0,0,1,11.314,8.22H69.078A5.99,5.99,0,0,1,75.062,14.2V59.37A.944.944,0,0,1,74.117,60.314Zm-66.9-1.89H73.173V14.2a4.1,4.1,0,0,0-4.094-4.094H11.314A4.1,4.1,0,0,0,7.22,14.2Z" transform="translate(-5.33 -8.22)"/>
      </g>
      <g id="Grupo_148607" data-name="Grupo 148607" transform="translate(10.18 5.039)">
        <path id="Trazado_207288" data-name="Trazado 207288" d="M68.039,54.236H10.275a.952.952,0,0,1-.945-.945V13.165a.952.952,0,0,1,.945-.945H68.039a.952.952,0,0,1,.945.945V53.291A.944.944,0,0,1,68.039,54.236ZM11.22,52.346H67.094V14.11H11.22Z" transform="translate(-9.33 -12.22)"/>
      </g>
      <g id="Grupo_148620" data-name="Grupo 148620" transform="translate(15.937 11.339)">
        <g id="Grupo_148608" data-name="Grupo 148608">
          <path id="Trazado_207289" data-name="Trazado 207289" d="M22.631,19.11H14.845a.945.945,0,0,1,0-1.89h7.786a.945.945,0,0,1,0,1.89Z" transform="translate(-13.9 -17.22)"/>
        </g>
        <g id="Grupo_148609" data-name="Grupo 148609" transform="translate(12.813)">
          <path id="Trazado_207290" data-name="Trazado 207290" d="M28.681,19.11H25.015a.945.945,0,0,1,0-1.89h3.666a.945.945,0,0,1,0,1.89Z" transform="translate(-24.07 -17.22)"/>
        </g>
        <g id="Grupo_148610" data-name="Grupo 148610" transform="translate(39.345)">
          <path id="Trazado_207291" data-name="Trazado 207291" d="M52.979,19.11h-6.9a.945.945,0,0,1,0-1.89h6.9a.945.945,0,0,1,0,1.89Z" transform="translate(-45.13 -17.22)"/>
        </g>
        <g id="Grupo_148611" data-name="Grupo 148611" transform="translate(21.506)">
          <path id="Trazado_207292" data-name="Trazado 207292" d="M44.916,19.11h-13a.945.945,0,1,1,0-1.89h13a.945.945,0,0,1,0,1.89Z" transform="translate(-30.97 -17.22)"/>
        </g>
        <g id="Grupo_148612" data-name="Grupo 148612" transform="translate(42.243 5.581)">
          <path id="Trazado_207293" data-name="Trazado 207293" d="M52.381,23.54H48.375a.945.945,0,0,1,0-1.89h4.006a.945.945,0,0,1,0,1.89Z" transform="translate(-47.43 -21.65)"/>
        </g>
        <g id="Grupo_148613" data-name="Grupo 148613" transform="translate(33.562 5.581)">
          <path id="Trazado_207294" data-name="Trazado 207294" d="M45.138,23.54H41.485a.945.945,0,0,1,0-1.89h3.654a.945.945,0,0,1,0,1.89Z" transform="translate(-40.54 -21.65)"/>
        </g>
        <g id="Grupo_148614" data-name="Grupo 148614" transform="translate(38.463 10.494)">
          <path id="Trazado_207295" data-name="Trazado 207295" d="M53.161,27.44H45.375a.945.945,0,0,1,0-1.89h7.786a.945.945,0,0,1,0,1.89Z" transform="translate(-44.43 -25.55)"/>
        </g>
        <g id="Grupo_148615" data-name="Grupo 148615" transform="translate(27.25 10.494)">
          <path id="Trazado_207296" data-name="Trazado 207296" d="M42.661,27.44H36.475a.945.945,0,0,1,0-1.89h6.186a.945.945,0,0,1,0,1.89Z" transform="translate(-35.53 -25.55)"/>
        </g>
        <g id="Grupo_148616" data-name="Grupo 148616" transform="translate(0 5.581)">
          <path id="Trazado_207297" data-name="Trazado 207297" d="M21.749,23.54h-6.9a.945.945,0,0,1,0-1.89h6.9a.945.945,0,1,1,0,1.89Z" transform="translate(-13.9 -21.65)"/>
        </g>
        <g id="Grupo_148617" data-name="Grupo 148617" transform="translate(11.742 5.581)">
          <path id="Trazado_207298" data-name="Trazado 207298" d="M40.946,23.54H24.165a.945.945,0,1,1,0-1.89H40.946a.945.945,0,1,1,0,1.89Z" transform="translate(-23.22 -21.65)"/>
        </g>
        <g id="Grupo_148618" data-name="Grupo 148618" transform="translate(0 10.494)">
          <path id="Trazado_207299" data-name="Trazado 207299" d="M27.67,27.44H14.845a.945.945,0,0,1,0-1.89H27.67a.945.945,0,1,1,0,1.89Z" transform="translate(-13.9 -25.55)"/>
        </g>
        <g id="Grupo_148619" data-name="Grupo 148619" transform="translate(17.865 10.494)">
          <path id="Trazado_207300" data-name="Trazado 207300" d="M33.384,27.44H29.025a.945.945,0,0,1,0-1.89h4.359a.945.945,0,1,1,0,1.89Z" transform="translate(-28.08 -25.55)"/>
        </g>
      </g>
      <g id="Grupo_148624" data-name="Grupo 148624" transform="translate(29.899 26.503)">
        <g id="Grupo_148621" data-name="Grupo 148621" transform="translate(0 3.145)">
          <path id="Trazado_207301" data-name="Trazado 207301" d="M29.6,41a.934.934,0,0,1-.668-.277l-3.679-3.679a.951.951,0,0,1,0-1.335l3.679-3.679a.944.944,0,0,1,1.335,1.335L27.26,36.373l3.011,3.011a.951.951,0,0,1,0,1.335A.934.934,0,0,1,29.6,41Z" transform="translate(-24.983 -31.752)"/>
        </g>
        <g id="Grupo_148622" data-name="Grupo 148622" transform="translate(14.652 3.145)">
          <path id="Trazado_207302" data-name="Trazado 207302" d="M37.554,41a.934.934,0,0,1-.668-.277.951.951,0,0,1,0-1.335L39.9,36.373l-3.011-3.011a.944.944,0,0,1,1.335-1.335L41.9,35.705a.951.951,0,0,1,0,1.335l-3.679,3.679a.894.894,0,0,1-.668.277Z" transform="translate(-36.612 -31.753)"/>
        </g>
        <g id="Grupo_148623" data-name="Grupo 148623" transform="translate(6.77)">
          <path id="Trazado_207303" data-name="Trazado 207303" d="M31.306,44.782a.915.915,0,0,1-.315-.05.946.946,0,0,1-.58-1.209l4.775-13.631a.948.948,0,1,1,1.789.63L32.2,44.152A.964.964,0,0,1,31.306,44.782Z" transform="translate(-30.357 -29.257)"/>
        </g>
      </g>
    </g>
  </g>
</svg>
