<svg xmlns="http://www.w3.org/2000/svg" width="80" height="80" viewBox="0 0 80 80">
  <g id="programacion_1_" data-name="programacion (1)" transform="translate(-1 -1)">
    <g id="Grupo_148676" data-name="Grupo 148676" transform="translate(2.212 2.213)">
      <g id="Grupo_148668" data-name="Grupo 148668" transform="translate(0)">
        <path id="Trazado_207328" data-name="Trazado 207328" d="M79.545,6.82a4.855,4.855,0,0,0-4.85-4.85H6.82A4.855,4.855,0,0,0,1.97,6.82V17.87H79.545Z" transform="translate(-1.97 -1.97)" fill="#feca2e"/>
      </g>
      <g id="Grupo_148669" data-name="Grupo 148669" transform="translate(0 15.887)">
        <path id="Trazado_207329" data-name="Trazado 207329" d="M1.97,14.68V55.168a4.855,4.855,0,0,0,4.85,4.85H74.695a4.855,4.855,0,0,0,4.85-4.85V14.68Z" transform="translate(-1.97 -14.68)" fill="#e6e9ee"/>
      </g>
      <g id="Grupo_148670" data-name="Grupo 148670" transform="translate(0 0)" opacity="0.12">
        <path id="Trazado_207330" data-name="Trazado 207330" d="M74.695,1.97H73.482V52.283a4.855,4.855,0,0,1-4.85,4.85H1.97v1.213A4.855,4.855,0,0,0,6.82,63.2H74.695a4.855,4.855,0,0,0,4.85-4.85V6.82a4.855,4.855,0,0,0-4.85-4.85Z" transform="translate(-1.97 -1.97)"/>
      </g>
      <g id="Grupo_148671" data-name="Grupo 148671" transform="translate(35.95 61.225)">
        <path id="Trazado_207331" data-name="Trazado 207331" d="M30.73,50.95h5.687v6.863H30.73Z" transform="translate(-30.73 -50.95)" fill="#bddcf6"/>
      </g>
      <g id="Grupo_148672" data-name="Grupo 148672" transform="translate(7.138 69.987)">
        <path id="Trazado_207332" data-name="Trazado 207332" d="M25.88,57.96v5.688H10.53a2.844,2.844,0,1,1,0-5.687Z" transform="translate(-7.68 -57.96)" fill="#bddcf6"/>
      </g>
      <g id="Grupo_148673" data-name="Grupo 148673" transform="translate(52.238 70)">
        <path id="Trazado_207333" data-name="Trazado 207333" d="M61.96,60.808a2.849,2.849,0,0,1-2.85,2.85H43.76V57.97H59.11A2.83,2.83,0,0,1,61.96,60.808Z" transform="translate(-43.76 -57.97)" fill="#bddcf6"/>
      </g>
      <g id="Grupo_148674" data-name="Grupo 148674" transform="translate(25.337 68.087)">
        <path id="Trazado_207334" data-name="Trazado 207334" d="M49.14,58.54v5.287a2.1,2.1,0,0,1-2.1,2.1H24.34a2.1,2.1,0,0,1-2.1-2.1V58.54a2.1,2.1,0,0,1,2.1-2.1h22.7A2.1,2.1,0,0,1,49.14,58.54Z" transform="translate(-22.24 -56.44)" fill="#4dd0e1"/>
      </g>
      <g id="Grupo_148675" data-name="Grupo 148675" transform="translate(25.338 68.087)" opacity="0.12">
        <path id="Trazado_207335" data-name="Trazado 207335" d="M47.04,56.44H45.415V60.1a2.1,2.1,0,0,1-2.1,2.1H22.24v1.625a2.1,2.1,0,0,0,2.1,2.1h22.7a2.1,2.1,0,0,0,2.1-2.1V58.54A2.1,2.1,0,0,0,47.04,56.44Z" transform="translate(-22.24 -56.44)"/>
      </g>
    </g>
    <g id="Grupo_148704" data-name="Grupo 148704" transform="translate(1 1)">
      <g id="Grupo_148693" data-name="Grupo 148693">
        <g id="Grupo_148680" data-name="Grupo 148680" transform="translate(7.163 23.8)">
          <g id="Grupo_148677" data-name="Grupo 148677">
            <path id="Trazado_207336" data-name="Trazado 207336" d="M23.6,22.465H7.943a1.212,1.212,0,1,1,0-2.425H23.6a1.212,1.212,0,1,1,0,2.425Z" transform="translate(-6.73 -20.04)"/>
          </g>
          <g id="Grupo_148678" data-name="Grupo 148678" transform="translate(7.063 5.738)">
            <path id="Trazado_207337" data-name="Trazado 207337" d="M15.505,27.055H13.593a1.212,1.212,0,1,1,0-2.425h1.913a1.212,1.212,0,1,1,0,2.425Z" transform="translate(-12.38 -24.63)"/>
          </g>
          <g id="Grupo_148679" data-name="Grupo 148679" transform="translate(0 5.738)">
            <path id="Trazado_207338" data-name="Trazado 207338" d="M10.893,27.055H7.943a1.212,1.212,0,1,1,0-2.425h2.95a1.212,1.212,0,1,1,0,2.425Z" transform="translate(-6.73 -24.63)"/>
          </g>
        </g>
        <g id="Grupo_148692" data-name="Grupo 148692">
          <g id="Grupo_148691" data-name="Grupo 148691">
            <g id="Grupo_148690" data-name="Grupo 148690">
              <g id="Grupo_148689" data-name="Grupo 148689">
                <g id="Grupo_148688" data-name="Grupo 148688">
                  <g id="Grupo_148681" data-name="Grupo 148681" transform="translate(0)">
                    <path id="Trazado_207339" data-name="Trazado 207339" d="M74.938,64.65H7.063A6.068,6.068,0,0,1,1,58.588V7.062A6.076,6.076,0,0,1,7.063,1H74.938A6.076,6.076,0,0,1,81,7.062V58.588A6.068,6.068,0,0,1,74.938,64.65ZM7.063,3.425A3.641,3.641,0,0,0,3.425,7.062V58.588a3.641,3.641,0,0,0,3.638,3.637H74.938a3.641,3.641,0,0,0,3.638-3.637V7.062a3.641,3.641,0,0,0-3.638-3.638Z" transform="translate(-1 -1)"/>
                  </g>
                  <g id="Grupo_148682" data-name="Grupo 148682" transform="translate(0 15.887)">
                    <path id="Trazado_207340" data-name="Trazado 207340" d="M79.787,16.135H2.212a1.213,1.213,0,0,1,0-2.425H79.787a1.213,1.213,0,1,1,0,2.425Z" transform="translate(-1 -13.71)"/>
                  </g>
                  <g id="Grupo_148686" data-name="Grupo 148686" transform="translate(7.475 7.95)">
                    <g id="Grupo_148683" data-name="Grupo 148683">
                      <path id="Trazado_207341" data-name="Trazado 207341" d="M10.755,9.785H8.193a1.213,1.213,0,1,1,0-2.425h2.563a1.206,1.206,0,0,1,1.213,1.213A1.222,1.222,0,0,1,10.755,9.785Z" transform="translate(-6.98 -7.36)"/>
                    </g>
                    <g id="Grupo_148684" data-name="Grupo 148684" transform="translate(7)">
                      <path id="Trazado_207342" data-name="Trazado 207342" d="M16.355,9.785H13.793a1.213,1.213,0,0,1,0-2.425h2.562a1.206,1.206,0,0,1,1.213,1.213A1.222,1.222,0,0,1,16.355,9.785Z" transform="translate(-12.58 -7.36)"/>
                    </g>
                    <g id="Grupo_148685" data-name="Grupo 148685" transform="translate(14)">
                      <path id="Trazado_207343" data-name="Trazado 207343" d="M21.955,9.785H19.393a1.213,1.213,0,0,1,0-2.425h2.562a1.213,1.213,0,0,1,0,2.425Z" transform="translate(-18.18 -7.36)"/>
                    </g>
                  </g>
                  <g id="Grupo_148687" data-name="Grupo 148687" transform="translate(41.2 7.95)">
                    <path id="Trazado_207344" data-name="Trazado 207344" d="M63.873,9.785h-28.7a1.213,1.213,0,1,1,0-2.425h28.7a1.206,1.206,0,0,1,1.212,1.213A1.222,1.222,0,0,1,63.873,9.785Z" transform="translate(-33.96 -7.36)"/>
                  </g>
                </g>
              </g>
            </g>
          </g>
        </g>
      </g>
      <g id="Grupo_148698" data-name="Grupo 148698" transform="translate(7.138 61.225)">
        <g id="Grupo_148694" data-name="Grupo 148694" transform="translate(28.813)">
          <path id="Trazado_207345" data-name="Trazado 207345" d="M36.66,59.268H30.972a1.206,1.206,0,0,1-1.212-1.213V51.192a1.206,1.206,0,0,1,1.212-1.213H36.66a1.206,1.206,0,0,1,1.213,1.213v6.863A1.214,1.214,0,0,1,36.66,59.268Zm-4.487-2.425h3.263V52.405H32.173Z" transform="translate(-29.76 -49.98)"/>
        </g>
        <g id="Grupo_148695" data-name="Grupo 148695" transform="translate(0 8.763)">
          <path id="Trazado_207346" data-name="Trazado 207346" d="M26.122,65.1H10.773a4.056,4.056,0,1,1,0-8.113h15.35A1.206,1.206,0,0,1,27.335,58.2V63.89A1.214,1.214,0,0,1,26.122,65.1Zm-15.35-5.688a1.631,1.631,0,1,0,0,3.263H24.91V59.415Z" transform="translate(-6.71 -56.99)"/>
        </g>
        <g id="Grupo_148696" data-name="Grupo 148696" transform="translate(45.1 8.763)">
          <path id="Trazado_207347" data-name="Trazado 207347" d="M59.353,65.1H44A1.206,1.206,0,0,1,42.79,63.89V58.2A1.206,1.206,0,0,1,44,56.99h15.35a4.056,4.056,0,1,1,0,8.113ZM45.215,62.678H59.353a1.638,1.638,0,0,0,0-3.275H45.215Z" transform="translate(-42.79 -56.99)"/>
        </g>
        <g id="Grupo_148697" data-name="Grupo 148697" transform="translate(18.2 6.863)">
          <path id="Trazado_207348" data-name="Trazado 207348" d="M47.283,67.382h-22.7A3.318,3.318,0,0,1,21.27,64.07V58.783a3.318,3.318,0,0,1,3.312-3.313h22.7A3.318,3.318,0,0,1,50.6,58.783V64.07A3.318,3.318,0,0,1,47.283,67.382ZM24.583,57.9a.891.891,0,0,0-.887.888V64.07a.891.891,0,0,0,.887.887h22.7a.891.891,0,0,0,.888-.887V58.783a.891.891,0,0,0-.888-.888Z" transform="translate(-21.27 -55.47)"/>
        </g>
      </g>
      <g id="Grupo_148703" data-name="Grupo 148703" transform="translate(22.513 26.65)">
        <g id="Grupo_148702" data-name="Grupo 148702">
          <g id="Grupo_148699" data-name="Grupo 148699" transform="translate(11.525)">
            <path id="Trazado_207349" data-name="Trazado 207349" d="M38.868,22.683a1.179,1.179,0,0,1,.338.85,1.59,1.59,0,0,1-.088.438L30.605,48.42a1.268,1.268,0,0,1-.412.588,1.284,1.284,0,0,1-1.625-.112,1.179,1.179,0,0,1-.338-.85,1.528,1.528,0,0,1,.075-.437l8.513-24.45a1.208,1.208,0,0,1,.413-.587,1.12,1.12,0,0,1,.737-.25,1.225,1.225,0,0,1,.9.362Z" transform="translate(-28.23 -22.32)"/>
          </g>
          <g id="Grupo_148700" data-name="Grupo 148700" transform="translate(22.5 7.472)">
            <path id="Trazado_207350" data-name="Trazado 207350" d="M48.885,33.926v.188a1.383,1.383,0,0,1-.275.85,1.843,1.843,0,0,1-.712.588l-9.212,4.138a1.19,1.19,0,0,1-.475.088,1.159,1.159,0,0,1-.85-.338,1.191,1.191,0,0,1-.35-.85,1.151,1.151,0,0,1,.225-.675,1.214,1.214,0,0,1,.563-.437l7.737-3.437L37.8,30.6a1.214,1.214,0,0,1-.562-.437,1.123,1.123,0,0,1-.225-.675,1.141,1.141,0,0,1,.35-.838,1.232,1.232,0,0,1,1.325-.263l9.2,4.138a1.7,1.7,0,0,1,.725.587,1.165,1.165,0,0,1,.275.813Z" transform="translate(-37.01 -28.298)"/>
          </g>
          <g id="Grupo_148701" data-name="Grupo 148701" transform="translate(0 7.417)">
            <path id="Trazado_207351" data-name="Trazado 207351" d="M30.873,38.587a1.174,1.174,0,0,1-1.187,1.188,1.171,1.171,0,0,1-.463-.088H29.2L20,35.562a1.959,1.959,0,0,1-.712-.588,1.383,1.383,0,0,1-.275-.85v-.187a1.419,1.419,0,0,1,.275-.862A1.842,1.842,0,0,1,20,32.487l9.2-4.138a1.178,1.178,0,0,1,1.325.263,1.114,1.114,0,0,1,.35.837,1.1,1.1,0,0,1-.225.675,1.257,1.257,0,0,1-.562.45l-7.738,3.437,7.75,3.438a1.408,1.408,0,0,1,.563.45,1.27,1.27,0,0,1,.212.688Z" transform="translate(-19.01 -28.253)"/>
          </g>
        </g>
      </g>
    </g>
  </g>
</svg>
